<svg width="50" height="50" viewBox="0 0 50 50" fill="none" xmlns="http://www.w3.org/2000/svg">
<g clip-path="url(#clip0_70_1767)">
<path d="M10.7892 10.5344C10.8238 10.3374 10.7787 10.1346 10.6639 9.97078C10.5491 9.80693 10.3739 9.69537 10.1769 9.66061C10.0793 9.64337 9.97922 9.64553 9.88245 9.66697C9.78567 9.68841 9.69407 9.7287 9.61288 9.78556C9.53168 9.84241 9.46249 9.91471 9.40924 9.99831C9.356 10.0819 9.31975 10.1752 9.30257 10.2728C9.28138 10.3927 8.92474 12.4708 9.1344 14.7206L6.73626 7.75231C6.704 7.65859 6.65361 7.57214 6.58794 7.4979C6.52228 7.42365 6.44264 7.36307 6.35356 7.3196C6.17366 7.23182 5.96626 7.21911 5.77698 7.28424C5.5877 7.34938 5.43205 7.48704 5.34427 7.66694C5.2565 7.84684 5.24378 8.05424 5.30891 8.24352L7.43977 14.435C7.39378 14.352 7.3471 14.2687 7.29925 14.1848C5.92317 11.7712 4.51809 10.2761 3.12307 9.74137C2.73411 9.59206 2.29749 9.78678 2.14817 10.1759C2.11269 10.2685 2.09578 10.3671 2.09841 10.4662C2.10105 10.5653 2.12317 10.6629 2.16353 10.7534C2.20388 10.8439 2.26167 10.9256 2.3336 10.9938C2.40553 11.062 2.49019 11.1154 2.58274 11.1508C4.25169 11.7907 5.89358 14.581 6.8512 16.584L7.41106 18.0085L11.0663 16.8012L10.7195 15.2528C10.3716 12.9818 10.784 10.5643 10.7892 10.5344Z" fill="#77D057"/>
<path d="M40.2125 14.1836H32.3898L29.7333 19.2769C29.6399 19.4559 29.5911 19.6549 29.5911 19.8568V33.1011C29.5911 33.7937 30.1526 34.3552 30.8452 34.3552H41.757C42.4497 34.3552 43.0111 33.7937 43.0111 33.1011V19.8568C43.0111 19.6549 42.9624 19.456 42.8689 19.2769L40.2125 14.1836Z" fill="#E9EAEB"/>
<path d="M42.869 19.2769L40.2125 14.1836H34.782L37.4385 19.2769C37.5319 19.4559 37.5807 19.6549 37.5807 19.8568V33.1012C37.5807 33.7938 37.0192 34.3553 36.3266 34.3553H41.7571C42.4498 34.3553 43.0112 33.7938 43.0112 33.1012V19.8568C43.0112 19.6549 42.9624 19.4559 42.869 19.2769Z" fill="#C8CBCE"/>
<path d="M41.5267 15.0701H31.0755C30.8738 15.0701 30.6803 14.99 30.5377 14.8474C30.3951 14.7047 30.3149 14.5113 30.3149 14.3096V13.1941C30.3149 12.9924 30.3951 12.799 30.5377 12.6564C30.6803 12.5137 30.8738 12.4336 31.0755 12.4336H41.5267C41.7284 12.4336 41.9218 12.5137 42.0645 12.6564C42.2071 12.799 42.2872 12.9924 42.2872 13.1941V14.3096C42.2872 14.5113 42.207 14.7047 42.0644 14.8473C41.9218 14.99 41.7284 15.0701 41.5267 15.0701Z" fill="#FD9727"/>
<path d="M41.5268 12.4336H36.8364V15.0701H41.5268C41.7285 15.0701 41.9219 14.99 42.0645 14.8474C42.2072 14.7047 42.2873 14.5113 42.2873 14.3096V13.194C42.2873 12.9924 42.2071 12.799 42.0645 12.6563C41.9219 12.5137 41.7284 12.4336 41.5268 12.4336Z" fill="#F9662B"/>
<path d="M39.9957 29.9319H32.6067C32.5659 29.9319 32.5255 29.9239 32.4878 29.9083C32.4502 29.8927 32.4159 29.8698 32.3871 29.841C32.3583 29.8121 32.3354 29.7779 32.3198 29.7402C32.3042 29.7026 32.2961 29.6622 32.2961 29.6214V22.2324C32.2961 22.1916 32.3042 22.1513 32.3198 22.1136C32.3354 22.0759 32.3583 22.0417 32.3871 22.0128C32.4159 21.984 32.4502 21.9611 32.4878 21.9455C32.5255 21.9299 32.5659 21.9219 32.6067 21.9219H39.9957C40.078 21.9219 40.157 21.9546 40.2152 22.0128C40.2735 22.0711 40.3062 22.1501 40.3062 22.2324V29.6214C40.3062 29.7038 40.2735 29.7827 40.2152 29.841C40.157 29.8992 40.078 29.9319 39.9957 29.9319Z" fill="#5BDCFD"/>
<path d="M39.9957 21.9219H37.5808V29.9319H39.9957C40.078 29.9319 40.157 29.8992 40.2152 29.841C40.2735 29.7827 40.3062 29.7037 40.3062 29.6214V22.2324C40.3062 22.1501 40.2735 22.0711 40.2152 22.0128C40.157 21.9546 40.078 21.9219 39.9957 21.9219Z" fill="#48C7E5"/>
<path d="M26.2365 9.07559V0.527344H21.8604V9.07568C21.8604 10.6409 21.2601 12.1466 20.1831 13.2824C19.1062 14.4183 18.5059 15.9239 18.5059 17.4892V42.3045C18.5059 43.1537 19.1943 43.8422 20.0436 43.8422H28.0532C28.9024 43.8422 29.5909 43.1537 29.5909 42.3045V17.4892C29.5909 15.9239 28.9906 14.4183 27.9137 13.2824C26.8368 12.1465 26.2365 10.6408 26.2365 9.07559Z" fill="#602952"/>
<path d="M27.9137 13.2824C26.8368 12.1466 26.2365 10.6409 26.2365 9.07568V0.527344H21.8603V9.07568C21.8603 9.94707 21.6738 10.7997 21.323 11.5807C21.6045 12.208 21.9899 12.7834 22.4629 13.2825C23.5399 14.4184 24.1402 15.924 24.1402 17.4893V42.3046C24.1402 43.1538 23.4517 43.8423 22.6025 43.8423H28.0533C28.9025 43.8423 29.591 43.1538 29.591 42.3046V17.4892C29.5909 15.9239 28.9906 14.4183 27.9137 13.2824Z" fill="#4C1C40"/>
<path d="M26.5767 7.57822V0.25918C26.5767 0.190441 26.5494 0.124518 26.5008 0.075912C26.4522 0.0273064 26.3863 0 26.3175 0L21.7794 0C21.7107 0 21.6448 0.0273064 21.5962 0.075912C21.5476 0.124518 21.5203 0.190441 21.5203 0.25918V7.57822C21.5203 7.64696 21.5476 7.71288 21.5962 7.76149C21.6448 7.8101 21.7107 7.8374 21.7794 7.8374H26.3175C26.3863 7.83738 26.4522 7.81006 26.5008 7.76146C26.5494 7.71286 26.5767 7.64695 26.5767 7.57822Z" fill="#FDC74F"/>
<path d="M29.5909 32.5709H23.095C22.8918 32.5709 22.6969 32.4902 22.5532 32.3465C22.4096 32.2028 22.3289 32.008 22.3289 31.8048V20.9009C22.3289 20.6977 22.4096 20.5028 22.5532 20.3592C22.6969 20.2155 22.8918 20.1348 23.095 20.1348H29.5909V32.5709Z" fill="#E8B19C"/>
<path d="M24.1396 20.1348H29.5904V32.5713H24.1396V20.1348Z" fill="#D09C84"/>
<path d="M20.3659 43.4161L16.1168 18.5801C15.7453 16.4087 13.516 15.0877 11.4329 15.8046L6.56277 17.4806C4.47967 18.1975 3.53553 20.6107 4.57908 22.5508L16.5146 44.7416C17.6222 46.8007 20.7602 45.7208 20.3659 43.4161Z" fill="#FD9727"/>
<path d="M20.3661 43.4161L16.1169 18.5801C15.7455 16.4087 13.5162 15.0877 11.4331 15.8046L9.62671 16.4262L16.5147 44.7416C17.6223 46.8007 20.7604 45.7208 20.3661 43.4161Z" fill="#F9662B"/>
<path d="M39.0667 49.9998H10.9333C9.59878 49.9998 8.44351 49.0721 8.15542 47.7689L3.97729 28.8721H46.0228L41.8448 47.7689C41.5566 49.0721 40.4014 49.9998 39.0667 49.9998Z" fill="#FDC74F"/>
<path d="M40.5888 28.8721L36.4107 47.7689C36.1227 49.0721 34.9674 49.9998 33.6328 49.9998H39.0669C40.4016 49.9998 41.5567 49.0721 41.8448 47.7689L46.0229 28.8721H40.5888Z" fill="#FCA629"/>
<path d="M47.6557 32.0017H2.34438C2.11727 32.0017 1.89945 31.9114 1.73886 31.7508C1.57826 31.5902 1.48804 31.3724 1.48804 31.1453V29.0175C1.48804 28.7904 1.57826 28.5725 1.73886 28.412C1.89945 28.2514 2.11727 28.1611 2.34438 28.1611H47.6556C47.8827 28.1611 48.1005 28.2514 48.2611 28.412C48.4217 28.5725 48.512 28.7904 48.512 29.0175V31.1453C48.512 31.2578 48.4899 31.3691 48.4468 31.473C48.4038 31.5769 48.3407 31.6713 48.2612 31.7509C48.1817 31.8304 48.0873 31.8935 47.9834 31.9365C47.8795 31.9795 47.7682 32.0017 47.6557 32.0017Z" fill="#FC502A"/>
<path d="M47.6557 28.1611H43.0613V32.0018H47.6557C47.8828 32.0018 48.1006 31.9115 48.2612 31.7509C48.4218 31.5903 48.5121 31.3725 48.5121 31.1454V29.0176C48.5121 28.7905 48.4218 28.5726 48.2612 28.412C48.1007 28.2514 47.8828 28.1612 47.6557 28.1611Z" fill="#E60D28"/>
<path d="M20.8699 45.3901C20.8768 45.4891 20.903 45.5857 20.9472 45.6745C20.9914 45.7633 21.0527 45.8425 21.1275 45.9076C21.2024 45.9727 21.2893 46.0224 21.3834 46.0538C21.4774 46.0853 21.5768 46.0979 21.6757 46.091C21.7746 46.084 21.8712 46.0576 21.96 46.0133C22.0487 45.969 22.1278 45.9077 22.1928 45.8327C22.2578 45.7578 22.3074 45.6708 22.3388 45.5768C22.3701 45.4827 22.3827 45.3833 22.3756 45.2844L21.7312 36.1082C21.7021 35.6924 21.3411 35.3784 20.9255 35.4082C20.8266 35.4151 20.7301 35.4415 20.6414 35.4857C20.5527 35.53 20.4736 35.5913 20.4086 35.6661C20.3436 35.7409 20.294 35.8278 20.2625 35.9218C20.2311 36.0158 20.2185 36.1151 20.2255 36.214L20.8699 45.3901ZM15.0455 46.2314C14.9941 46.2423 14.9417 46.2478 14.8892 46.2478C14.7161 46.2475 14.5484 46.1879 14.4141 46.0788C14.2798 45.9697 14.1871 45.8178 14.1514 45.6484L12.2184 36.4723C12.1771 36.2764 12.2153 36.0722 12.3247 35.9045C12.434 35.7369 12.6054 35.6195 12.8013 35.5782C13.2093 35.4919 13.6094 35.7533 13.6953 36.1611L15.6283 45.3373C15.6488 45.4343 15.6499 45.5343 15.6317 45.6317C15.6135 45.7292 15.5762 45.822 15.5221 45.905C15.468 45.9881 15.398 46.0596 15.3163 46.1156C15.2345 46.1716 15.1425 46.2109 15.0455 46.2314ZM29.8829 45.3901C29.8761 45.4891 29.8498 45.5857 29.8056 45.6745C29.7614 45.7633 29.7001 45.8425 29.6253 45.9076C29.5505 45.9727 29.4635 46.0224 29.3695 46.0538C29.2754 46.0853 29.1761 46.0979 29.0771 46.091C28.9782 46.084 28.8816 46.0576 28.7929 46.0133C28.7041 45.969 28.625 45.9077 28.56 45.8327C28.495 45.7578 28.4454 45.6708 28.414 45.5768C28.3827 45.4827 28.3702 45.3833 28.3772 45.2844L29.0216 36.1082C29.0508 35.6924 29.4117 35.3784 29.8273 35.4082C29.9262 35.4151 30.0228 35.4415 30.1114 35.4857C30.2001 35.53 30.2792 35.5913 30.3442 35.6661C30.4092 35.7409 30.4589 35.8278 30.4903 35.9218C30.5217 36.0158 30.5343 36.1151 30.5273 36.214L29.8829 45.3901ZM35.7074 46.2314C35.7588 46.2423 35.8112 46.2478 35.8638 46.2478C36.0368 46.2475 36.2045 46.1879 36.3388 46.0788C36.4731 45.9697 36.5659 45.8178 36.6016 45.6484L38.5346 36.4723C38.5758 36.2764 38.5376 36.0722 38.4283 35.9045C38.319 35.7369 38.1475 35.6195 37.9517 35.5782C37.5437 35.4919 37.1436 35.7533 37.0576 36.1611L35.1246 45.3373C35.1041 45.4343 35.103 45.5343 35.1212 45.6318C35.1394 45.7292 35.1766 45.8221 35.2308 45.9051C35.2849 45.9881 35.3548 46.0597 35.4366 46.1156C35.5184 46.1716 35.6104 46.2109 35.7074 46.2314Z" fill="white"/>
<path d="M11.2555 23.2025C11.443 23.1359 11.5966 22.9981 11.683 22.8189C11.7694 22.6397 11.7816 22.4336 11.7168 22.2455C11.6521 22.0574 11.5157 21.9024 11.3373 21.8143C11.1589 21.7263 10.953 21.7122 10.7643 21.7751L5.19238 23.6912L5.91689 25.0383L11.2555 23.2025ZM7.80684 28.1613L11.5659 26.9392C11.7534 26.8727 11.9071 26.7348 11.9935 26.5556C12.0799 26.3764 12.092 26.1703 12.0273 25.9822C11.9625 25.7941 11.8261 25.6392 11.6478 25.5511C11.4694 25.463 11.2634 25.4489 11.0747 25.5118L6.9335 26.9282L7.59668 28.1613H7.80684Z" fill="#FDC74F"/>
</g>
<defs>
<clipPath id="clip0_70_1767">
<rect width="50" height="50" fill="white"/>
</clipPath>
</defs>
</svg>
