<svg width="20" height="20" viewBox="0 0 20 20" fill="none" xmlns="http://www.w3.org/2000/svg">
<g clip-path="url(#clip0_60_10160)">
<mask id="mask0_60_10160" style="mask-type:luminance" maskUnits="userSpaceOnUse" x="0" y="0" width="20" height="20">
<path d="M0 5.91278e-05H19.9999V20H0V5.91278e-05Z" fill="white"/>
</mask>
<g mask="url(#mask0_60_10160)">
<path d="M16.4139 7.80208L9.99707 10.3259C11.0287 10.9173 11.9651 11.563 12.7951 12.2548C14.0643 13.313 15.2233 14.6993 16.0447 16.0591L17.2076 8.43567C17.2756 7.9911 16.8347 7.6368 16.4139 7.80208Z" fill="#2CC879"/>
<path d="M15.6084 17.7254C13.9951 14.2215 10.299 11.666 7.67401 10.4418C6.06675 9.69233 4.57562 9.20655 3.56836 8.923C3.13743 8.80167 2.72516 9.16562 2.7927 9.60819L4.30215 19.5023C4.32327 19.6408 4.39332 19.7672 4.4996 19.8585C4.60587 19.9498 4.74134 20 4.88144 20H14.94C15.2295 20 15.4756 19.7887 15.5193 19.5023C15.5193 19.5023 15.6451 17.8051 15.6084 17.7254Z" fill="#2CC879"/>
<path d="M5.39819 4.32292C5.39819 4.03355 5.16358 3.79894 4.87421 3.79894H4.16432C3.87495 3.79894 3.64038 4.03355 3.64038 4.32292V7.69037C4.2853 7.83955 4.83096 7.99502 5.39819 8.1958V4.32292Z" fill="#2CC879"/>
<path d="M8.13256 1.7519C8.13256 1.46252 7.89795 1.22791 7.60858 1.22791H6.8987C6.60933 1.22791 6.37476 1.46252 6.37476 1.7519V8.5752C6.88175 8.78692 7.44659 9.04274 8.13256 9.3623V1.7519Z" fill="#2CC879"/>
<path d="M10.8669 0.523816C10.8669 0.234442 10.6323 -0.000166893 10.343 -0.000166893H9.63307C9.3437 -0.000166893 9.10913 0.234442 9.10913 0.523816V9.41895L10.8669 8.72403V0.523816Z" fill="#2CC879"/>
<path d="M13.6013 4.32292C13.6013 4.03355 13.3667 3.79894 13.0773 3.79894H12.3674C12.0781 3.79894 11.8435 4.03355 11.8435 4.32292V8.34033L13.6013 7.64893V4.32292Z" fill="#2CC879"/>
<path d="M16.3357 6.61348V3.00267C16.3357 2.71329 16.1011 2.47873 15.8117 2.47873H15.1018C14.8125 2.47873 14.5779 2.71329 14.5779 3.00267V7.26465C16.1151 6.66008 16.0988 6.65387 16.3357 6.61348Z" fill="#2CC879"/>
</g>
</g>
<defs>
<clipPath id="clip0_60_10160">
<rect width="20" height="20" fill="white"/>
</clipPath>
</defs>
</svg>
