<svg width="18" height="18" viewBox="0 0 18 18" fill="none" xmlns="http://www.w3.org/2000/svg">
<g clip-path="url(#clip0_62_10305)">
<path d="M7.2457 16.4686L5.85014 16.1826L5.04267 17.0189L2.29004 14.8464L4.12583 13.5935L6.07784 11.4573C6.40497 11.0993 6.98326 11.151 7.24169 11.5614L9.55434 14.2137C9.90383 14.6145 9.80497 15.2342 9.34794 15.5064L7.98549 16.3177C7.74762 16.4615 7.52118 16.4737 7.2457 16.4686Z" fill="#FFE7CF"/>
<path d="M9.55415 14.2136L8.98986 13.5664L6.63657 14.9688C6.39874 15.1126 6.17226 15.1248 5.89664 15.1197L4.67443 14.9882L3.61865 15.895L5.04262 17.0189L5.84995 16.1824L7.24551 16.4686C7.521 16.4735 7.74754 16.4615 7.9853 16.3177L9.34775 15.5063C9.80478 15.2341 9.90368 14.6145 9.55415 14.2136Z" fill="#EFD5BD"/>
<path d="M9.48626 14.2704C9.2138 13.8478 8.88189 14.0617 8.60943 13.639C8.33697 13.2164 8.66888 13.0025 8.39642 12.5799C8.12382 12.1572 7.79205 12.3712 7.51959 11.9485C7.24698 11.5256 7.57889 11.3117 7.30629 10.889C7.13972 10.6307 6.83801 10.0973 6.65425 10.0239L5.18359 10.7505L7.74286 14.7869C7.99254 15.1744 8.50902 15.286 8.89644 15.0362L9.38617 14.7206C9.53569 14.6241 9.58431 14.4241 9.48848 14.274C9.48779 14.2728 9.48705 14.2716 9.48626 14.2704Z" fill="#344A5D"/>
<path d="M5.25577 11.3754L4.10043 12.0883C3.88123 12.2236 3.59383 12.1554 3.45855 11.9363L2.80538 10.8777C2.6701 10.6585 2.73823 10.3711 2.95739 10.2358L4.11273 9.52296C4.1779 9.48277 4.25636 9.47011 4.33086 9.48775C4.40536 9.50539 4.46981 9.55189 4.51003 9.61703L5.34981 10.9781C5.36972 11.0104 5.38308 11.0462 5.38913 11.0837C5.39517 11.1211 5.39379 11.1593 5.38505 11.1962C5.37632 11.2331 5.3604 11.2679 5.33821 11.2987C5.31602 11.3294 5.288 11.3555 5.25573 11.3754L5.25577 11.3754Z" fill="#344A5D"/>
<path d="M5.96485 7.59346L3.61982 9.04049C3.31112 9.23083 3.21539 9.63541 3.40572 9.94401L4.56219 11.8183C4.75266 12.1268 5.1571 12.2227 5.46581 12.0322L7.81083 10.5853L15.2281 8.97074L10.7348 1.68848L5.96485 7.59346Z" fill="#FED066"/>
<path d="M14.1695 7.25488L6.79031 8.93159C6.79031 8.93159 4.24971 10.4991 3.88647 10.7233L4.56214 11.8182C4.75248 12.1268 5.15706 12.2227 5.46562 12.0322L7.81079 10.5853L15.2281 8.97072L14.1695 7.25488Z" fill="#F5B556"/>
<path d="M7.81066 10.5856L5.46549 12.0325C5.15689 12.223 4.75235 12.1271 4.56197 11.8185L3.40555 9.94426C3.21507 9.6357 3.31094 9.23112 3.61951 9.04078L5.96467 7.59375L7.81066 10.5856Z" fill="#FD715C"/>
<path d="M6.79031 8.93164C6.79031 8.93164 4.24971 10.4991 3.88647 10.7233L4.56214 11.8183C4.75248 12.1269 5.15706 12.2227 5.46562 12.0322L6.63812 11.3088L7.81079 10.5854L6.79031 8.93164Z" fill="#D83E3A"/>
<path d="M15.673 9.48806L15.3529 9.68557C15.187 9.78787 14.9695 9.73637 14.8672 9.57047L10.0368 1.74187C10.0124 1.70242 9.99605 1.65855 9.98865 1.61277C9.98125 1.567 9.98295 1.52022 9.99364 1.4751C10.0043 1.42998 10.0238 1.38741 10.0509 1.34981C10.0781 1.31222 10.1124 1.28035 10.1519 1.25601L10.4719 1.05854C10.6379 0.956096 10.8554 1.0076 10.9577 1.17364L15.7881 9.00224C15.8905 9.1681 15.8389 9.38562 15.673 9.48806Z" fill="#FD715C"/>
<path d="M15.7879 9.00234L14.9933 7.71436L14.0723 8.28276L14.867 9.57061C14.9693 9.73654 15.1868 9.78801 15.3527 9.68571L15.6729 9.48823C15.8387 9.38579 15.8904 9.16824 15.7879 9.00238V9.00234Z" fill="#D83E3A"/>
<path d="M8.75834 15.336C8.93289 15.6217 9.30615 15.712 9.5919 15.5373L10.4757 14.997C10.7613 14.8225 10.8514 14.4495 10.6768 14.1638C10.5023 13.8781 10.129 13.788 9.84337 13.9625L8.95954 14.5028C8.674 14.6773 8.58393 15.0503 8.75834 15.336Z" fill="#FFE7CF"/>
<path d="M10.6769 14.1638C10.6082 14.0513 10.5044 13.9644 10.3816 13.9165C10.4126 14.1473 10.3088 14.3856 10.0972 14.515L9.21332 15.0552C9.04468 15.1582 8.84598 15.1684 8.67529 15.1014C8.68637 15.1845 8.71466 15.2644 8.75837 15.336C8.93292 15.6219 9.30617 15.7119 9.59192 15.5372L10.4757 14.997C10.7613 14.8224 10.8513 14.4495 10.6768 14.1638L10.6769 14.1638Z" fill="#EFD5BD"/>
<path d="M8.37987 14.143C8.55705 14.4332 8.93593 14.5246 9.22597 14.3473L10.094 13.8167C10.3839 13.6395 10.4754 13.2609 10.2984 12.9709C10.1212 12.6808 9.74231 12.5894 9.45227 12.7667L8.58409 13.2973C8.29419 13.4745 8.20271 13.8531 8.37987 14.143Z" fill="#FFE7CF"/>
<path d="M10.2984 12.9712C10.2306 12.8601 10.1291 12.7736 10.0088 12.7241C10.0383 12.957 9.93299 13.1964 9.71973 13.3267L8.85152 13.8573C8.677 13.964 8.47056 13.9728 8.29492 13.9002C8.30569 13.9863 8.33467 14.0692 8.37993 14.1433C8.55712 14.4335 8.936 14.5249 9.22603 14.3476L10.0941 13.817C10.384 13.6398 10.4755 13.2612 10.2984 12.9712Z" fill="#EFD5BD"/>
<path d="M7.73289 13.0997C7.91008 13.3897 8.28892 13.4813 8.57896 13.304L9.44718 12.7732C9.73708 12.5961 9.82842 12.2175 9.65137 11.9276C9.47422 11.6374 9.09534 11.5459 8.8053 11.7232L7.93712 12.2539C7.64722 12.431 7.55574 12.8096 7.73289 13.0997Z" fill="#FFE7CF"/>
<path d="M9.65127 11.9279C9.5849 11.8191 9.48621 11.7336 9.36896 11.6836C9.39448 11.9136 9.28926 12.1485 9.07875 12.2771L8.2107 12.8078C8.03369 12.916 7.82398 12.9236 7.64697 12.8477C7.65665 12.937 7.6859 13.0231 7.73265 13.0999C7.90994 13.39 8.28871 13.4815 8.57886 13.3042L9.44708 12.7736C9.73698 12.5964 9.82831 12.2178 9.65127 11.9279Z" fill="#EFD5BD"/>
<path d="M7.12272 12.0299C7.29991 12.3199 7.67879 12.4113 7.96883 12.2341L8.83701 11.7034C9.12691 11.5263 9.21839 11.1476 9.04123 10.8576C8.86405 10.5675 8.48517 10.4761 8.19513 10.6534L7.32695 11.184C7.03705 11.3612 6.94571 11.7398 7.12272 12.0299Z" fill="#FFE7CF"/>
<path d="M9.04146 10.8577C8.96001 10.7242 8.83559 10.6334 8.6969 10.5908C8.74991 10.8391 8.64539 11.1043 8.4166 11.2442L7.54841 11.7749C7.39186 11.8706 7.20951 11.8873 7.04688 11.8374C7.06118 11.9054 7.0869 11.9705 7.12295 12.0299C7.30014 12.3199 7.67902 12.4114 7.96906 12.2341L8.83724 11.7035C9.12714 11.5263 9.21862 11.1477 9.04146 10.8576V10.8577Z" fill="#EFD5BD"/>
<path d="M8.42524 12.7742L8.26429 12.8725C8.01092 13.0275 7.68351 12.9531 7.53276 12.7068L7.26606 12.2706C7.13546 12.0572 6.85133 11.9938 6.63283 12.1293C6.41353 13.7391 4.12573 13.5936 4.12573 13.5936L5.54341 11.4583C5.63745 11.296 5.77008 11.1594 5.92956 11.0606L6.72965 10.5645C7.11855 10.3233 7.6242 10.4359 7.85697 10.8158L8.61107 12.0464C8.7621 12.2932 8.67892 12.6192 8.42524 12.7742Z" fill="#FFE7CF"/>
<path d="M8.6109 12.0462L8.60472 12.0361C8.55962 12.1087 8.49814 12.1697 8.42521 12.2142L8.26412 12.3126C8.01089 12.4674 7.68352 12.3933 7.53273 12.1468L7.26604 11.7107C7.13543 11.4972 6.8513 11.4339 6.6328 11.5693C6.5408 12.2444 6.12796 12.8914 5.66724 13.3345C6.13334 13.1298 6.54572 12.7675 6.6328 12.1291C6.8513 11.9935 7.13543 12.057 7.26604 12.2704L7.53273 12.7065C7.68352 12.9529 8.01089 13.0272 8.26412 12.8724L8.42521 12.774C8.67886 12.6189 8.76208 12.2929 8.6109 12.0462Z" fill="#EFD5BD"/>
<path d="M5.08695 17.0713L2.83203 14.3917L3.57453 13.7669C3.5858 13.7574 3.60035 13.7529 3.61499 13.7541C3.62964 13.7554 3.64319 13.7624 3.65268 13.7736L5.83624 16.3684C5.85586 16.3918 5.85283 16.4268 5.82949 16.4466L5.08695 17.0713Z" fill="#CDD6DF"/>
<path d="M5.83614 16.3687L4.67458 14.9883L3.88965 15.6489L5.087 17.0717L5.82943 16.4468C5.83501 16.4422 5.8396 16.4364 5.84296 16.43C5.84631 16.4235 5.84836 16.4164 5.84898 16.4092C5.8496 16.4019 5.84878 16.3946 5.84657 16.3877C5.84436 16.3807 5.84084 16.3743 5.83614 16.3687Z" fill="#96A4AA"/>
<path d="M14.3894 4.50434C14.3311 4.50443 14.2743 4.48547 14.2278 4.45034C14.1812 4.4152 14.1474 4.36582 14.1315 4.30971C14.1156 4.2536 14.1185 4.19383 14.1397 4.1395C14.1608 4.08516 14.1992 4.03924 14.2489 4.00871L15.6994 3.11648C15.7293 3.09805 15.7626 3.0857 15.7973 3.08014C15.832 3.07458 15.8674 3.07592 15.9016 3.08407C15.9358 3.09222 15.968 3.10703 15.9965 3.12766C16.025 3.14828 16.0491 3.17431 16.0675 3.20427C16.1046 3.26469 16.1163 3.33741 16.0998 3.40642C16.0834 3.47544 16.0402 3.5351 15.9798 3.57228L14.5293 4.46455C14.4873 4.49059 14.4388 4.50437 14.3894 4.50434ZM17.7327 6.68885C17.7239 6.68884 17.7152 6.68844 17.7064 6.68762L15.5799 6.4809C15.5449 6.47751 15.511 6.46726 15.4799 6.45074C15.4489 6.43422 15.4215 6.41174 15.3991 6.38461C15.3768 6.35747 15.36 6.3262 15.3498 6.29258C15.3396 6.25896 15.336 6.22366 15.3394 6.18868C15.3537 6.04173 15.4846 5.9338 15.6317 5.94835L17.7582 6.15489C17.8265 6.16173 17.8895 6.1945 17.9342 6.24643C17.979 6.29837 18.0022 6.36551 17.9989 6.434C17.9956 6.5025 17.9662 6.56712 17.9166 6.61454C17.8671 6.66196 17.8012 6.68856 17.7327 6.68885ZM13.1723 2.52638C13.1288 2.52637 13.0859 2.51576 13.0474 2.49545C13.009 2.47514 12.976 2.44575 12.9515 2.40983C12.9269 2.37392 12.9115 2.33255 12.9065 2.28933C12.9016 2.2461 12.9072 2.20232 12.923 2.16178L13.6975 0.170527C13.7511 0.0327851 13.9063 -0.0352071 14.0439 0.0182304C14.0767 0.0309588 14.1066 0.0500141 14.132 0.0743078C14.1573 0.0986016 14.1777 0.127658 14.1919 0.159818C14.206 0.191978 14.2137 0.226611 14.2145 0.26174C14.2152 0.296869 14.2091 0.331806 14.1963 0.364555L13.4218 2.3557C13.4022 2.40597 13.3679 2.44915 13.3234 2.47961C13.2789 2.51006 13.2262 2.52637 13.1723 2.52638Z" fill="#DBD9D1"/>
<path d="M5.24788 17.0465L2.81071 14.1876C2.80132 14.1766 2.7882 14.1694 2.77386 14.1675C2.75952 14.1656 2.74497 14.169 2.73301 14.1772L0.137285 16.2261C0.0944872 16.2599 0.0599023 16.303 0.0361258 16.3521C0.0123492 16.4012 -1.62272e-06 16.455 1.59912e-10 16.5095L1.59912e-10 17.3431C1.59912e-10 17.5425 0.161648 17.7042 0.36116 17.7042H4.60726C4.7166 17.7042 4.8201 17.6546 4.88879 17.5693L5.24542 17.1253C5.26644 17.1036 5.26739 17.0694 5.24788 17.0465Z" fill="#3C5666"/>
<path d="M5.24784 17.0466L4.09226 15.6909L2.39087 17.7043H4.60722C4.71656 17.7043 4.82006 17.6547 4.88876 17.5695L5.24538 17.1255C5.2664 17.1038 5.26735 17.0696 5.24784 17.0466Z" fill="#194451"/>
</g>
<defs>
<clipPath id="clip0_62_10305">
<rect width="18" height="18" fill="white"/>
</clipPath>
</defs>
</svg>
