<svg width="16" height="10" viewBox="0 0 16 10" fill="none" xmlns="http://www.w3.org/2000/svg">
<path d="M11.8981 1.91965C11.8981 2.46756 12.3422 2.91157 12.89 2.91157C13.4379 2.91157 13.4379 0.927734 12.89 0.927734C12.3422 0.927734 11.8981 1.37174 11.8981 1.91965ZM12.0612 8.57646C12.4048 9.59002 13.505 10.1331 14.5187 9.78955C15.5323 9.44582 16.0753 8.34557 15.7317 7.33192C15.3881 6.31836 14.2879 5.77526 13.2742 6.11899C12.2607 6.46264 11.7176 7.56297 12.0612 8.57646ZM14.1424 8.67926C13.7419 8.81509 13.3072 8.60032 13.1714 8.2001C13.0358 7.79963 13.2502 7.36487 13.6506 7.2292C14.0511 7.09345 14.4857 7.30814 14.6215 7.70837C14.7573 8.10883 14.5428 8.54351 14.1424 8.67926ZM7.17284 5.42403V4.70852C7.17285 4.67435 7.16613 4.64052 7.15306 4.60895C7.13999 4.57738 7.12083 4.54869 7.09668 4.52453C7.07252 4.50037 7.04384 4.4812 7.01228 4.46812C6.98071 4.45504 6.94688 4.44831 6.91271 4.44831H1.61154C1.54255 4.44835 1.4764 4.47578 1.42762 4.52458C1.37884 4.57337 1.35143 4.63953 1.35141 4.70852V5.42403C1.35141 5.49302 1.37882 5.55918 1.4276 5.60797C1.47638 5.65675 1.54255 5.68416 1.61154 5.68416H1.6403C1.35773 6.37746 0.921631 7.57941 0.921631 8.39448H2.04314C1.94555 7.90773 2.00995 7.40525 2.23333 6.95271C2.50113 6.41065 2.96362 6.00505 3.53603 5.81114C3.81748 5.71557 4.11501 5.6764 4.41161 5.69589C4.7082 5.71537 4.99805 5.79311 5.26459 5.92468C5.53112 6.05624 5.76911 6.23905 5.96496 6.46264C6.1608 6.68623 6.31066 6.94623 6.40597 7.22778C6.53359 7.60324 6.55962 8.00578 6.48143 8.39456H11.677C11.6253 8.13749 11.619 7.87332 11.6586 7.6141H7.51127C7.15269 6.89076 7.02934 6.15226 6.98849 5.67175C7.04171 5.65567 7.08836 5.62292 7.12155 5.57832C7.15474 5.53371 7.17272 5.47963 7.17284 5.42403Z" fill="white"/>
</svg>
