<svg width="16" height="18" viewBox="0 0 16 18" fill="none" xmlns="http://www.w3.org/2000/svg">
<path d="M15.5 10.6377V8.50016C15.5 8.15641 15.2188 7.87516 14.875 7.87516H3.95625C3.65625 7.87516 3.41875 8.09391 3.35625 8.37516C2.6125 8.47516 1.8 8.74391 1.225 9.30016C0.75 9.75641 0.5 10.3439 0.5 11.0064C0.5 11.8939 0.96875 12.7189 1.7875 13.2689C2.35 13.6502 3.0125 13.8502 3.63125 13.8502C3.83125 13.8502 4.025 13.8189 4.2125 13.7752C4.99822 15.0742 6.23913 16.0344 7.69375 16.4689H3.85625C3.5125 16.4689 3.23125 16.7502 3.23125 17.0939C3.23125 17.4377 3.5125 17.7189 3.85625 17.7189H14.875C15.2188 17.7189 15.5 17.4377 15.5 17.0939C15.5 16.7502 15.2188 16.4689 14.875 16.4689H11.1375C13.6562 15.7252 15.5 13.3939 15.5 10.6377ZM2.48125 12.2314C2.2125 12.0502 1.75 11.6439 1.75 11.0064C1.75 10.6814 1.8625 10.4252 2.0875 10.2002C2.39375 9.90641 2.8625 9.73141 3.33125 9.64391V10.6377C3.33125 11.3189 3.45 11.9752 3.6625 12.5939C3.28125 12.6002 2.84375 12.4752 2.48125 12.2314ZM9.35 4.65016C7.65625 2.95641 8.35625 1.73141 9.3 0.525156C9.5125 0.250156 9.90625 0.206406 10.175 0.412656C10.45 0.625156 10.4937 1.01891 10.2812 1.28766C9.44375 2.36266 9.25625 2.78766 10.2312 3.76266C10.9437 4.46891 11.0375 5.16266 10.9875 5.61891C10.9563 5.94391 10.6813 6.18141 10.3688 6.18141H10.3063C10.1414 6.16558 9.98948 6.08494 9.884 5.9572C9.77853 5.82946 9.72808 5.66507 9.74375 5.50016C9.78125 5.21891 9.65 4.94391 9.35 4.65016ZM6.15625 2.55016C6.26875 2.22516 6.625 2.05016 6.95 2.16266C7.275 2.27516 7.45 2.63141 7.3375 2.95641C7.13125 3.56891 7.4 3.93141 8.525 4.93766C8.91875 5.28766 9.16875 5.70016 9.275 6.16266C9.35 6.50016 9.14375 6.83141 8.80625 6.91266C8.75625 6.92516 8.7125 6.93141 8.66875 6.93141C8.38125 6.93141 8.125 6.73766 8.0625 6.44391C8.0125 6.23766 7.89375 6.05016 7.69375 5.86891C6.64375 4.92516 5.65 4.03766 6.15625 2.55016Z" fill="#2CC879"/>
</svg>
