<svg width="20" height="18" viewBox="0 0 20 18" fill="none" xmlns="http://www.w3.org/2000/svg">
<path d="M18.8001 14.1998H1.20049C0.538922 14.1998 0.000515169 14.7382 0.000515169 15.3998C0.000515169 16.5021 0.897287 17.3997 2.00047 17.3997H18.0001C19.1033 17.3997 20 16.5021 20 15.3998C20 14.7382 19.4616 14.1998 18.8001 14.1998ZM0.420483 7.79994H19.5672C19.6672 7.79994 19.776 7.75033 19.8504 7.68314C19.9232 7.61726 19.9686 7.52648 19.9776 7.42876C20.1072 6.14081 19.652 4.88083 18.6601 3.78323C16.8841 1.82008 13.5658 0.600098 10.0003 0.600098C6.42917 0.600098 3.10763 1.82246 1.33409 3.79042C0.342083 4.89044 -0.110698 6.15198 0.0228983 7.44157C0.043719 7.64474 0.215714 7.79994 0.420483 7.79994ZM15.3169 3.91683C15.4729 3.76085 15.7265 3.76085 15.8825 3.91683L16.6825 4.7168C16.8385 4.8736 16.8385 5.12638 16.6825 5.2824C16.6049 5.3608 16.5025 5.39998 16.4001 5.39998C16.2977 5.39998 16.1953 5.3608 16.1169 5.2824L15.3169 4.48242C15.1609 4.32645 15.1609 4.07363 15.3169 3.91683ZM12.117 5.51682L12.917 4.71684C13.0729 4.56086 13.3265 4.56086 13.4826 4.71684C13.6385 4.87364 13.6385 5.12642 13.4826 5.28244L12.6826 6.08241C12.605 6.16081 12.5026 6.19999 12.4002 6.19999C12.2978 6.19999 12.1954 6.16081 12.117 6.08241C11.961 5.92639 11.961 5.67361 12.117 5.51682ZM9.71707 2.31688C9.87305 2.1609 10.1266 2.1609 10.2827 2.31688L11.0826 3.11686C11.2386 3.27365 11.2386 3.52643 11.0826 3.68245C11.0051 3.76085 10.9026 3.80003 10.8003 3.80003C10.6979 3.80003 10.5954 3.76085 10.517 3.68245L9.71707 2.88248C9.56105 2.72646 9.56105 2.47368 9.71707 2.31688ZM6.51714 3.91683L7.31711 3.11686C7.47309 2.96088 7.72669 2.96088 7.88271 3.11686C8.03869 3.27365 8.03869 3.52643 7.88271 3.68245L7.08273 4.48242C7.00512 4.56082 6.90273 4.6 6.80035 4.6C6.69796 4.6 6.59554 4.56082 6.51714 4.48242C6.36116 4.32645 6.36116 4.07363 6.51714 3.91683ZM3.31721 4.71684C3.47319 4.56086 3.72678 4.56086 3.8828 4.71684L4.68278 5.51682C4.83875 5.67361 4.83875 5.92639 4.68278 6.08241C4.64585 6.11975 4.60187 6.14937 4.55339 6.16956C4.50491 6.18974 4.4529 6.20009 4.40039 6.19999C4.34776 6.20002 4.29565 6.18965 4.24705 6.16947C4.19844 6.14929 4.15431 6.11971 4.11718 6.08241L3.31721 5.28244C3.16123 5.12642 3.16123 4.87364 3.31721 4.71684ZM1.20049 8.59995C1.14795 8.5999 1.09591 8.61021 1.04736 8.63029C0.998804 8.65038 0.954687 8.67984 0.917533 8.71699C0.880379 8.75415 0.850917 8.79826 0.830833 8.84682C0.810749 8.89537 0.800437 8.94741 0.800489 8.99996C0.800437 9.0525 0.810749 9.10454 0.830833 9.15309C0.850917 9.20165 0.880379 9.24576 0.917533 9.28292C0.954687 9.32007 0.998804 9.34953 1.04736 9.36962C1.09591 9.3897 1.14795 9.40001 1.20049 9.39996H7.50512L12.221 11.7575C12.2766 11.7856 12.338 11.8001 12.4002 11.7999C12.5034 11.7999 12.6058 11.7599 12.6826 11.6823L14.9657 9.39996H18.8001C19.0208 9.39996 19.2001 9.22078 19.2001 8.99996C19.2001 8.77917 19.0209 8.59995 18.8001 8.59995H1.20049Z" fill="#2CC879"/>
</svg>
