<svg width="19" height="23" viewBox="0 0 19 23" fill="none" xmlns="http://www.w3.org/2000/svg">
<path d="M17.7101 7.34357C17.6841 6.90924 17.3238 6.57066 16.8887 6.57143H13.603V4.10714C13.603 1.83882 11.7642 0 9.49586 0C7.22754 0 5.38872 1.83882 5.38872 4.10714V6.57143H2.103C1.6679 6.57066 1.30765 6.90924 1.28157 7.34357L0.558717 20.3961C0.481605 21.7549 1.52061 22.9189 2.87941 22.996C2.92722 22.9988 2.97511 23.0001 3.023 23H15.9769C17.3379 23.0022 18.443 21.9007 18.4452 20.5397C18.4453 20.4918 18.4439 20.4439 18.4412 20.3961L17.7101 7.34357ZM7.03157 4.10714C7.03157 2.74614 8.13486 1.64286 9.49586 1.64286C10.8569 1.64286 11.9601 2.74614 11.9601 4.10714V6.57143H7.03157V4.10714Z" fill="white"/>
</svg>
