<svg width="25" height="24" viewBox="0 0 25 24" fill="none" xmlns="http://www.w3.org/2000/svg">
<path d="M1.04167 0.0410157C0.765399 0.0410157 0.500448 0.150762 0.305097 0.346113C0.109747 0.541463 0 0.806415 0 1.08268C0 1.35895 0.109747 1.6239 0.305097 1.81925C0.500448 2.0146 0.765399 2.12435 1.04167 2.12435H2.89583C3.04725 2.12461 3.19475 2.17241 3.31754 2.261C3.44033 2.34959 3.53221 2.4745 3.58021 2.6181L7.01458 12.9233C7.16771 13.3816 7.18646 13.8733 7.06979 14.3421L6.7875 15.4743C6.37187 17.1348 7.66458 18.791 9.375 18.791H21.875C22.1513 18.791 22.4162 18.6813 22.6116 18.4859C22.8069 18.2906 22.9167 18.0256 22.9167 17.7493C22.9167 17.4731 22.8069 17.2081 22.6116 17.0128C22.4162 16.8174 22.1513 16.7077 21.875 16.7077H9.375C8.96875 16.7077 8.70833 16.3743 8.80729 15.9816L9.02083 15.1296C9.05681 14.9854 9.13989 14.8574 9.2569 14.7659C9.3739 14.6744 9.51812 14.6246 9.66667 14.6243H20.8333C21.0522 14.6246 21.2656 14.5559 21.4433 14.428C21.6209 14.3001 21.7537 14.1195 21.8229 13.9118L24.599 5.57852C24.6511 5.42192 24.6653 5.25517 24.6404 5.09201C24.6155 4.92885 24.5521 4.77395 24.4556 4.64007C24.359 4.5062 24.2321 4.39718 24.0851 4.322C23.9382 4.24683 23.7755 4.20764 23.6104 4.20768H6.82812C6.67653 4.20764 6.52879 4.15994 6.4058 4.07134C6.2828 3.98273 6.19076 3.8577 6.14271 3.71393L5.15521 0.753516C5.08609 0.54601 4.95342 0.365522 4.77599 0.237638C4.59856 0.109754 4.38538 0.040963 4.16667 0.0410157H1.04167ZM8.33333 19.8327C7.7808 19.8327 7.25089 20.0522 6.86019 20.4429C6.46949 20.8336 6.25 21.3635 6.25 21.916C6.25 22.4686 6.46949 22.9985 6.86019 23.3892C7.25089 23.7799 7.7808 23.9994 8.33333 23.9994C8.88587 23.9994 9.41577 23.7799 9.80647 23.3892C10.1972 22.9985 10.4167 22.4686 10.4167 21.916C10.4167 21.3635 10.1972 20.8336 9.80647 20.4429C9.41577 20.0522 8.88587 19.8327 8.33333 19.8327ZM20.8333 19.8327C20.2808 19.8327 19.7509 20.0522 19.3602 20.4429C18.9695 20.8336 18.75 21.3635 18.75 21.916C18.75 22.4686 18.9695 22.9985 19.3602 23.3892C19.7509 23.7799 20.2808 23.9994 20.8333 23.9994C21.3859 23.9994 21.9158 23.7799 22.3065 23.3892C22.6972 22.9985 22.9167 22.4686 22.9167 21.916C22.9167 21.3635 22.6972 20.8336 22.3065 20.4429C21.9158 20.0522 21.3859 19.8327 20.8333 19.8327Z" fill="#2CC879"/>
</svg>
