<svg width="16" height="16" viewBox="0 0 16 16" fill="none" xmlns="http://www.w3.org/2000/svg">
<path d="M7.99997 3.1001C4.8133 3.1001 2.21997 5.69343 2.21997 8.8801C2.21997 12.0668 4.8133 14.6668 7.99997 14.6668C11.1866 14.6668 13.78 12.0734 13.78 8.88676C13.78 5.7001 11.1866 3.1001 7.99997 3.1001ZM8.49997 8.66676C8.49997 8.9401 8.2733 9.16676 7.99997 9.16676C7.72664 9.16676 7.49997 8.9401 7.49997 8.66676V5.33343C7.49997 5.0601 7.72664 4.83343 7.99997 4.83343C8.2733 4.83343 8.49997 5.0601 8.49997 5.33343V8.66676Z" fill="#2CC879"/>
<path d="M9.9266 2.30016H6.07326C5.80659 2.30016 5.59326 2.08683 5.59326 1.82016C5.59326 1.5535 5.80659 1.3335 6.07326 1.3335H9.9266C10.1933 1.3335 10.4066 1.54683 10.4066 1.8135C10.4066 2.08016 10.1933 2.30016 9.9266 2.30016Z" fill="#2CC879"/>
</svg>
