<svg width="25" height="25" viewBox="0 0 25 25" fill="none" xmlns="http://www.w3.org/2000/svg">
<path d="M0 23.5239H25V24.9888H0V23.5239ZM12.5 0.0117188L0 2.51855V6.68311H1.03125V8.14258L5.41406 8.15381V6.68311H19.5615V8.14795H23.9688V6.68311H25V2.51855L12.5 0.0117188ZM1.03125 9.60742V22.0591H5.41406V9.61865L1.03125 9.60742ZM19.5615 9.61279H23.9688V22.0591H19.5615V9.61279ZM6.8667 21.1177H18.0811L18.085 19.4092L14.2319 16.4468L11.7129 18.0278L10.2651 17.0547L6.87207 18.9951L6.8667 21.1177Z" fill="#2CC879"/>
<path d="M11.7402 16.2817L14.2456 14.709L18.0894 17.5913L18.1089 9.61328H6.89453L6.87598 17.3076L10.3345 15.3364L11.7402 16.2817ZM9.82275 12.0381H11.2876V13.5029H9.82275V12.0381Z" fill="#2CC879"/>
</svg>
