<svg width="25" height="25" viewBox="0 0 25 25" fill="none" xmlns="http://www.w3.org/2000/svg">
<path fill-rule="evenodd" clip-rule="evenodd" d="M4.82565 5.90506L8.37143 10.2416L11.5257 5.90506H4.82565ZM13.1184 5.90506L16.6641 10.2416L19.8184 5.90506H13.1184ZM17.4513 10.4904H22.858L20.5408 6.24233L17.4513 10.4904ZM9.15862 10.4904H15.8584L12.3114 6.15525L9.15862 10.4904ZM2.16846 10.4904H7.56566L4.09701 6.25091L2.16846 10.4904ZM16.9666 11.2709L13.4768 23.1773L22.7164 11.2709H16.9666ZM8.90894 11.2709L12.5324 23.6368L16.1559 11.2709H8.90894ZM11.5821 23.157L8.09832 11.2709H2.35978L11.5821 23.157ZM7.63511 3.68144C7.42049 3.68144 7.24485 3.5058 7.24485 3.29118V1.82777C7.24485 1.61314 7.42049 1.4375 7.63511 1.4375C7.84974 1.4375 8.02538 1.61314 8.02538 1.82777V3.29118C8.02538 3.5058 7.84981 3.68144 7.63511 3.68144ZM12.5132 3.68144C12.2986 3.68144 12.1229 3.5058 12.1229 3.29118V1.82777C12.1229 1.61314 12.2986 1.4375 12.5132 1.4375C12.7278 1.4375 12.9035 1.61314 12.9035 1.82777V3.29118C12.9034 3.5058 12.7278 3.68144 12.5132 3.68144ZM17.3912 3.68144C17.1766 3.68144 17.001 3.5058 17.001 3.29118V1.82777C17.001 1.61314 17.1766 1.4375 17.3912 1.4375C17.6059 1.4375 17.7815 1.61314 17.7815 1.82777V3.29118C17.7815 3.5058 17.6059 3.68144 17.3912 3.68144Z" fill="#2CC879"/>
</svg>
