<svg width="20" height="20" viewBox="0 0 20 20" fill="none" xmlns="http://www.w3.org/2000/svg">
<path d="M10 0C4.49 0 0 4.49 0 10C0 15.51 4.49 20 10 20C15.51 20 20 15.51 20 10C20 4.49 15.51 0 10 0ZM10 16C9.45 16 9 15.55 9 15C9 14.45 9.45 14 10 14C10.55 14 11 14.45 11 15C11 15.55 10.55 16 10 16ZM12.04 11.3201C11.12 11.9301 10.97 12.2601 10.95 12.3201C10.81 12.7401 10.42 13 10 13C9.89 13 9.78999 12.98 9.67999 12.95C9.15999 12.77 8.87999 12.1999 9.04999 11.6799C9.35999 10.7799 10.27 10.0899 10.93 9.6499C12.18 8.8199 12.02 7.91988 11.97 7.62988C11.83 6.83988 11.16 6.17003 10.37 6.03003C9.76 5.92003 9.17999 6.07997 8.70999 6.46997C8.25999 6.84997 8 7.41 8 8C8 8.55 7.55 9 7 9C6.45 9 6 8.55 6 8C6 6.82 6.51999 5.69994 7.42999 4.93994C8.33999 4.16994 9.54 3.86006 10.72 4.06006C12.33 4.35006 13.65 5.67003 13.94 7.28003C14.22 8.88003 13.54 10.3201 12.04 11.3201Z" fill="#292A2C"/>
</svg>
