<svg width="50" height="50" viewBox="0 0 50 50" fill="none" xmlns="http://www.w3.org/2000/svg">
<path d="M45.5945 20.6387C45.0886 20.3351 44.488 20.2299 43.909 20.3433C43.3299 20.4567 42.8134 20.7808 42.4594 21.2528L38.0766 27.0965C37.2057 28.2578 35.9177 29.0352 34.4844 29.2645L19.5312 31.2504L29.8227 27.1176C30.1596 26.9942 30.4491 26.7679 30.6503 26.4708C30.8515 26.1737 30.9542 25.8208 30.9438 25.4622C30.9309 25.2091 30.8605 24.9622 30.7378 24.7405C30.6151 24.5187 30.4435 24.3278 30.2359 24.1824C30.0284 24.037 29.7904 23.9409 29.54 23.9014C29.2897 23.8618 29.0337 23.88 28.7914 23.9543L15.1141 28.1598C14.2853 28.3966 13.5113 28.7943 12.8362 29.3302C12.1612 29.8661 11.5983 30.5298 11.1797 31.2832L8.59375 35.9379L4.6875 47.6567H16.4062L16.9938 42.9551C17.0516 42.4914 17.2396 42.0536 17.5358 41.6922C17.8321 41.3308 18.2246 41.0606 18.668 40.9129L38.5367 34.2903C39.8788 33.8427 41.0015 32.9034 41.6789 31.6614L46.4031 23.927C46.5673 23.6583 46.6766 23.3598 46.7248 23.0486C46.773 22.7374 46.7592 22.4198 46.684 22.114C46.6088 21.8082 46.4738 21.5204 46.2869 21.267C46.0999 21.0137 45.8646 20.8007 45.5945 20.6387Z" fill="#EFCB9A"/>
<path d="M43.2866 11.2676L39.8725 14.6816C39.2685 15.2856 38.4493 15.6249 37.5952 15.6249C36.741 15.6249 35.9218 15.2856 35.3178 14.6816C34.7138 14.0777 34.3745 13.2585 34.3745 12.4043C34.3745 11.5501 34.7138 10.7309 35.3178 10.127L38.7319 6.71289L43.2866 11.2676Z" fill="white"/>
<path d="M43.2913 11.2636L46.7131 7.84174C47.3171 7.23776 47.6564 6.41857 47.6564 5.5644C47.6564 4.71023 47.3171 3.89105 46.7131 3.28706C46.1091 2.68307 45.29 2.34375 44.4358 2.34375C43.5816 2.34375 42.7624 2.68307 42.1584 3.28706L38.7366 6.70893L43.2913 11.2636Z" fill="#FD614B"/>
<path d="M11.2656 6.71089L6.71089 11.2656L3.28901 7.8437C2.68502 7.23971 2.3457 6.42052 2.3457 5.56635C2.3457 4.71218 2.68502 3.893 3.28901 3.28901C3.893 2.68502 4.71218 2.3457 5.56635 2.3457C6.42052 2.3457 7.23971 2.68502 7.8437 3.28901L11.2656 6.71089Z" fill="#FECD0D"/>
<path d="M14.6812 10.127L11.2671 6.71289L6.7124 11.2676L10.1265 14.6816C10.7305 15.2856 11.5496 15.6249 12.4038 15.6249C13.258 15.6249 14.0772 15.2856 14.6812 14.6816C15.2851 14.0777 15.6245 13.2585 15.6245 12.4043C15.6245 11.5501 15.2851 10.7309 14.6812 10.127Z" fill="white"/>
<path d="M25 11.7188C27.5888 11.7188 29.6875 9.62008 29.6875 7.03125C29.6875 4.44242 27.5888 2.34375 25 2.34375C22.4112 2.34375 20.3125 4.44242 20.3125 7.03125C20.3125 9.62008 22.4112 11.7188 25 11.7188Z" fill="#8CE2FF"/>
<path d="M21.6858 10.4492L28.3147 3.82031L21.6858 10.4492Z" fill="#8CE2FF"/>
<path d="M20.3125 14.8438C19.4837 14.8438 18.6888 15.173 18.1028 15.759C17.5167 16.3451 17.1875 17.1399 17.1875 17.9688C17.1875 18.7976 17.5167 19.5924 18.1028 20.1785C18.6888 20.7645 19.4837 21.0938 20.3125 21.0938H25V14.8438H20.3125Z" fill="white"/>
<path d="M29.6875 14.8438H25V21.0938H29.6875C30.5163 21.0938 31.3112 20.7645 31.8972 20.1785C32.4833 19.5924 32.8125 18.7976 32.8125 17.9688C32.8125 17.1399 32.4833 16.3451 31.8972 15.759C31.3112 15.173 30.5163 14.8438 29.6875 14.8438Z" fill="#27AE60"/>
<path d="M10.3453 19.3309C10.7804 19.7611 11.1258 20.2733 11.3616 20.8378C11.5973 21.4024 11.7187 22.0082 11.7187 22.62C11.7187 23.2318 11.5973 23.8376 11.3616 24.4021C11.1258 24.9667 10.7804 25.4789 10.3453 25.9091C9.46306 26.7818 8.2722 27.2712 7.03124 27.2712C5.79029 27.2712 4.59943 26.7818 3.71718 25.9091C3.28208 25.4789 2.93665 24.9667 2.7009 24.4021C2.46514 23.8376 2.34375 23.2318 2.34375 22.62C2.34375 22.0082 2.46514 21.4024 2.7009 20.8378C2.93665 20.2733 3.28208 19.7611 3.71718 19.3309C4.59943 18.4582 5.79029 17.9687 7.03124 17.9688C8.2722 17.9687 9.46306 18.4582 10.3453 19.3309Z" fill="#FD614B"/>
<path d="M30.1054 27.8453C30.5285 27.6942 30.9018 27.4293 31.1842 27.0797C31.4666 26.7302 31.6472 26.3096 31.706 25.8641C31.7649 25.4186 31.6998 24.9656 31.5179 24.5547C31.336 24.1438 31.0443 23.791 30.6749 23.5352C30.3711 23.3231 30.0228 23.1833 29.6567 23.1264C29.2905 23.0696 28.9163 23.0971 28.5624 23.207L14.8984 27.407C13.97 27.67 13.1029 28.1144 12.3473 28.7145C11.5916 29.3145 10.9624 30.0584 10.496 30.9031L7.91008 35.5578C7.88663 35.5999 7.86727 35.6441 7.85226 35.6898L3.94602 47.4086C3.90656 47.5261 3.89566 47.6513 3.91421 47.7738C3.93276 47.8964 3.98022 48.0127 4.05268 48.1133C4.12514 48.2139 4.22051 48.2957 4.33088 48.3521C4.44126 48.4085 4.56348 48.4377 4.68742 48.4375H16.4062C16.5966 48.4374 16.7804 48.3679 16.9231 48.2419C17.0658 48.1158 17.1576 47.942 17.1812 47.7531L17.7687 43.0508C17.8094 42.7338 17.9385 42.4346 18.1411 42.1875C18.3438 41.9403 18.6119 41.7552 18.9148 41.6531L38.7843 35.0312C40.3035 34.5294 41.5763 33.471 42.3468 32.0688L47.0695 24.3344C47.4925 23.64 47.6322 22.8095 47.4596 22.0149C47.287 21.2204 46.8154 20.5227 46.1424 20.0663C45.4695 19.61 44.6468 19.43 43.8447 19.5637C43.0427 19.6974 42.3229 20.1345 41.8343 20.7844L37.4515 26.6273C36.7091 27.6237 35.6078 28.2918 34.3812 28.4898L25.5968 29.6562L30.1054 27.8453ZM34.6085 30.0352C36.2426 29.7766 37.7111 28.8899 38.7007 27.5641L43.0835 21.7203C43.3304 21.3893 43.6954 21.1663 44.1025 21.0976C44.5097 21.0289 44.9276 21.1199 45.2694 21.3516C45.6111 21.5834 45.8504 21.938 45.9373 22.3416C46.0241 22.7453 45.952 23.1669 45.7359 23.5187L40.9937 31.2875C40.4118 32.3568 39.4452 33.165 38.2898 33.5484L18.4202 40.1719C17.8383 40.3678 17.3233 40.7236 16.934 41.1984C16.5447 41.6732 16.2968 42.248 16.2187 42.857L15.7163 46.875H5.77102L9.31164 36.2531L11.8624 31.6625C12.2313 30.9955 12.729 30.4084 13.3266 29.9352C13.9242 29.4621 14.6098 29.1123 15.3437 28.9062L29.021 24.7C29.1489 24.6601 29.2842 24.6501 29.4166 24.6709C29.5489 24.6916 29.6747 24.7425 29.7843 24.8195C29.8964 24.8973 29.989 25 30.0547 25.1195C30.1205 25.2391 30.1576 25.3723 30.1632 25.5086C30.1632 25.7035 30.1021 25.8935 29.9886 26.052C29.8751 26.2104 29.7149 26.3294 29.5304 26.3922L19.2398 30.525C19.0624 30.5955 18.9171 30.7285 18.8311 30.8988C18.7451 31.0692 18.7244 31.2651 18.7729 31.4497C18.8214 31.6342 18.9359 31.7946 19.0945 31.9006C19.2532 32.0066 19.4452 32.0509 19.6343 32.025L34.6085 30.0352ZM24.9999 1.5625C23.9183 1.5625 22.861 1.88324 21.9616 2.48415C21.0623 3.08506 20.3614 3.93917 19.9475 4.93845C19.5335 5.93773 19.4252 7.03732 19.6363 8.09815C19.8473 9.15898 20.3681 10.1334 21.1329 10.8982C21.8977 11.6631 22.8722 12.1839 23.933 12.3949C24.9939 12.6059 26.0934 12.4976 27.0927 12.0837C28.092 11.6698 28.9461 10.9689 29.547 10.0695C30.1479 9.17019 30.4687 8.11287 30.4687 7.03125C30.467 5.58136 29.8903 4.19132 28.8651 3.16609C27.8399 2.14086 26.4498 1.56415 24.9999 1.5625ZM24.9999 3.125C25.7908 3.12503 26.5628 3.36682 27.2124 3.81797L21.7866 9.24375C21.3815 8.65813 21.1445 7.97277 21.1012 7.262C21.0579 6.55123 21.2101 5.84217 21.5412 5.21173C21.8722 4.58129 22.3696 4.05352 22.9793 3.68567C23.589 3.31782 24.2878 3.12392 24.9999 3.125ZM24.9999 10.9375C24.261 10.9358 23.538 10.7227 22.9163 10.3234L28.2913 4.94844C28.6686 5.53742 28.8801 6.21721 28.9036 6.91626C28.9271 7.61531 28.7617 8.30777 28.4248 8.92074C28.0879 9.53372 27.592 10.0445 26.9893 10.3995C26.3866 10.7544 25.6994 10.9402 24.9999 10.9375ZM29.6874 14.0625H20.3124C19.2764 14.0625 18.2829 14.4741 17.5503 15.2066C16.8177 15.9392 16.4062 16.9327 16.4062 17.9688C16.4062 19.0048 16.8177 19.9983 17.5503 20.7309C18.2829 21.4634 19.2764 21.875 20.3124 21.875H29.6874C30.7234 21.875 31.717 21.4634 32.4496 20.7309C33.1821 19.9983 33.5937 19.0048 33.5937 17.9688C33.5937 16.9327 33.1821 15.9392 32.4496 15.2066C31.717 14.4741 30.7234 14.0625 29.6874 14.0625ZM17.9687 17.9688C17.9693 17.3473 18.2164 16.7516 18.6558 16.3122C19.0952 15.8727 19.691 15.6256 20.3124 15.625H24.2187V20.3125H20.3124C19.691 20.3119 19.0952 20.0648 18.6558 19.6253C18.2164 19.1859 17.9693 18.5902 17.9687 17.9688ZM29.6874 20.3125H25.7812V15.625H29.6874C30.309 15.625 30.9052 15.8719 31.3447 16.3115C31.7842 16.751 32.0312 17.3471 32.0312 17.9688C32.0312 18.5904 31.7842 19.1865 31.3447 19.626C30.9052 20.0656 30.309 20.3125 29.6874 20.3125ZM7.03117 28.0492C8.47829 28.0526 9.86778 27.4824 10.8952 26.4633C11.4035 25.9606 11.8071 25.362 12.0825 24.7023C12.3579 24.0426 12.4997 23.3348 12.4997 22.6199C12.4997 21.905 12.3579 21.1972 12.0825 20.5375C11.8071 19.8778 11.4035 19.2793 10.8952 18.7766C9.86589 17.7603 8.47764 17.1905 7.03117 17.1905C5.5847 17.1905 4.19646 17.7603 3.16711 18.7766C2.65869 19.2793 2.25506 19.8779 1.97958 20.5376C1.7041 21.1974 1.56226 21.9053 1.56226 22.6203C1.56226 23.3353 1.7041 24.0432 1.97958 24.703C2.25506 25.3628 2.65869 25.9613 3.16711 26.4641C4.1946 27.483 5.58413 28.053 7.03117 28.0492ZM10.9374 22.6195C10.9383 23.1283 10.8378 23.6322 10.6416 24.1017C10.4455 24.5712 10.1578 24.9969 9.79523 25.3539C9.26964 25.872 8.60735 26.2297 7.88586 26.3852V18.8539C8.60742 19.0096 9.26971 19.3676 9.79523 19.8859C10.1579 20.2429 10.4457 20.6685 10.6418 21.138C10.8379 21.6076 10.9384 22.1115 10.9374 22.6203V22.6195ZM4.26711 19.8859C4.8284 19.3299 5.54556 18.9577 6.32336 18.8188V26.4203C5.54562 26.2817 4.82845 25.9098 4.26711 25.3539C3.90535 24.9964 3.61814 24.5707 3.42212 24.1014C3.2261 23.6321 3.12516 23.1285 3.12516 22.6199C3.12516 22.1113 3.2261 21.6078 3.42212 21.1385C3.61814 20.6692 3.90535 20.2434 4.26711 19.8859ZM15.2335 9.57109L8.39758 2.73359C7.64302 1.99932 6.62969 1.59166 5.57685 1.59884C4.52401 1.60601 3.51633 2.02743 2.77184 2.77192C2.02735 3.51641 1.60593 4.52409 1.59876 5.57693C1.59159 6.62977 1.99924 7.64309 2.73352 8.39766L9.57102 15.2336C10.3219 15.9845 11.3403 16.4063 12.4023 16.4063C13.4642 16.4063 14.4826 15.9845 15.2335 15.2336C15.9844 14.4827 16.4063 13.4643 16.4063 12.4023C16.4063 11.3404 15.9844 10.322 15.2335 9.57109ZM3.83898 3.83984C4.29749 3.38285 4.91841 3.12617 5.56578 3.12602C6.21314 3.12588 6.83418 3.38227 7.29289 3.83906L10.1585 6.70469L6.70539 10.1578L3.83977 7.29297C3.38292 6.83449 3.1264 6.21364 3.1264 5.56641C3.1264 4.91917 3.38214 4.29832 3.83898 3.83984ZM14.1288 14.1289C13.6702 14.5856 13.0494 14.8419 12.4023 14.8419C11.7551 14.8419 11.1343 14.5856 10.6757 14.1289L7.81008 11.2633L11.2632 7.81016L14.1288 10.6758C14.5859 11.1342 14.8425 11.755 14.8425 12.4023C14.8425 13.0496 14.5859 13.6705 14.1288 14.1289ZM37.5976 16.4039C38.1233 16.4049 38.6441 16.302 39.13 16.1012C39.6158 15.9004 40.0572 15.6055 40.4288 15.2336L47.2663 8.39766C48.0006 7.64309 48.4083 6.62977 48.4011 5.57693C48.3939 4.52409 47.9725 3.51641 47.228 2.77192C46.4835 2.02743 45.4758 1.60601 44.423 1.59884C43.3702 1.59166 42.3568 1.99932 41.6023 2.73359L34.7663 9.57109C34.206 10.1307 33.8243 10.8441 33.6697 11.6207C33.515 12.3974 33.5942 13.2025 33.8974 13.9341C34.2005 14.6658 34.7139 15.291 35.3726 15.7306C36.0313 16.1703 36.8056 16.4046 37.5976 16.4039ZM42.707 3.83984C42.9321 3.60584 43.2016 3.41907 43.4997 3.29046C43.7978 3.16185 44.1186 3.09399 44.4433 3.09084C44.768 3.08769 45.0901 3.14932 45.3906 3.27212C45.6912 3.39492 45.9643 3.57643 46.1939 3.80603C46.4235 4.03562 46.605 4.3087 46.7278 4.60928C46.8506 4.90986 46.9122 5.23191 46.9091 5.5566C46.9059 5.88128 46.8381 6.20208 46.7095 6.50022C46.5809 6.79836 46.3941 7.06787 46.1601 7.29297L43.2952 10.1586L39.8421 6.70547L42.707 3.83984ZM35.871 10.6758L38.7366 7.81016L42.1898 11.2633L39.3241 14.1289C38.8662 14.5868 38.2452 14.8441 37.5976 14.8441C36.95 14.8441 36.3289 14.5868 35.871 14.1289C35.4131 13.671 35.1558 13.0499 35.1558 12.4023C35.1558 11.7548 35.4131 11.1337 35.871 10.6758Z" fill="black"/>
</svg>
