<?xml version="1.0" standalone="no"?>
<!DOCTYPE svg PUBLIC "-//W3C//DTD SVG 20010904//EN"
 "http://www.w3.org/TR/2001/REC-SVG-20010904/DTD/svg10.dtd">
<svg version="1.0" xmlns="http://www.w3.org/2000/svg"
 width="798.000000pt" height="946.000000pt" viewBox="0 0 798.000000 946.000000"
 preserveAspectRatio="xMidYMid meet">

<g transform="translate(0.000000,946.000000) scale(0.100000,-0.100000)"
fill="#000000" stroke="none">
<path d="M0 8431 l0 -1028 60 -7 c33 -4 62 -11 65 -15 2 -5 30 -12 60 -16 39
-5 58 -12 65 -26 7 -12 21 -19 39 -19 15 0 36 -9 46 -20 10 -11 21 -17 26 -15
10 7 89 -17 89 -27 0 -4 12 -3 28 1 15 4 33 6 40 4 6 -3 12 3 12 14 1 28 26
56 42 47 7 -5 40 -10 72 -11 33 -2 63 -7 66 -13 4 -6 16 -12 28 -15 37 -7 62
-25 62 -45 0 -11 9 -35 19 -54 11 -19 22 -52 24 -74 3 -22 9 -48 15 -58 15
-29 21 -123 8 -128 -7 -3 -7 -7 2 -14 10 -7 10 -19 2 -56 -6 -26 -12 -152 -14
-279 -2 -184 -6 -241 -19 -277 -9 -25 -17 -54 -17 -65 0 -34 -36 -81 -71 -95
-19 -7 -45 -21 -59 -30 -41 -27 -233 -59 -245 -41 -3 6 -11 8 -18 4 -22 -13
-75 -17 -249 -17 l-178 0 0 -1328 0 -1329 98 5 c100 6 715 22 972 26 l145 2 3
-61 c3 -56 1 -61 -20 -65 -13 -3 -143 -7 -289 -11 -146 -3 -350 -10 -455 -15
-104 -5 -249 -7 -322 -3 l-132 6 0 -1641 0 -1642 2248 1 c1256 0 2238 4 2226
9 -23 9 -51 14 -164 31 -41 6 -84 15 -95 20 -11 5 -38 11 -60 13 -22 3 -69 10
-104 16 -35 6 -70 9 -77 6 -7 -3 -14 -1 -16 4 -2 6 -59 21 -128 36 -170 35
-170 35 -164 45 3 5 0 9 -7 9 -9 0 -10 18 -5 67 22 199 25 319 11 408 -14 87
-26 464 -17 512 2 13 9 23 14 23 5 0 6 -5 3 -10 -3 -6 -1 -10 4 -10 10 0 15
14 12 33 -1 5 3 6 9 2 5 -3 10 -15 10 -27 0 -18 4 -19 38 -13 20 4 39 11 40
16 2 5 17 9 33 9 16 0 29 5 29 11 0 11 91 8 190 -6 37 -6 49 -3 70 15 24 21
43 22 83 5 13 -5 17 -2 17 14 0 14 6 21 20 21 11 0 20 5 20 10 0 6 9 10 20 10
11 0 20 5 20 10 0 6 -24 10 -54 10 -56 0 -76 15 -48 36 11 8 22 8 41 -2 14 -8
34 -14 43 -14 9 0 18 -5 20 -12 3 -7 14 -9 31 -4 21 5 27 12 27 33 0 29 15 22
23 -12 4 -19 5 -18 6 2 0 12 -6 28 -14 37 -8 8 -15 19 -15 25 0 5 -5 13 -12
17 -7 4 -8 3 -4 -4 5 -8 2 -10 -8 -6 -9 3 -14 10 -11 14 3 5 -3 13 -12 19 -16
9 -16 12 -3 21 13 9 13 11 0 21 -13 9 -12 10 2 5 22 -7 35 13 17 25 -8 5 -9 9
-4 9 11 0 55 -32 91 -66 66 -63 241 -146 337 -159 50 -7 68 9 22 21 -27 7 -28
9 -16 39 7 17 0 22 -58 42 -39 13 -71 18 -80 14 -17 -9 -30 -7 -78 15 -17 8
-35 14 -41 14 -5 0 -21 9 -36 21 -14 11 -26 18 -26 15 0 -15 -128 109 -169
164 -14 19 -32 41 -38 48 -7 7 -13 19 -13 26 0 8 -9 20 -20 27 -10 8 -35 41
-55 73 -19 33 -35 52 -35 43 0 -23 22 -70 37 -80 15 -9 18 -37 4 -37 -5 0 -12
6 -15 13 -3 6 -4 3 -3 -8 2 -14 9 -19 24 -18 15 2 24 -5 31 -26 12 -34 -4 -37
-39 -5 -21 19 -21 19 -18 -6 3 -25 0 -30 -22 -30 -8 0 -8 4 -1 13 12 14 11 42
-2 54 -4 4 -7 4 -6 -2 4 -20 0 -35 -10 -35 -5 0 -10 12 -11 28 0 15 -3 21 -6
15 -11 -28 -53 0 -53 35 0 17 -6 19 -77 15 -43 -2 -80 -7 -83 -11 -3 -4 -48
-7 -101 -7 l-97 0 -7 58 c-3 31 -5 95 -4 141 l2 84 36 5 c223 29 298 41 309
50 14 11 16 58 3 107 -5 19 -12 55 -15 80 -3 25 -10 83 -16 129 -15 117 -8
728 10 760 7 15 8 21 1 17 -7 -5 -11 5 -11 28 0 19 6 37 12 39 10 4 10 6 1 6
-16 1 -18 84 -3 112 7 12 7 19 1 19 -15 0 -2 283 13 292 8 6 8 8 0 8 -13 0
-12 382 2 895 4 149 7 303 8 343 0 39 4 72 9 72 5 0 5 6 -1 13 -5 7 -10 93
-10 207 0 107 -4 351 -8 541 -4 190 -4 357 -1 370 15 60 202 168 379 219 226
65 433 90 753 90 416 0 740 -55 962 -165 57 -28 101 -45 98 -37 -3 7 -5 16 -5
18 0 3 -4 2 -10 -1 -6 -3 -10 -1 -10 4 0 6 5 11 12 11 9 0 9 3 0 12 -7 7 -12
19 -11 27 0 12 3 10 9 -4 10 -22 9 -13 -11 120 -11 73 -3 217 13 249 6 10 14
42 18 70 35 230 94 418 145 458 14 11 25 25 25 31 1 15 81 67 103 67 8 0 28 7
44 15 66 34 121 55 141 55 13 0 25 7 28 15 4 8 18 15 32 15 14 0 35 8 46 19
12 11 50 24 91 31 38 6 75 16 82 22 15 12 166 7 352 -13 99 -10 139 -10 197 0
40 7 112 14 161 17 48 2 90 9 94 15 4 7 12 8 18 5 6 -4 14 0 17 9 5 13 9 12
25 -6 23 -26 24 -30 5 -23 -11 4 -10 -3 4 -31 14 -27 17 -49 13 -85 -3 -29 -1
-50 5 -54 7 -4 8 -15 3 -29 -5 -12 -7 -71 -6 -131 2 -73 -1 -125 -11 -160 -27
-95 -42 -200 -48 -331 -4 -71 -8 -146 -10 -165 -2 -19 -7 -64 -11 -100 -3 -35
-10 -67 -14 -70 -5 -3 -9 -63 -10 -134 -1 -71 -4 -132 -6 -136 -3 -5 1 -11 7
-13 9 -4 7 -6 -3 -6 -11 -1 -16 -11 -17 -33 0 -17 -5 -34 -10 -37 -8 -6 -20
-51 -25 -93 -1 -10 -9 -18 -19 -18 -15 0 -17 -4 -9 -18 13 -24 2 -134 -13
-129 -13 4 -36 -17 -36 -32 0 -6 -4 -11 -9 -11 -12 0 -32 26 -25 33 14 14 -77
116 -104 117 -7 0 -24 7 -37 16 -33 21 -141 21 -165 -1 -9 -8 -25 -15 -36 -15
-31 -1 -117 -34 -152 -58 -17 -13 -32 -20 -32 -16 0 4 -8 0 -18 -8 -9 -9 -28
-19 -42 -23 -45 -13 -131 -67 -169 -106 -85 -85 -176 -105 -295 -65 -87 30
-144 63 -175 102 -12 15 -25 24 -29 20 -11 -12 -3 -949 13 -1476 16 -549 30
-1291 29 -1580 0 -156 -5 -236 -16 -290 -23 -109 -23 -109 30 -103 25 3 55 9
68 13 13 5 101 16 195 25 96 9 181 22 193 30 38 23 357 35 681 25 50 -2 104 0
120 4 17 4 39 8 50 7 10 0 25 5 31 10 7 6 21 10 31 9 10 -1 78 -2 151 -1 l132
1 0 800 c0 527 -3 800 -10 800 -5 0 -10 -8 -10 -17 0 -13 -3 -14 -12 -5 -9 9
-9 19 0 45 21 58 15 74 -13 33 -14 -20 -25 -47 -25 -60 0 -21 -30 -60 -30 -40
0 5 -4 3 -9 -5 -11 -17 -91 -5 -91 14 0 12 -36 31 -52 27 -11 -3 -54 61 -62
91 -5 20 -2 29 9 33 8 4 14 13 13 21 -2 9 12 21 37 31 22 9 42 19 43 24 2 4 9
8 17 8 7 0 25 15 41 33 18 20 38 32 54 32 16 0 24 5 22 14 -2 7 6 20 18 28 17
12 20 25 20 94 0 51 -6 93 -16 117 -54 125 -87 232 -90 292 -4 67 11 203 23
224 12 18 16 64 16 186 0 132 -9 171 -62 284 -43 90 -53 172 -25 214 8 12 12
22 9 22 -8 0 34 101 54 129 28 41 40 107 40 225 0 71 4 111 11 116 7 5 9 20 5
42 -4 22 -3 38 4 42 6 4 12 22 12 39 1 18 3 24 6 15 4 -16 6 -16 19 -4 8 8 14
22 14 31 0 9 5 13 10 10 7 -4 10 522 10 1569 l0 1576 -1229 0 -1229 0 -17 -97
c-27 -160 -47 -237 -75 -285 -6 -10 -10 -28 -10 -41 0 -13 -11 -36 -24 -50
-13 -14 -26 -37 -30 -51 -4 -18 -13 -26 -27 -26 -18 0 -19 -3 -9 -15 6 -8 9
-18 6 -23 -7 -12 -96 8 -96 21 0 5 -7 7 -15 3 -11 -4 -15 2 -15 22 -1 30 -23
66 -34 55 -4 -4 -6 8 -6 27 1 19 -4 58 -10 85 -12 56 -5 139 17 230 9 33 18
79 20 103 l5 42 -2601 0 -2601 0 0 -1029z m7574 921 c28 -15 58 -40 67 -57 19
-32 25 -85 10 -85 -5 0 -7 -9 -4 -19 7 -26 -27 -70 -52 -71 -12 0 -25 -4 -30
-9 -6 -5 -35 -5 -69 -1 -62 9 -116 46 -116 80 0 12 -7 16 -22 13 -39 -6 -51 9
-40 50 19 70 90 115 197 126 6 0 32 -12 59 -27z m-785 -187 c31 -8 75 -23 98
-35 23 -11 46 -20 51 -20 5 0 23 -7 40 -16 34 -16 111 -24 118 -12 3 5 23 6
45 3 22 -3 39 -1 39 5 0 26 20 6 31 -30 9 -31 10 -62 1 -134 -7 -52 -12 -127
-12 -165 0 -41 -4 -71 -10 -71 -5 0 -10 -15 -10 -32 0 -18 -7 -67 -16 -108 -9
-41 -18 -101 -21 -132 -3 -32 -9 -58 -14 -58 -5 0 -9 -10 -9 -22 0 -41 -34
-193 -47 -206 -6 -6 -14 -20 -18 -30 -3 -9 -23 -25 -45 -35 -32 -15 -53 -17
-100 -12 -33 4 -60 11 -60 16 0 5 -6 9 -14 9 -8 0 -25 15 -38 32 -27 39 -29
111 -3 203 10 33 20 78 25 100 25 136 33 172 42 188 12 23 -14 67 -40 67 -9 0
-80 2 -157 3 -134 3 -141 2 -162 -20 -13 -12 -23 -29 -23 -37 0 -26 -80 -104
-133 -129 -70 -33 -174 -42 -250 -22 -66 17 -160 73 -177 105 -116 217 60 431
322 392 101 -15 114 -10 148 58 34 67 99 126 162 145 58 18 167 18 237 0z
m1027 -420 c-4 -35 -1 -56 16 -92 19 -40 20 -47 6 -57 -8 -6 -18 -28 -22 -48
-7 -39 -60 -108 -83 -108 -7 0 -13 4 -13 8 0 5 -8 17 -19 28 -36 39 -43 64
-36 124 4 36 12 61 21 64 8 3 14 12 14 19 0 8 7 20 16 28 10 8 14 24 12 46
l-4 33 49 0 50 0 -7 -45z m-5751 4 c4 -5 0 -18 -8 -27 -8 -9 -17 -46 -21 -81
-7 -71 -18 -91 -51 -91 -22 0 -22 2 -12 35 6 19 16 35 24 35 7 0 13 4 13 9 0
4 -11 6 -25 3 -22 -4 -25 -1 -25 22 0 16 -6 26 -14 26 -10 0 -17 -16 -21 -47
-8 -62 -24 -103 -40 -103 -9 0 -11 9 -5 33 6 27 4 36 -10 45 -16 10 -19 5 -26
-36 -4 -26 -6 -53 -5 -61 2 -9 -3 -12 -14 -7 -9 3 -21 6 -27 6 -19 0 4 85 34
123 28 35 31 37 45 20 14 -17 14 -17 10 3 -3 12 -1 28 4 35 7 11 9 10 9 -4 0
-27 22 -15 27 13 5 34 13 40 69 49 27 5 52 9 56 10 4 0 10 -4 13 -10z m56 -75
c6 -8 4 -14 -7 -18 -32 -12 -34 1 -13 99 1 6 4 -8 6 -30 3 -22 9 -45 14 -51z
m59 -26 c0 -61 -13 -78 -60 -78 -17 0 -20 4 -15 23 7 21 26 41 49 51 8 3 8 7
0 13 -5 4 -11 28 -12 53 l-1 45 19 -25 c14 -18 20 -41 20 -82z m635 88 c38
-16 70 -66 47 -74 -6 -2 -12 -13 -12 -24 0 -15 -4 -18 -21 -13 -24 8 -24 11
-1 -62 8 -26 8 -33 -3 -33 -16 0 -40 101 -31 134 4 16 -2 30 -19 46 l-25 23 0
-41 c0 -23 -4 -42 -10 -42 -5 0 -10 23 -10 50 0 47 2 50 25 50 14 0 41 -7 60
-14z m-118 -55 c-5 -45 -3 -60 7 -64 14 -6 28 -55 17 -62 -23 -14 -51 45 -51
106 0 34 16 79 29 79 2 0 1 -27 -2 -59z m-352 -23 c6 -43 5 -54 -11 -65 -10
-7 -21 -13 -26 -13 -11 0 -30 39 -23 50 10 17 23 11 28 -12 3 -18 5 -16 5 7 1
17 -2 36 -7 44 -11 18 -3 41 14 41 8 0 16 -20 20 -52z m198 -15 c-3 -29 -9
-50 -14 -47 -11 6 -12 98 -2 108 14 14 21 -11 16 -61z m-172 -18 l-9 -40 -1
51 c-1 28 2 54 7 58 11 12 14 -25 3 -69z m133 43 c10 -40 7 -78 -7 -78 -9 0
-14 16 -16 50 -2 51 12 68 23 28z m402 -41 c8 3 14 1 14 -3 1 -5 5 -28 9 -52
5 -23 5 -45 1 -47 -4 -3 -11 14 -15 38 l-8 42 -7 -40 -6 -40 -8 30 c-15 60
-16 76 -9 88 5 8 9 7 11 -5 2 -10 9 -15 18 -11z m-251 -46 c-10 -9 -25 14 -24
37 l1 27 13 -30 c7 -16 12 -32 10 -34z m-85 29 c0 -5 -4 -10 -10 -10 -5 0 -10
5 -10 10 0 6 5 10 10 10 6 0 10 -4 10 -10z m-735 -130 c3 -5 1 -10 -4 -10 -6
0 -11 5 -11 10 0 6 2 10 4 10 3 0 8 -4 11 -10z m1095 0 c0 -5 -7 -10 -15 -10
-8 0 -15 5 -15 10 0 6 7 10 15 10 8 0 15 -4 15 -10z m-50 -30 c0 -5 -4 -10
-10 -10 -5 0 -10 5 -10 10 0 6 5 10 10 10 6 0 10 -4 10 -10z m-820 -62 c0 -5
-4 -6 -10 -3 -5 3 -10 -1 -10 -9 0 -10 -9 -16 -21 -16 -12 0 -39 -5 -60 -12
-48 -14 -62 -3 -29 22 43 33 130 45 130 18z m777 -4 c30 -19 49 -54 29 -54
-18 0 -126 62 -126 73 0 11 71 -3 97 -19z m-753 -115 c-10 -4 -14 -8 -9 -8 6
-1 3 -5 -5 -11 -9 -5 -19 -5 -27 2 -15 12 -28 5 -19 -10 3 -5 19 -8 35 -7 23
2 28 -1 25 -14 -3 -9 2 -7 12 7 24 32 37 27 19 -8 -9 -16 -19 -30 -23 -30 -5
0 -4 -34 1 -76 6 -44 6 -79 1 -83 -11 -7 -12 -37 -1 -47 11 -11 8 -52 -4 -56
-5 -2 -7 -11 -4 -21 4 -9 11 -14 16 -11 5 3 9 -2 9 -10 0 -8 -4 -18 -10 -21
-5 -3 -10 -15 -10 -27 0 -19 5 -20 73 -16 62 4 75 2 95 -15 l22 -20 0 21 c0
12 5 22 10 22 18 0 10 -35 -11 -48 -13 -8 -19 -21 -17 -35 3 -21 7 -22 156
-25 l153 -3 -4 46 c-4 54 2 57 103 53 54 -3 64 0 61 12 -2 8 -5 69 -6 135 -2
66 -4 120 -5 120 -1 0 -4 13 -6 29 -3 18 0 32 8 37 10 7 10 11 0 21 -14 14
-16 76 -3 97 6 10 21 12 51 8 23 -3 43 -7 45 -9 2 -2 6 -59 9 -128 4 -69 9
-145 12 -170 4 -25 7 -61 8 -80 5 -101 6 -110 20 -110 31 0 34 -12 51 -215 4
-38 18 -158 31 -265 13 -107 31 -253 39 -325 8 -71 21 -191 30 -265 8 -74 18
-150 21 -168 5 -33 5 -34 -33 -32 -54 3 -57 2 -43 -15 7 -8 16 -13 20 -10 13
8 19 -34 10 -65 -6 -20 -4 -34 7 -50 8 -11 12 -27 9 -35 -3 -9 1 -16 9 -16 8
-1 21 -2 28 -3 7 -1 13 -20 15 -48 3 -42 1 -47 -20 -50 -15 -2 -22 -9 -22 -21
2 -13 -3 -16 -17 -12 -21 7 -22 5 -13 -19 3 -9 12 -16 18 -16 9 0 13 -21 14
-62 0 -35 3 -87 7 -115 4 -44 3 -53 -10 -53 -19 0 -19 -19 0 -34 11 -8 15 -39
16 -136 2 -140 -5 -184 -28 -175 -11 4 -13 1 -9 -11 8 -21 -4 -40 -14 -23 -5
7 -22 12 -39 12 -31 0 -42 11 -18 20 13 5 -46 67 -65 67 -5 0 -7 7 -4 16 3 9
6 25 6 35 0 11 5 17 10 14 10 -6 14 13 11 48 -1 9 3 17 8 17 6 0 11 -6 11 -12
1 -29 24 30 25 60 0 26 -4 32 -16 29 -12 -3 -15 1 -12 14 4 12 0 19 -10 19
-15 0 -30 37 -21 52 3 4 12 8 20 8 21 0 17 23 -6 38 -13 8 -20 22 -19 40 0 15
3 21 6 15 15 -40 48 8 37 54 -4 15 -2 23 7 23 7 0 10 3 7 6 -4 3 -15 1 -26 -5
-19 -10 -21 -7 -28 45 -5 40 -3 58 6 64 13 8 -29 16 -136 26 -77 7 -112 31
-106 72 4 28 26 24 30 -6 5 -31 22 -28 22 4 0 25 0 25 83 23 47 -1 92 3 103 9
10 6 15 12 9 13 -5 1 -26 3 -45 5 -44 5 -46 9 -53 72 -5 40 -3 52 7 52 14 0
26 -30 26 -66 0 -13 8 -24 20 -27 16 -4 21 1 26 30 4 21 2 39 -5 46 -9 9 -11
8 -6 -5 4 -11 2 -18 -5 -18 -17 0 -8 54 10 61 15 6 -26 13 -152 25 l-68 6 0
40 c0 31 -3 39 -15 35 -8 -4 -17 -2 -21 4 -6 10 -296 11 -321 2 -7 -3 -13 -18
-13 -34 0 -16 6 -29 13 -30 28 -2 -71 -28 -112 -28 -35 -1 -42 -4 -37 -17 3
-8 2 -12 -4 -9 -6 3 -10 2 -10 -2 0 -5 10 -14 21 -21 19 -12 21 -20 16 -65 -3
-33 -2 -45 3 -32 6 13 9 15 9 5 0 -8 -3 -21 -8 -29 -8 -12 -12 -12 -25 -2 -9
8 -16 9 -16 3 0 -15 26 -22 90 -22 57 0 59 -1 65 -31 9 -40 -10 -60 -61 -64
-22 -2 -44 -12 -51 -21 -7 -10 -13 -14 -13 -10 0 4 -5 4 -10 1 -8 -5 -7 -11 1
-21 8 -10 8 -14 0 -14 -6 0 -11 -7 -11 -15 0 -8 7 -15 15 -15 12 0 15 -12 13
-60 -2 -33 -6 -60 -10 -60 -5 0 -8 5 -8 10 0 6 -8 10 -17 10 -17 -1 -17 -2 1
-15 11 -8 16 -21 12 -30 -3 -9 3 -24 14 -35 19 -19 19 -19 -1 -25 -22 -7 -24
-16 -8 -32 22 -22 -28 -212 -52 -198 -17 11 -9 -15 11 -35 11 -11 17 -20 13
-20 -5 0 -30 -20 -57 -44 -46 -42 -69 -51 -150 -62 -21 -2 -29 1 -33 16 -6 24
-19 26 -30 5 -7 -13 -13 -13 -36 -3 -35 16 -50 69 -43 146 3 31 7 81 8 110 0
28 4 52 9 52 14 0 17 29 7 63 -9 29 -8 38 6 52 19 20 21 36 2 29 -16 -6 -26
43 -26 134 0 60 -1 62 -26 62 -20 0 -25 4 -20 16 3 9 6 26 6 39 0 18 8 27 35
36 35 13 52 34 35 44 -6 4 -10 1 -10 -5 0 -6 -5 -8 -11 -5 -6 4 -9 36 -8 77 1
44 -2 73 -10 77 -8 5 -9 33 -2 107 6 54 12 131 15 169 21 268 32 385 51 555 8
69 17 186 20 260 8 182 6 175 60 189 41 10 45 14 46 44 1 17 3 50 5 72 3 22 6
93 7 157 1 64 5 120 9 124 4 4 0 13 -10 20 -16 13 -16 13 1 14 13 0 17 6 15
23 -3 25 37 49 70 40 11 -2 23 0 26 6 4 5 14 7 23 4 15 -6 14 -7 -3 -14z
m5617 -281 c17 -33 18 -33 34 -12 14 18 14 18 15 -7 0 -15 7 -32 15 -39 8 -7
15 -21 15 -30 0 -10 5 -20 10 -22 12 -4 23 -113 14 -140 -10 -32 -93 -11 -94
25 0 4 7 7 16 7 14 0 14 2 0 15 -8 8 -19 15 -25 15 -17 0 -24 22 -10 31 11 6
11 11 2 20 -6 6 -9 18 -6 26 3 8 -4 25 -16 37 -13 13 -18 25 -13 27 14 6 25
49 13 49 -6 0 -11 5 -11 10 0 19 29 10 41 -12z m-5511 -28 c0 -5 -4 -10 -10
-10 -5 0 -10 5 -10 10 0 6 5 10 10 10 6 0 10 -4 10 -10z m197 -16 c-3 -3 -2
-17 3 -30 5 -13 7 -24 4 -24 -2 0 -8 10 -13 23 -8 22 -6 37 6 37 4 0 4 -3 0
-6z m-101 -49 c-14 -14 -26 -22 -26 -17 0 5 7 15 15 22 8 7 15 20 15 28 0 12
3 13 11 5 9 -9 5 -18 -15 -38z m54 -9 c0 -9 -30 -14 -35 -6 -4 6 3 10 14 10
12 0 21 -2 21 -4z m50 -26 c8 -5 11 -10 5 -10 -5 0 -17 5 -25 10 -8 5 -10 10
-5 10 6 0 17 -5 25 -10z m-42 -72 c-2 -6 -10 -14 -16 -16 -7 -2 -10 2 -6 12 7
18 28 22 22 4z m-93 -1298 c19 -8 19 -9 -2 -9 -29 -1 -31 -31 -3 -31 11 0 20
-4 20 -10 0 -5 -9 -10 -19 -10 -29 0 -35 -18 -9 -22 37 -5 27 -23 -14 -26 -37
-3 -38 -3 -38 32 0 44 16 86 32 85 7 0 22 -4 33 -9z m417 -12 c-9 -9 -15 -9
-24 0 -9 9 -7 12 12 12 19 0 21 -3 12 -12z m50 -30 c2 -36 7 -44 26 -46 12 -2
22 -10 22 -17 0 -11 -8 -13 -32 -8 -18 3 -34 6 -34 7 -1 1 -4 25 -6 54 -4 38
-2 52 8 52 8 0 14 -16 16 -42z m-407 12 c3 -5 2 -10 -4 -10 -5 0 -13 5 -16 10
-3 6 -2 10 4 10 5 0 13 -4 16 -10z m360 -20 c4 -6 -6 -10 -22 -10 -22 0 -25 2
-13 10 19 12 27 12 35 0z m5 -50 c0 -5 -9 -10 -20 -10 -11 0 -20 5 -20 10 0 6
9 10 20 10 11 0 20 -4 20 -10z m-100 -75 c0 -8 -4 -15 -10 -15 -5 0 -10 7 -10
15 0 8 5 15 10 15 6 0 10 -7 10 -15z m-275 -5 c3 -5 1 -10 -4 -10 -6 0 -11 5
-11 10 0 6 2 10 4 10 3 0 8 -4 11 -10z m-130 -128 c-3 -3 -11 0 -18 7 -9 10
-8 11 6 5 10 -3 15 -9 12 -12z m713 -111 c3 -8 -1 -12 -9 -9 -7 2 -15 10 -17
17 -3 8 1 12 9 9 7 -2 15 -10 17 -17z m-698 -5 c0 -3 -4 -8 -10 -11 -5 -3 -10
-1 -10 4 0 6 5 11 10 11 6 0 10 -2 10 -4z m-20 -56 c0 -5 -5 -10 -11 -10 -5 0
-7 5 -4 10 3 6 8 10 11 10 2 0 4 -4 4 -10z m-2 -84 c-2 -8 6 -22 17 -31 20
-16 20 -16 -2 -5 -26 12 -36 27 -28 40 9 15 16 12 13 -4z m740 -129 c2 -9 -2
-17 -8 -17 -6 0 -8 5 -5 10 3 6 1 10 -4 10 -6 0 -11 5 -11 11 0 17 25 4 28
-14z m4742 -47 c0 -5 -2 -10 -4 -10 -3 0 -8 5 -11 10 -3 6 -1 10 4 10 6 0 11
-4 11 -10z m-54 -107 c-11 -11 -17 4 -9 23 7 18 8 18 11 1 2 -10 1 -21 -2 -24z
m-5796 -423 c0 -5 -7 -7 -15 -4 -8 4 -15 8 -15 10 0 2 7 4 15 4 8 0 15 -4 15
-10z m1408 -54 c-3 -17 -1 -23 8 -19 8 3 19 -10 29 -33 12 -29 18 -35 25 -25
6 10 13 -2 27 -40 10 -30 32 -81 49 -114 25 -48 36 -60 57 -62 16 -1 28 5 33
15 5 12 9 4 14 -28 5 -29 3 -48 -4 -53 -6 -5 -2 -6 11 -2 19 5 23 0 33 -42 7
-26 12 -59 12 -73 0 -14 4 -30 9 -37 6 -6 12 -70 14 -142 4 -113 2 -131 -11
-131 -14 0 -14 -2 0 -15 11 -11 12 -23 6 -44 -4 -16 -6 -31 -4 -34 2 -2 4 -96
3 -208 -1 -112 -1 -221 -1 -241 0 -21 -4 -35 -9 -32 -5 3 -9 0 -9 -5 0 -6 5
-11 10 -11 6 0 10 -44 11 -112 0 -62 1 -188 3 -280 2 -146 0 -168 -13 -169
-13 -1 -12 -2 2 -6 13 -3 17 -15 17 -49 0 -37 3 -44 20 -44 15 0 20 -7 20 -29
l0 -28 -107 -12 c-60 -6 -206 -12 -325 -14 -175 -2 -219 1 -230 12 -10 10 -10
12 0 7 7 -4 12 -1 12 9 0 14 -29 16 -289 14 -266 -2 -288 -3 -273 -18 14 -15
12 -17 -34 -23 -73 -10 -562 -9 -710 2 -71 6 -169 13 -219 16 -49 4 -93 12
-97 18 -16 23 -3 41 31 42 32 0 36 3 52 52 10 29 15 50 10 48 -14 -9 -32 139
-26 224 7 107 6 155 -1 204 -4 26 -2 41 6 46 8 5 10 15 5 26 -9 20 -13 111
-16 341 -1 93 -6 136 -14 143 -7 6 -13 25 -13 43 0 18 -5 53 -11 78 -6 25 -8
79 -4 120 3 41 5 81 5 89 0 8 4 38 11 65 6 28 10 56 9 63 -2 7 4 15 13 19 13
4 15 14 10 39 -4 25 -2 34 7 34 9 0 14 14 15 38 2 47 6 66 19 83 6 8 17 29 24
47 17 42 24 34 15 -17 -4 -25 -12 -41 -21 -41 -8 0 -14 -7 -14 -15 0 -16 16
-20 24 -6 3 5 22 12 43 16 25 4 32 9 23 15 -7 4 -20 6 -28 3 -11 -5 -13 1 -7
28 10 49 28 99 36 99 21 0 30 -31 21 -75 -6 -28 -6 -47 0 -51 12 -8 11 -10 30
66 18 70 63 178 53 126 -3 -15 -8 -42 -11 -60 l-4 -31 13 35 c8 19 20 35 27
35 7 0 15 6 17 13 3 6 0 12 -6 12 -13 0 -14 10 -2 29 7 12 13 12 24 3 7 -7 17
-9 20 -5 4 3 7 -1 7 -10 0 -9 -4 -18 -8 -21 -5 -3 -15 -38 -22 -78 -9 -43 -22
-80 -33 -91 -20 -20 -20 -20 -38 4 -15 20 -19 21 -19 7 0 -10 -6 -18 -12 -19
-8 0 -7 -3 2 -6 75 -28 83 -33 70 -48 -9 -11 -10 -19 -3 -26 15 -15 38 19 39
60 1 20 7 50 15 66 14 33 16 40 18 70 1 11 13 38 27 60 14 22 23 31 20 20 -3
-11 -8 -33 -11 -50 -5 -28 -5 -28 6 -7 14 26 29 29 29 6 0 -11 6 -15 19 -11
14 3 19 -1 19 -19 0 -13 -5 -24 -10 -24 -6 0 0 -9 13 -20 l24 -20 -33 -31
c-32 -29 -35 -30 -59 -14 -13 9 -27 14 -31 11 -3 -3 -3 -7 -1 -8 64 -39 70
-40 108 -13 38 26 52 31 50 18 -3 -20 2 -34 11 -28 6 3 10 1 10 -4 0 -6 -7
-11 -15 -11 -16 0 -21 -16 -6 -22 13 -5 24 -48 12 -48 -17 0 -13 -27 4 -34 15
-5 22 -27 8 -25 -29 5 -36 -2 -20 -19 10 -10 17 -30 17 -45 0 -14 5 -29 12
-33 7 -5 5 -12 -8 -22 -13 -10 -15 -16 -6 -19 6 -3 10 -9 6 -14 -3 -5 -2 -9 3
-9 4 0 9 -11 9 -25 1 -14 -2 -22 -7 -19 -5 3 -9 1 -9 -5 0 -5 5 -13 10 -16 6
-3 10 -24 10 -46 0 -34 3 -39 23 -39 16 0 18 -3 8 -9 -9 -6 -12 -22 -9 -49 2
-25 0 -38 -7 -35 -5 2 0 -4 13 -15 20 -18 21 -22 7 -35 -8 -9 -15 -20 -15 -26
0 -6 -4 -11 -10 -11 -5 0 -10 -7 -10 -15 0 -8 -4 -15 -10 -15 -5 0 -10 5 -10
11 0 5 -4 7 -10 4 -6 -4 -2 -15 10 -27 11 -12 20 -27 21 -32 3 -29 6 -74 8
-106 l2 -35 13 30 c8 19 15 25 20 17 4 -7 2 -12 -3 -12 -6 0 -11 -6 -11 -14 0
-8 -10 -22 -22 -30 -12 -9 -17 -16 -10 -16 6 0 12 -6 12 -14 0 -8 7 -16 15
-20 8 -3 15 -13 15 -23 0 -15 -1 -15 -13 2 -11 14 -16 15 -22 5 -4 -7 -2 -16
6 -21 12 -8 12 -11 -1 -19 -11 -8 -7 -9 15 -4 17 4 37 10 45 14 8 4 34 11 58
15 42 7 43 8 26 26 -9 10 -20 17 -23 14 -11 -6 -3 67 8 78 5 5 31 10 57 13 27
2 56 4 64 5 37 5 70 -2 70 -14 0 -7 -13 -21 -30 -30 -16 -10 -30 -25 -30 -32
0 -14 -15 -20 -64 -27 -11 -2 -21 -8 -23 -14 -2 -7 16 -7 59 2 35 7 115 15
178 16 l115 3 -2 -28 c-1 -15 2 -25 8 -22 5 4 9 -3 9 -15 0 -12 -4 -19 -9 -16
-8 5 -56 2 -251 -18 -92 -10 -280 -60 -280 -74 0 -4 -12 -8 -26 -8 -28 -2 -41
-10 -31 -20 4 -4 14 -1 22 6 13 11 18 10 28 -4 11 -15 16 -16 56 -1 56 20 258
53 336 56 102 4 152 0 135 -11 -8 -5 -22 -7 -30 -5 -21 6 -239 -21 -328 -40
-68 -16 -200 -64 -176 -65 16 0 25 -38 11 -43 -7 -2 -2 -13 11 -27 12 -13 22
-19 22 -12 0 6 -4 14 -10 17 -5 3 -10 10 -10 14 0 16 61 71 78 71 52 0 94
-119 57 -160 -27 -30 -69 -26 -98 10 -28 33 -47 39 -47 15 0 -8 6 -15 14 -15
24 0 27 -30 6 -52 -18 -20 -26 -38 -16 -38 2 0 51 16 109 35 427 139 897 39
1163 -248 32 -34 66 -77 77 -95 15 -25 22 -30 28 -20 6 10 9 8 9 -6 0 -15 3
-17 11 -9 16 16 3 43 -21 43 -22 0 -26 10 -9 27 8 8 8 17 0 31 -17 31 -13 37
9 17 11 -10 23 -15 28 -11 4 4 -1 13 -11 20 -9 7 -17 21 -17 30 0 9 -4 16 -10
16 -5 0 -10 -4 -10 -9 0 -5 -7 -17 -16 -25 -20 -21 -48 -7 -69 34 -9 17 -23
30 -31 30 -11 0 -15 6 -11 20 6 22 -17 45 -46 45 -35 0 -27 19 30 68 71 62 80
54 59 -48 -19 -93 -19 -85 -3 -79 8 3 19 -7 26 -22 8 -19 15 -24 22 -17 7 7 6
20 -5 42 -13 24 -14 36 -6 51 6 11 9 24 6 29 -10 15 45 3 65 -15 11 -10 19
-12 19 -6 0 7 -4 12 -10 12 -5 0 -16 13 -25 30 -17 34 -19 44 -5 35 26 -16 5
16 -37 56 -68 64 -127 102 -239 154 -99 46 -122 66 -45 39 87 -30 265 -135
300 -178 8 -10 24 -22 35 -28 17 -8 19 -8 9 3 -9 9 -10 16 -2 26 8 9 7 14 -5
19 -9 3 -16 10 -16 16 0 5 6 6 13 2 6 -4 -6 9 -28 29 -22 20 -46 34 -53 32 -7
-3 -11 -1 -8 4 9 14 -19 32 -158 101 -115 57 -131 68 -131 90 0 21 4 24 25 22
64 -8 243 -111 324 -186 15 -15 30 -25 33 -22 3 2 -9 29 -25 59 -26 48 -28 54
-11 50 12 -3 19 0 19 8 0 24 -17 42 -31 34 -8 -5 -6 1 4 12 9 11 17 26 17 35
0 20 35 59 45 50 5 -4 5 -2 2 5 -4 6 -2 13 4 15 14 5 3 48 -12 48 -5 0 -9 -13
-9 -30 0 -31 -13 -40 -26 -18 -4 6 -2 14 4 16 19 6 14 74 -8 110 -22 36 -27
67 -9 56 9 -5 10 6 5 39 -8 49 9 76 20 32 3 -14 10 -25 15 -25 14 0 10 26 -5
39 -8 7 -15 20 -14 29 0 9 -3 27 -7 40 -7 21 -6 22 19 12 41 -15 48 -13 35 11
-6 12 -9 32 -6 45 3 16 0 24 -9 24 -8 0 -11 6 -8 15 4 8 2 15 -4 15 -6 0 -12
-6 -15 -12 -3 -7 -3 11 -1 41 3 47 2 52 -14 47 -16 -6 -16 -5 1 8 15 12 15 15
3 25 -8 7 -13 18 -10 25 3 7 -2 19 -11 26 -21 18 -19 40 5 40 25 0 26 20 1 27
-10 3 -21 15 -24 28 -3 21 -2 23 15 14 11 -6 24 -8 31 -6 7 2 0 10 -15 17 -27
13 -40 50 -17 50 5 0 7 5 4 10 -3 6 -1 10 4 10 6 0 11 5 11 10 0 6 -7 10 -15
10 -8 0 -14 -3 -14 -7 4 -22 -3 -32 -20 -30 -11 0 -19 4 -19 7 3 29 -6 53 -24
70 l-23 21 26 -10 c15 -5 30 -7 34 -3 4 4 3 -6 -1 -22 -6 -26 -5 -27 15 -17
11 7 21 16 21 21 0 11 -40 34 -41 23 0 -4 -4 2 -10 15 -5 15 -5 30 1 42 13 24
14 51 1 31 -7 -12 -13 -12 -24 -3 -7 7 -18 8 -22 4 -5 -4 -5 -2 -2 4 3 6 -3
21 -15 34 l-22 23 27 -7 c15 -3 27 -4 27 0 0 9 -30 36 -31 27 0 -4 -5 3 -10
16 -5 13 -7 32 -4 41 3 10 1 29 -4 44 -7 17 -7 26 -1 26 6 0 10 -8 10 -17 0
-14 2 -15 9 -4 7 11 10 9 16 -8 3 -11 4 -25 1 -30 -9 -14 4 -41 19 -41 17 0
28 -34 20 -59 -3 -12 0 -21 10 -25 8 -3 15 -12 15 -19 0 -19 48 -69 52 -55 3
8 10 7 27 -1 27 -15 35 -10 26 18 -4 14 -15 21 -33 21 -26 0 -29 6 -67 124
-31 92 -38 127 -31 140 15 22 19 20 14 -8z m-1528 -26 c0 -5 -5 -10 -11 -10
-5 0 -7 5 -4 10 3 6 8 10 11 10 2 0 4 -4 4 -10z m101 -23 c-10 -9 -11 -8 -5 6
3 10 9 15 12 12 3 -3 0 -11 -7 -18z m1489 2 c0 -5 -4 -9 -10 -9 -5 0 -10 7
-10 16 0 8 5 12 10 9 6 -3 10 -10 10 -16z m-1720 -78 c-6 -23 -16 -41 -22 -41
-6 0 -6 6 3 16 10 13 10 17 0 23 -10 7 -9 13 5 29 24 29 27 22 14 -27z m1829
-33 c40 -80 50 -118 33 -118 -19 0 -45 42 -68 110 -26 79 -28 90 -15 90 4 0
27 -37 50 -82z m-1573 45 c-10 -10 -19 5 -10 18 6 11 8 11 12 0 2 -7 1 -15 -2
-18z m74 -23 c0 -5 -4 -10 -10 -10 -5 0 -10 5 -10 10 0 6 5 10 10 10 6 0 10
-4 10 -10z m1238 -35 c-3 -3 -9 2 -12 12 -6 14 -5 15 5 6 7 -7 10 -15 7 -18z
m-1225 -80 c-3 -9 -8 -14 -10 -11 -3 3 -2 9 2 15 9 16 15 13 8 -4z m1321 -381
c3 -8 2 -12 -4 -9 -6 3 -10 10 -10 16 0 14 7 11 14 -7z m-1283 -67 c-10 -9
-11 -8 -5 6 3 10 9 15 12 12 3 -3 0 -11 -7 -18z m1299 -38 c0 -6 -4 -7 -10 -4
-5 3 -10 11 -10 16 0 6 5 7 10 4 6 -3 10 -11 10 -16z m-1260 -75 c0 -8 -5 -12
-10 -9 -6 4 -8 11 -5 16 9 14 15 11 15 -7z m1230 6 c0 -5 -5 -10 -11 -10 -5 0
-7 5 -4 10 3 6 8 10 11 10 2 0 4 -4 4 -10z m-1203 -57 c-3 -10 -5 -4 -5 12 0
17 2 24 5 18 2 -7 2 -21 0 -30z m1277 -58 c-7 -16 -24 -21 -24 -6 0 8 7 13 27
20 1 1 0 -6 -3 -14z m-956 -159 c-10 -7 -18 -16 -18 -20 0 -3 8 -6 18 -6 16
-1 16 -1 0 -14 -31 -23 -20 -32 33 -30 33 1 47 -1 38 -7 -19 -12 -99 -11 -99
1 0 14 -27 13 -32 -2 -2 -6 -10 -8 -16 -4 -18 11 -15 26 4 19 12 -4 14 0 9 18
-8 37 13 57 60 58 19 0 19 0 3 -13z m52 3 c0 -5 5 -7 10 -4 15 9 11 -7 -7 -30
-14 -18 -15 -18 -9 -1 3 10 1 25 -5 32 -8 10 -8 14 0 14 6 0 11 -5 11 -11z
m877 -31 c-3 -8 -6 -5 -6 6 -1 11 2 17 5 13 3 -3 4 -12 1 -19z m-800 -20 c-3
-8 -6 -5 -6 6 -1 11 2 17 5 13 3 -3 4 -12 1 -19z m-32 2 c3 -5 1 -10 -4 -10
-6 0 -11 5 -11 10 0 6 2 10 4 10 3 0 8 -4 11 -10z m341 -17 c-10 -10 -19 5
-10 18 6 11 8 11 12 0 2 -7 1 -15 -2 -18z m-76 7 c0 -5 -5 -10 -11 -10 -5 0
-7 5 -4 10 3 6 8 10 11 10 2 0 4 -4 4 -10z m170 -123 c0 -20 -1 -20 -16 -5 -9
9 -13 21 -9 27 10 16 25 3 25 -22z m370 12 c0 -6 -4 -7 -10 -4 -5 3 -10 11
-10 16 0 6 5 7 10 4 6 -3 10 -11 10 -16z m-340 -39 c0 -5 -5 -10 -11 -10 -5 0
-7 5 -4 10 3 6 8 10 11 10 2 0 4 -4 4 -10z m-615 -110 c0 -8 -7 -16 -15 -16
-8 -1 -23 -2 -32 -3 -11 -1 -18 -9 -18 -21 0 -18 4 -20 34 -15 25 5 35 3 39
-9 5 -11 0 -16 -13 -17 -11 -1 -26 -2 -32 -3 -7 0 -14 -11 -16 -23 -3 -20 0
-21 30 -16 24 3 38 0 47 -11 12 -14 9 -16 -20 -16 -19 0 -48 -4 -64 -9 l-30
-8 -4 51 c-10 119 -10 120 29 127 49 9 65 6 65 -11z m145 10 c0 -5 -16 -12
-35 -16 -43 -8 -41 -23 4 -38 42 -14 55 -44 31 -73 -20 -25 -36 -30 -72 -20
-46 12 -33 30 17 24 25 -2 45 -3 45 -1 0 1 3 10 7 20 4 12 3 15 -5 10 -7 -4
-12 -3 -12 1 0 5 -12 10 -27 11 -40 3 -56 24 -48 61 6 29 9 31 51 31 24 0 44
-4 44 -10z m550 -94 c0 -14 -43 -96 -50 -96 -15 0 -12 24 5 46 8 10 15 27 15
37 0 9 7 17 15 17 8 0 15 -2 15 -4z m4961 -22 c19 -7 42 -83 33 -108 -4 -11
-14 -16 -25 -13 -11 3 -17 1 -13 -4 3 -5 -12 -9 -33 -8 -21 0 -32 3 -25 6 21
8 13 23 -12 23 -14 0 -28 5 -31 10 -3 6 1 10 11 10 11 0 14 4 7 13 -15 19 -13
54 3 68 11 9 14 9 14 0 0 -8 6 -6 16 4 9 9 21 13 28 10 6 -3 18 -8 27 -11z
m-5081 -14 c0 -5 -2 -10 -4 -10 -3 0 -8 5 -11 10 -3 6 -1 10 4 10 6 0 11 -4
11 -10z m216 -87 l-27 -58 27 -21 c38 -31 22 -48 -21 -22 -19 11 -37 23 -40
28 -2 4 11 40 31 80 25 52 38 70 46 62 7 -7 3 -27 -16 -69z m-136 -13 c29 0
50 -11 50 -26 0 -8 -3 -14 -7 -13 -17 1 -67 36 -69 47 -1 7 0 8 3 2 2 -5 13
-10 23 -10z m-55 -490 c-3 -5 -10 -10 -16 -10 -5 0 -9 5 -9 10 0 6 7 10 16 10
8 0 12 -4 9 -10z m-455 -10 c0 -5 -7 -7 -15 -4 -8 4 -15 8 -15 10 0 2 7 4 15
4 8 0 15 -4 15 -10z m-794 -146 l20 -24 24 25 c32 34 74 33 111 -4 l29 -29 29
28 c25 26 32 28 67 20 68 -16 74 -31 74 -205 0 -147 8 -205 29 -205 5 0 9 29
9 63 -1 139 80 201 250 195 l77 -3 1 -125 c2 -158 1 -150 23 -150 33 0 39 22
40 145 1 145 -7 187 -37 200 -12 5 -22 13 -22 17 0 15 88 78 109 78 39 0 96
-86 78 -117 -3 -5 -2 -37 2 -71 l6 -64 58 51 c32 28 62 51 66 51 4 0 17 -10
29 -23 19 -21 22 -35 23 -145 1 -67 5 -125 10 -128 5 -3 18 -3 28 1 17 5 20
16 19 88 0 99 21 147 87 195 l30 22 80 -22 c44 -12 85 -29 91 -37 9 -11 18 -6
54 33 23 25 46 46 51 46 5 0 18 -9 29 -20 18 -18 20 -33 20 -151 0 -100 3
-130 13 -127 9 3 13 44 15 146 l3 142 29 2 c83 5 75 18 71 -125 -3 -117 -1
-131 17 -150 20 -22 20 -22 -4 -59 -28 -44 -56 -49 -90 -17 l-22 21 -30 -33
c-28 -31 -31 -32 -60 -20 -17 7 -34 20 -38 29 -5 10 -11 64 -14 122 -6 115
-19 135 -26 38 -7 -118 -72 -198 -160 -198 -33 0 -52 8 -89 36 l-47 36 -37
-36 c-45 -44 -90 -48 -126 -11 -23 22 -25 32 -25 108 0 86 -8 107 -42 107 -19
0 -20 -6 -22 -175 l-1 -60 -62 -3 -63 -3 0 36 0 36 -49 -41 c-43 -36 -54 -41
-81 -35 -17 4 -38 18 -47 31 l-16 25 -27 -26 c-14 -14 -34 -25 -44 -25 -23 0
-67 24 -90 49 l-19 21 -50 -41 c-56 -44 -84 -46 -122 -8 -18 18 -20 36 -25
192 -4 153 -7 172 -22 175 -17 3 -18 -11 -18 -191 l0 -194 -52 4 c-29 3 -59 6
-65 8 -9 3 -13 54 -15 191 -2 139 -6 188 -15 192 -10 3 -13 -39 -13 -187 l0
-191 -55 0 -55 0 0 190 c0 177 -1 191 -20 210 -19 19 -19 22 -5 50 32 62 80
72 121 24z m221 -634 c8 -32 13 -35 49 -38 56 -5 62 -17 20 -44 -39 -25 -38
-19 -18 -107 l5 -24 -35 26 c-42 32 -42 32 -80 6 -16 -12 -31 -19 -34 -17 -2
3 2 23 10 45 14 41 14 41 -20 74 -18 18 -31 35 -28 38 2 3 22 4 43 2 38 -2 38
-2 50 45 13 51 24 49 38 -6z m1214 5 l11 -45 47 0 46 0 -37 -35 -37 -35 15
-42 c8 -22 12 -43 10 -46 -3 -2 -20 8 -39 22 l-35 27 -31 -27 -31 -26 0 29 c0
16 6 35 13 42 10 10 6 18 -20 42 -18 16 -33 31 -33 33 0 3 17 6 37 8 35 3 38
6 52 51 8 26 16 47 18 47 1 0 8 -20 14 -45z m-921 -25 c10 -38 13 -40 50 -40
48 0 51 -12 10 -37 -18 -10 -28 -23 -25 -33 12 -43 16 -70 11 -70 -4 0 -20 10
-36 22 l-29 21 -36 -27 c-20 -16 -38 -26 -41 -24 -2 3 2 23 10 46 l15 41 -42
36 -42 37 53 -5 52 -4 11 43 c13 51 24 49 39 -6z m316 -13 c10 -31 13 -32 59
-28 53 3 54 -8 4 -34 -31 -16 -37 -42 -18 -77 16 -29 4 -33 -27 -9 -33 26 -39
26 -76 -1 l-31 -22 6 26 c4 15 9 33 13 41 3 9 -6 23 -25 37 -42 29 -40 44 4
36 37 -7 40 -4 59 58 8 23 18 15 32 -27z m318 -9 c4 -13 16 -18 41 -18 19 0
35 -2 35 -5 0 -3 -12 -17 -27 -30 -26 -22 -27 -25 -16 -56 16 -42 11 -46 -27
-19 l-31 22 -28 -26 c-37 -35 -41 -33 -25 15 14 38 13 41 -8 59 -13 11 -27 19
-31 20 -5 0 -5 5 -2 10 4 6 12 10 18 9 41 -5 57 2 63 29 13 53 18 51 38 -10z
m-1149 -242 c110 -9 261 -18 335 -22 266 -13 295 -16 298 -40 2 -17 9 -21 33
-19 16 1 32 5 35 8 3 3 17 2 31 -4 13 -5 89 -9 168 -9 134 0 145 1 155 20 11
20 50 28 50 10 0 -5 -9 -10 -20 -10 -11 0 -20 -5 -20 -11 0 -7 30 -9 98 -4
108 7 135 12 127 25 -3 5 -12 7 -20 3 -8 -3 -15 0 -15 6 0 6 4 11 9 11 5 0 17
3 27 7 13 5 15 3 9 -8 -7 -11 -6 -12 7 -2 8 8 71 17 144 23 200 16 214 19 215
44 0 21 0 21 9 -1 7 -18 15 -22 37 -18 63 11 161 27 201 32 40 5 42 4 42 -20
0 -14 -4 -28 -9 -32 -5 -3 -56 -12 -113 -21 -133 -20 -151 -25 -154 -47 -5
-36 -70 -131 -144 -209 -231 -247 -563 -346 -955 -283 -65 11 -196 57 -248 87
-26 15 -50 28 -53 28 -10 0 -115 82 -173 136 -67 61 -159 191 -168 236 -3 15
-6 28 -7 28 0 0 -54 9 -119 20 -65 11 -120 20 -123 20 -2 0 -4 13 -4 29 l0 28
58 -13 c31 -8 147 -20 257 -28z m685 -46 c0 -5 -6 -10 -14 -10 -8 0 -18 5 -21
10 -3 6 3 10 14 10 12 0 21 -4 21 -10z m1230 -54 c0 -3 -4 -8 -10 -11 -5 -3
-10 -1 -10 4 0 6 5 11 10 11 6 0 10 -2 10 -4z m-1925 -176 c-7 -40 1 -50 23
-28 8 8 15 8 26 -1 13 -11 10 -19 -22 -62 -24 -33 -39 -46 -46 -39 -7 7 -7 17
2 30 10 17 10 20 -3 20 -9 0 -15 9 -15 21 0 18 -2 19 -15 9 -28 -24 -28 -1 1
44 37 58 58 61 49 6z m1681 -11 c36 -22 44 -39 19 -39 -19 0 -34 -28 -27 -53
11 -42 -16 -6 -32 42 -26 80 -20 87 40 50z m-2038 -70 c-3 -19 -11 -21 -103
-24 -55 -2 -107 0 -114 4 -17 11 -5 14 97 32 39 8 72 17 72 21 0 5 10 12 23
17 24 9 32 -7 25 -50z m2507 42 c10 -16 -14 -23 -57 -16 -29 5 -37 10 -27 16
19 12 76 11 84 0z m-2682 -28 c-7 -2 -19 -2 -25 0 -7 3 -2 5 12 5 14 0 19 -2
13 -5z m2135 -25 c2 -16 11 -30 23 -33 11 -4 18 -12 16 -18 -5 -13 -11 -13
-39 -2 -20 8 -26 -19 -8 -30 13 -8 13 -25 0 -25 -5 0 -23 21 -41 46 l-31 46
23 24 c29 31 53 27 57 -8z m1032 -23 c19 -22 20 -25 4 -12 -11 9 -26 17 -32
17 -7 0 -12 10 -12 22 0 12 3 18 8 13 4 -6 18 -23 32 -40z m-3240 6 c0 -16 -7
-20 -38 -19 -22 0 -50 -6 -63 -13 -13 -8 -31 -15 -39 -16 -8 -1 -33 -7 -55
-13 -22 -7 -60 -15 -85 -19 -25 -4 -55 -12 -66 -19 -21 -11 -119 -28 -221 -39
-37 -3 -53 -1 -53 7 0 7 -8 9 -20 5 -11 -4 -20 -2 -20 4 0 6 -9 11 -20 11 -11
0 -20 5 -20 10 0 6 10 10 23 10 14 0 18 3 10 8 -16 10 69 39 157 53 36 6 128
13 205 16 77 2 141 8 143 13 2 4 21 6 42 3 26 -4 40 -2 40 6 0 6 17 11 40 11
33 0 40 -3 40 -19z m715 9 c3 -5 2 -27 -4 -47 -5 -21 -12 -50 -15 -65 -8 -35
-26 -37 -26 -3 0 14 -7 28 -15 30 -52 17 -52 15 -5 56 48 41 55 45 65 29z
m1690 -67 c-85 -156 -205 -285 -339 -366 -80 -49 -195 -97 -229 -97 l-22 1 23
13 c23 12 23 13 6 31 -18 18 -18 18 11 11 17 -4 27 -4 23 0 -4 4 37 29 92 55
55 26 134 71 176 100 91 63 207 184 254 266 47 83 52 71 5 -14z m-285 27 c0
-5 -9 -14 -20 -20 -22 -12 -27 -40 -7 -40 7 0 18 5 25 12 18 18 14 -3 -5 -24
-12 -14 -14 -21 -5 -30 9 -9 16 -7 32 7 15 14 20 15 20 4 -1 -13 -48 -55 -54
-47 -2 1 -16 25 -31 52 l-29 49 30 23 c31 26 44 30 44 14z m1034 -8 c2 -4 -4
-8 -15 -8 -10 0 -19 4 -19 8 0 4 6 8 14 8 8 0 17 -4 20 -8z m-2683 -39 c51
-83 176 -196 294 -266 70 -41 245 -110 335 -132 41 -10 79 -21 85 -26 5 -5 19
-9 31 -9 12 0 30 -3 39 -6 14 -6 12 -10 -12 -25 -15 -11 -22 -19 -15 -19 6 0
12 -5 12 -11 0 -8 -14 -10 -45 -6 -41 6 -59 -3 -36 -17 12 -8 2 -88 -14 -105
-19 -19 -55 -5 -55 22 1 20 2 21 14 5 12 -16 36 -25 36 -14 0 2 3 11 6 20 4
11 1 16 -10 16 -20 0 -21 16 -1 24 8 3 15 12 15 21 0 18 -12 19 -28 3 -6 -6
-15 -8 -19 -4 -5 4 0 13 10 20 22 17 22 26 -2 26 -37 0 -186 52 -251 88 -169
93 -269 183 -362 327 -53 82 -65 105 -54 105 2 0 15 -17 27 -37z m334 12 c32
-26 27 -47 -6 -26 -27 16 -37 6 -16 -17 18 -20 22 -42 8 -42 -5 0 -14 7 -21
15 -7 8 -17 12 -22 9 -5 -3 0 -16 11 -28 20 -21 28 -46 15 -46 -15 0 -64 43
-64 57 0 23 46 103 59 103 3 -1 19 -12 36 -25z m2456 -5 c5 0 9 5 9 10 0 6 5
10 11 10 5 0 7 -4 4 -10 -3 -5 0 -10 7 -11 10 0 10 -2 0 -6 -6 -2 -10 -9 -6
-14 3 -5 0 -9 -5 -9 -6 0 -11 5 -11 11 0 6 -6 9 -13 6 -8 -3 -13 4 -14 22 0
14 1 18 4 9 2 -10 9 -18 14 -18z m-2571 -132 c102 -81 238 -144 414 -193 107
-29 121 -40 42 -31 -122 14 -291 82 -414 169 -71 49 -158 130 -174 161 -6 12
12 0 38 -25 27 -25 69 -62 94 -81z m1345 92 c3 -5 -3 -10 -13 -10 -33 0 -43
-22 -25 -58 18 -36 39 -42 48 -12 7 22 25 28 25 8 0 -18 -31 -48 -50 -48 -36
0 -62 70 -41 109 12 22 45 28 56 11z m1095 6 c0 -3 -4 -8 -10 -11 -5 -3 -10
-1 -10 4 0 6 5 11 10 11 6 0 10 -2 10 -4z m-2226 -28 c14 -23 2 -32 -23 -17
-32 20 -37 2 -8 -25 15 -14 27 -28 27 -31 0 -20 -24 -45 -43 -45 -24 0 -67 33
-67 50 0 15 22 12 42 -7 27 -24 35 -7 10 20 -25 26 -28 47 -10 65 17 17 58 11
72 -10z m81 -35 c36 -17 49 -46 18 -41 -12 2 -22 -10 -34 -42 -9 -25 -22 -45
-28 -45 -16 0 -16 5 -1 59 10 38 11 51 2 54 -14 4 -16 32 -2 32 5 0 25 -8 45
-17z m931 2 c-11 -8 -24 -15 -30 -15 -5 0 -1 7 10 15 10 8 24 14 29 14 6 0 1
-6 -9 -14z m279 -30 c-58 -51 -152 -110 -217 -139 -77 -34 -74 -24 5 15 80 40
187 110 211 137 11 12 24 22 30 22 6 0 -7 -16 -29 -35z m-291 -50 c-8 -19 23
-32 39 -16 13 13 27 15 27 3 0 -9 -44 -32 -60 -32 -6 0 -40 81 -40 97 0 2 9
-6 20 -17 11 -11 17 -26 14 -35z m1375 18 c-1 -21 -3 -30 -6 -19 -4 14 -11 17
-34 12 -28 -5 -29 -5 -12 13 15 15 28 23 51 30 1 1 1 -16 1 -36z m-2185 16
c30 -14 38 -41 19 -69 -8 -11 -13 -32 -11 -47 4 -37 -19 -41 -29 -4 -9 35 -26
42 -31 11 -4 -22 -17 -26 -27 -9 -6 9 2 54 21 117 4 15 25 15 58 1z m846 -3
c0 -3 -4 -8 -10 -11 -5 -3 -10 -1 -10 4 0 6 5 11 10 11 6 0 10 -2 10 -4z
m1704 -11 c3 -10 -1 -15 -13 -15 -10 0 -21 7 -25 15 -3 10 1 15 13 15 10 0 21
-7 25 -15z m-2457 -32 c-4 -16 -10 -46 -14 -67 -4 -22 -14 -41 -22 -44 -11 -4
-12 2 -7 23 4 15 9 41 12 59 9 47 12 56 25 56 7 0 9 -10 6 -27z m91 -21 c2 -7
-3 -12 -12 -12 -9 0 -16 7 -16 16 0 17 22 14 28 -4z m1852 -51 c0 -14 -18 -23
-30 -16 -6 4 -8 11 -5 16 8 12 35 12 35 0z m-1883 -17 c4 -12 -46 -38 -55 -29
-3 3 -1 5 5 5 6 0 13 9 16 21 6 21 28 22 34 3z m53 -35 c0 -6 -4 -7 -10 -4 -5
3 -10 11 -10 16 0 6 5 7 10 4 6 -3 10 -11 10 -16z m610 17 c0 -2 -9 -6 -20 -9
-11 -3 -18 -1 -14 4 5 9 34 13 34 5z m746 -23 c-10 -10 -19 5 -10 18 6 11 8
11 12 0 2 -7 1 -15 -2 -18z m-1940 -18 c4 -8 15 -15 26 -15 11 0 22 -8 25 -20
3 -11 9 -17 14 -14 5 3 9 -1 9 -9 0 -10 7 -13 20 -10 24 6 25 -7 4 -48 -8 -17
-13 -33 -10 -37 4 -3 14 13 23 37 10 27 22 41 31 39 9 -2 14 -7 11 -13 -2 -5
-7 -9 -11 -8 -5 2 -8 -6 -8 -16 0 -11 5 -21 12 -23 7 -3 9 -14 4 -31 -7 -28
-26 -38 -26 -14 0 9 -11 13 -30 12 -28 -2 -30 1 -30 34 -1 29 -2 33 -11 19 -5
-10 -15 -18 -20 -18 -6 0 -7 5 -4 10 3 6 -1 10 -9 10 -8 0 -21 8 -28 18 -7 9
-20 18 -28 20 -21 5 -31 24 -24 47 13 43 49 61 60 30z m1349 -66 c11 -16 1
-19 -13 -3 -7 8 -8 14 -3 14 5 0 13 -5 16 -11z m-311 -25 c9 -3 13 -10 10 -15
-3 -5 -10 -7 -15 -3 -6 3 -16 -2 -23 -12 -9 -12 -15 -14 -20 -5 -8 12 10 41
24 41 5 0 15 -3 24 -6z m-824 -42 c0 -13 2 -14 9 -4 7 11 19 11 71 -4 44 -12
58 -20 47 -26 -9 -4 -18 -22 -22 -38 -11 -48 -25 -46 -19 3 6 39 4 45 -15 50
-23 6 -31 -17 -8 -26 7 -3 5 -6 -5 -6 -20 -1 -24 -27 -5 -34 6 -2 9 -7 5 -11
-3 -4 -17 -2 -30 5 -12 7 -26 12 -30 11 -5 -1 -8 6 -8 15 0 13 -3 14 -12 5 -7
-7 -16 -12 -21 -12 -11 0 1 70 15 87 13 16 28 7 28 -15z m556 -13 c8 -14 -10
-11 -32 6 -18 13 -18 14 4 8 12 -3 25 -9 28 -14z m309 11 c-3 -5 -10 -10 -16
-10 -5 0 -9 5 -9 10 0 6 7 10 16 10 8 0 12 -4 9 -10z m270 -8 c-3 -3 -11 0
-18 7 -9 10 -8 11 6 5 10 -3 15 -9 12 -12z m-695 -1 c0 -6 -10 -8 -21 -6 -33
6 -36 15 -6 15 15 0 27 -4 27 -9z m650 -13 c0 -6 -6 -5 -15 2 -8 7 -15 14 -15
16 0 2 7 1 15 -2 8 -4 15 -11 15 -16z m-740 2 c0 -5 8 -10 18 -10 14 0 15 -2
2 -10 -23 -15 -38 -12 -50 10 -9 17 -8 20 10 20 11 0 20 -4 20 -10z m125 0 c3
-5 2 -10 -4 -10 -5 0 -13 5 -16 10 -3 6 -2 10 4 10 5 0 13 -4 16 -10z m-32
-27 c-7 -2 -19 -2 -25 0 -7 3 -2 5 12 5 14 0 19 -2 13 -5z m-171 -25 c-7 -7
-12 -8 -12 -2 0 14 12 26 19 19 2 -3 -1 -11 -7 -17z m38 -22 c-5 -5 -5 -18 0
-31 6 -16 4 -28 -6 -41 -15 -18 -15 -18 -10 -1 3 10 0 27 -7 39 -9 16 -9 22 1
25 6 3 12 14 12 26 0 18 2 19 10 7 5 -9 5 -19 0 -24z m35 -5 c3 -5 1 -12 -5
-16 -5 -3 -10 1 -10 9 0 18 6 21 15 7z m-79 -66 c17 -16 14 -18 -10 -9 -9 3
-16 10 -16 15 0 13 9 11 26 -6z m1358 -174 c3 -4 -2 -17 -10 -27 -11 -14 -17
-15 -20 -6 -9 19 -24 14 -24 -8 0 -11 -4 -20 -10 -20 -5 0 -10 5 -10 10 0 6
-9 10 -21 10 -15 0 -19 -5 -15 -15 3 -8 1 -15 -4 -15 -6 0 -10 5 -10 11 0 5
-4 8 -9 5 -5 -3 -8 5 -7 18 1 18 4 22 14 14 7 -6 12 -7 12 -1 0 24 101 45 114
24z m-1824 -14 c0 -5 8 -7 18 -6 32 3 42 -1 42 -16 0 -17 16 -20 25 -5 17 28
103 -14 92 -44 -3 -8 -1 -17 6 -20 7 -3 1 -3 -12 0 -27 7 -46 -14 -29 -33 12
-15 12 -15 -22 -18 -14 -1 -42 -5 -62 -10 -31 -6 -38 -4 -38 9 0 9 -4 16 -10
16 -5 0 -7 -7 -4 -15 4 -9 0 -15 -10 -15 -9 0 -16 5 -16 11 0 5 -5 7 -10 4 -6
-4 -7 -12 -4 -18 5 -9 3 -8 -6 0 -9 9 -17 9 -26 2 -8 -7 -14 -7 -19 1 -3 5
-22 10 -41 10 -54 0 -156 32 -186 59 -18 16 -28 34 -28 53 0 15 1 28 3 29 1 0
45 3 97 5 52 3 96 6 97 7 6 7 143 0 143 -6z"/>
<path d="M1990 8680 c0 -5 5 -10 11 -10 5 0 7 5 4 10 -3 6 -8 10 -11 10 -2 0
-4 -4 -4 -10z"/>
<path d="M2763 8223 c-15 -5 -18 -33 -4 -33 5 0 11 9 14 20 3 11 4 20 4 19 -1
0 -8 -3 -14 -6z"/>
<path d="M2050 8179 c0 -6 7 -17 15 -25 16 -16 19 -7 9 20 -7 18 -24 22 -24 5z"/>
<path d="M2765 8140 c-3 -5 -1 -10 4 -10 6 0 11 5 11 10 0 6 -2 10 -4 10 -3 0
-8 -4 -11 -10z"/>
<path d="M1970 8110 c0 -5 5 -10 10 -10 6 0 10 5 10 10 0 6 -4 10 -10 10 -5 0
-10 -4 -10 -10z"/>
<path d="M2746 8101 c-4 -7 -5 -15 -2 -18 9 -9 19 4 14 18 -4 11 -6 11 -12 0z"/>
<path d="M2077 7965 c-4 -8 -2 -17 3 -20 6 -4 10 3 10 14 0 25 -6 27 -13 6z"/>
<path d="M2740 7971 c0 -6 5 -13 10 -16 6 -3 10 1 10 9 0 9 -4 16 -10 16 -5 0
-10 -4 -10 -9z"/>
<path d="M2020 7924 c0 -9 5 -14 12 -12 18 6 21 28 4 28 -9 0 -16 -7 -16 -16z"/>
<path d="M2760 7900 c0 -5 5 -10 10 -10 6 0 10 5 10 10 0 6 -4 10 -10 10 -5 0
-10 -4 -10 -10z"/>
<path d="M2066 7893 c-11 -11 -6 -23 9 -23 8 0 15 4 15 9 0 13 -16 22 -24 14z"/>
<path d="M1976 7841 c-4 -7 -5 -15 -2 -18 9 -9 19 4 14 18 -4 11 -6 11 -12 0z"/>
<path d="M2817 7835 c-4 -8 -2 -17 3 -20 6 -4 10 3 10 14 0 25 -6 27 -13 6z"/>
<path d="M2291 7495 l-30 -35 -25 25 c-41 41 -83 34 -129 -21 l-39 -44 22 -18
c21 -17 22 -24 20 -172 -1 -85 -3 -172 -5 -192 l-3 -38 74 0 74 0 0 204 c0
113 4 207 9 210 5 3 15 -2 22 -11 11 -13 13 -58 11 -215 l-3 -199 86 3 87 3
-2 203 c0 158 2 203 12 200 19 -7 25 -44 27 -187 2 -143 11 -176 53 -205 39
-28 79 -19 118 26 30 35 32 42 19 52 -34 25 -40 59 -54 340 -2 42 -8 55 -34
78 -40 36 -68 35 -107 -1 l-31 -29 -26 29 c-21 24 -33 29 -70 29 -39 0 -49 -5
-76 -35z"/>
<path d="M2367 6948 c-6 -22 -13 -28 -34 -28 l-26 0 21 -22 c15 -17 18 -27 11
-40 -12 -21 -6 -22 23 -7 14 8 23 8 31 0 18 -18 29 -13 22 11 -6 16 -1 26 16
39 l24 19 -31 0 c-24 0 -32 6 -40 28 l-10 27 -7 -27z"/>
<path d="M2526 6942 c-5 -15 -15 -22 -32 -22 -29 0 -31 -11 -4 -28 17 -10 19
-16 9 -33 -14 -26 -5 -36 15 -16 9 9 25 13 37 10 16 -4 20 -2 17 8 -3 8 1 22
10 32 14 15 13 17 -1 17 -9 0 -23 12 -30 27 -14 26 -15 26 -21 5z"/>
<path d="M2211 6933 c-1 -12 -9 -27 -18 -32 -12 -7 -13 -10 -4 -11 7 0 11 -6
7 -15 -3 -9 0 -15 8 -15 8 0 21 -3 30 -6 12 -4 16 0 16 15 0 12 7 24 15 27 24
10 17 25 -8 19 -18 -5 -26 -1 -35 17 l-11 23 0 -22z"/>
<path d="M2660 6904 c-20 -11 -22 -14 -8 -19 9 -4 15 -12 12 -19 -3 -7 4 -12
15 -12 23 0 33 26 17 47 -9 12 -15 13 -36 3z"/>
<path d="M2064 6896 c-12 -13 -4 -40 12 -43 16 -3 23 30 10 43 -8 8 -15 8 -22
0z"/>
<path d="M2026 6521 c-4 -7 -5 -15 -2 -18 9 -9 19 4 14 18 -4 11 -6 11 -12 0z"/>
<path d="M2925 6500 c3 -5 8 -10 11 -10 2 0 4 5 4 10 0 6 -5 10 -11 10 -5 0
-7 -4 -4 -10z"/>
<path d="M1895 6490 c-3 -5 -1 -10 4 -10 6 0 11 5 11 10 0 6 -2 10 -4 10 -3 0
-8 -4 -11 -10z"/>
<path d="M2090 6450 c0 -5 5 -10 10 -10 6 0 10 5 10 10 0 6 -4 10 -10 10 -5 0
-10 -4 -10 -10z"/>
<path d="M1962 6425 c0 -16 2 -22 5 -12 2 9 2 23 0 30 -3 6 -5 -1 -5 -18z"/>
<path d="M1820 6420 c0 -5 5 -10 10 -10 6 0 10 5 10 10 0 6 -4 10 -10 10 -5 0
-10 -4 -10 -10z"/>
<path d="M1850 6420 c0 -5 5 -10 10 -10 6 0 10 5 10 10 0 6 -4 10 -10 10 -5 0
-10 -4 -10 -10z"/>
<path d="M2960 6220 c0 -5 5 -10 11 -10 5 0 7 5 4 10 -3 6 -8 10 -11 10 -2 0
-4 -4 -4 -10z"/>
<path d="M2030 6185 c0 -9 6 -12 15 -9 8 4 12 10 9 15 -8 14 -24 10 -24 -6z"/>
<path d="M1900 6156 c0 -14 5 -26 10 -26 6 0 10 9 10 19 0 11 -4 23 -10 26 -6
4 -10 -5 -10 -19z"/>
<path d="M1785 6150 c-3 -5 -1 -10 4 -10 6 0 11 5 11 10 0 6 -2 10 -4 10 -3 0
-8 -4 -11 -10z"/>
<path d="M2077 6154 c-12 -12 -8 -24 7 -24 8 0 17 -6 19 -12 3 -7 6 -8 6 -2 1
16 -24 46 -32 38z"/>
<path d="M1957 6133 c-11 -10 -8 -53 3 -53 18 0 31 37 16 49 -7 6 -16 8 -19 4z"/>
<path d="M2960 6120 c0 -5 5 -10 10 -10 6 0 10 5 10 10 0 6 -4 10 -10 10 -5 0
-10 -4 -10 -10z"/>
<path d="M1855 6100 c-3 -5 -1 -10 4 -10 6 0 11 5 11 10 0 6 -2 10 -4 10 -3 0
-8 -4 -11 -10z"/>
<path d="M1810 6080 c0 -11 4 -20 9 -20 5 0 11 9 14 20 3 13 0 20 -9 20 -8 0
-14 -9 -14 -20z"/>
<path d="M2100 6074 c0 -8 5 -12 10 -9 6 3 10 10 10 16 0 5 -4 9 -10 9 -5 0
-10 -7 -10 -16z"/>
<path d="M1930 5990 c0 -5 5 -10 10 -10 6 0 10 5 10 10 0 6 -4 10 -10 10 -5 0
-10 -4 -10 -10z"/>
<path d="M2920 5990 c0 -5 5 -10 10 -10 6 0 10 5 10 10 0 6 -4 10 -10 10 -5 0
-10 -4 -10 -10z"/>
<path d="M2977 5993 c-11 -10 -8 -43 3 -43 6 0 10 11 10 25 0 26 -2 29 -13 18z"/>
<path d="M1796 5965 c-3 -9 0 -15 9 -15 8 0 15 7 15 15 0 8 -4 15 -9 15 -5 0
-11 -7 -15 -15z"/>
<path d="M1942 5973 c-10 -4 -10 -8 -1 -19 13 -16 29 -10 29 12 0 15 -6 16
-28 7z"/>
<path d="M2046 5945 c5 -11 2 -13 -10 -9 -9 3 -16 1 -16 -5 0 -15 23 -14 38 1
16 16 15 28 -3 28 -9 0 -12 -6 -9 -15z"/>
<path d="M1870 5900 c0 -5 5 -10 10 -10 6 0 10 5 10 10 0 6 -4 10 -10 10 -5 0
-10 -4 -10 -10z"/>
<path d="M2054 5866 c-8 -22 3 -33 18 -18 9 9 9 15 0 24 -9 9 -13 7 -18 -6z"/>
<path d="M1792 5850 c0 -14 2 -19 5 -12 2 6 2 18 0 25 -3 6 -5 1 -5 -13z"/>
<path d="M1901 5861 c-7 -5 -10 -14 -6 -20 5 -9 10 -9 21 0 26 22 14 38 -15
20z"/>
<path d="M2980 5849 c0 -5 5 -7 10 -4 6 3 10 8 10 11 0 2 -4 4 -10 4 -5 0 -10
-5 -10 -11z"/>
<path d="M1861 5784 c0 -11 3 -14 6 -6 3 7 2 16 -1 19 -3 4 -6 -2 -5 -13z"/>
<path d="M1890 5790 c0 -5 5 -10 10 -10 6 0 10 5 10 10 0 6 -4 10 -10 10 -5 0
-10 -4 -10 -10z"/>
<path d="M2050 5790 c0 -5 5 -10 10 -10 6 0 10 5 10 10 0 6 -4 10 -10 10 -5 0
-10 -4 -10 -10z"/>
<path d="M2040 5745 c0 -9 5 -15 11 -13 6 2 11 8 11 13 0 5 -5 11 -11 13 -6 2
-11 -4 -11 -13z"/>
<path d="M1885 5740 c-3 -5 -2 -10 4 -10 5 0 13 5 16 10 3 6 2 10 -4 10 -5 0
-13 -4 -16 -10z"/>
<path d="M2935 5730 c-3 -5 -1 -10 4 -10 6 0 11 5 11 10 0 6 -2 10 -4 10 -3 0
-8 -4 -11 -10z"/>
<path d="M1775 5719 c-10 -15 3 -25 16 -12 7 7 7 13 1 17 -6 3 -14 1 -17 -5z"/>
<path d="M2990 5715 c0 -8 5 -15 10 -15 6 0 10 7 10 15 0 8 -4 15 -10 15 -5 0
-10 -7 -10 -15z"/>
<path d="M2883 5694 c-6 -16 15 -37 28 -28 10 6 -1 44 -12 44 -6 0 -12 -7 -16
-16z"/>
<path d="M1884 5689 c-3 -6 -2 -15 3 -20 5 -5 9 -1 9 11 0 23 -2 24 -12 9z"/>
<path d="M2000 5690 c0 -5 5 -10 10 -10 6 0 10 5 10 10 0 6 -4 10 -10 10 -5 0
-10 -4 -10 -10z"/>
<path d="M2030 5677 c0 -19 10 -27 25 -20 17 6 8 33 -11 33 -8 0 -14 -6 -14
-13z"/>
<path d="M1846 5664 c-4 -9 -4 -19 -1 -22 2 -3 7 3 11 12 4 9 4 19 1 22 -2 3
-7 -3 -11 -12z"/>
<path d="M1964 5615 c-4 -9 -4 -18 -2 -21 9 -8 39 8 35 19 -6 18 -27 20 -33 2z"/>
<path d="M1870 5590 c0 -5 7 -10 15 -10 8 0 15 5 15 10 0 6 -7 10 -15 10 -8 0
-15 -4 -15 -10z"/>
<path d="M3220 5080 c0 -5 5 -10 10 -10 6 0 10 5 10 10 0 6 -4 10 -10 10 -5 0
-10 -4 -10 -10z"/>
<path d="M3260 5050 c-20 -12 -5 -24 16 -12 9 5 12 12 7 15 -5 3 -15 2 -23 -3z"/>
<path d="M3277 4994 c-15 -15 -7 -44 13 -44 11 0 20 4 20 8 0 15 -26 43 -33
36z"/>
<path d="M1607 4950 c-3 -12 0 -20 8 -20 14 0 27 25 18 34 -11 11 -21 6 -26
-14z"/>
<path d="M1480 4914 c0 -8 5 -12 10 -9 6 3 10 10 10 16 0 5 -4 9 -10 9 -5 0
-10 -7 -10 -16z"/>
<path d="M1840 4886 c0 -9 5 -16 10 -16 6 0 10 4 10 9 0 6 -4 13 -10 16 -5 3
-10 -1 -10 -9z"/>
<path d="M1840 4852 c0 -7 7 -20 15 -28 19 -20 20 -4 0 22 -9 12 -14 14 -15 6z"/>
<path d="M3259 4839 c-11 -7 -11 -9 3 -9 12 0 15 -5 11 -17 -6 -17 -6 -17 10
-1 9 9 17 19 17 21 0 11 -28 15 -41 6z"/>
<path d="M1680 4830 c0 -5 5 -10 10 -10 6 0 10 5 10 10 0 6 -4 10 -10 10 -5 0
-10 -4 -10 -10z"/>
<path d="M1725 4830 c3 -5 10 -10 16 -10 5 0 9 5 9 10 0 6 -7 10 -16 10 -8 0
-12 -4 -9 -10z"/>
<path d="M1429 4783 c-1 -4 -1 -12 0 -17 1 -5 -4 -13 -10 -17 -10 -6 -10 -11
0 -23 19 -22 43 -1 39 32 -3 24 -27 44 -29 25z"/>
<path d="M1840 4781 c0 -5 7 -14 15 -21 16 -14 18 -10 9 14 -6 17 -24 22 -24
7z"/>
<path d="M3290 4770 c-9 -6 -10 -10 -3 -10 6 0 15 5 18 10 8 12 4 12 -15 0z"/>
<path d="M3342 4772 c-9 -6 -6 -12 13 -22 29 -16 43 -7 25 15 -14 17 -20 18
-38 7z"/>
<path d="M1666 4745 c4 -8 10 -15 15 -15 4 0 6 7 3 15 -4 8 -10 15 -15 15 -4
0 -6 -7 -3 -15z"/>
<path d="M1770 4740 c0 -11 5 -20 10 -20 6 0 10 9 10 20 0 11 -4 20 -10 20 -5
0 -10 -9 -10 -20z"/>
<path d="M3315 4740 c3 -5 8 -10 11 -10 2 0 4 5 4 10 0 6 -5 10 -11 10 -5 0
-7 -4 -4 -10z"/>
<path d="M1827 4708 c-8 -27 5 -43 28 -34 21 8 16 50 -6 54 -10 2 -19 -6 -22
-20z"/>
<path d="M1543 4696 c3 -7 1 -18 -5 -24 -6 -6 -6 -12 2 -17 7 -4 16 -1 21 6
14 23 10 49 -7 49 -10 0 -14 -6 -11 -14z"/>
<path d="M3290 4700 c0 -5 5 -10 10 -10 6 0 10 5 10 10 0 6 -4 10 -10 10 -5 0
-10 -4 -10 -10z"/>
<path d="M1780 4690 c0 -5 5 -10 11 -10 5 0 7 5 4 10 -3 6 -8 10 -11 10 -2 0
-4 -4 -4 -10z"/>
<path d="M1720 4660 c0 -11 7 -20 15 -20 8 0 15 9 15 20 0 11 -7 20 -15 20 -8
0 -15 -9 -15 -20z"/>
<path d="M1650 4660 c0 -5 5 -10 10 -10 6 0 10 5 10 10 0 6 -4 10 -10 10 -5 0
-10 -4 -10 -10z"/>
<path d="M3325 4660 c-8 -13 -1 -24 14 -19 6 3 7 10 2 18 -6 10 -10 10 -16 1z"/>
<path d="M3360 4640 c0 -19 11 -26 23 -14 8 8 -3 34 -14 34 -5 0 -9 -9 -9 -20z"/>
<path d="M3430 4650 c0 -5 5 -10 10 -10 6 0 10 5 10 10 0 6 -4 10 -10 10 -5 0
-10 -4 -10 -10z"/>
<path d="M3480 4653 c0 -5 5 -15 10 -23 8 -12 10 -11 10 8 0 12 -4 22 -10 22
-5 0 -10 -3 -10 -7z"/>
<path d="M1580 4620 c0 -5 5 -10 11 -10 5 0 7 5 4 10 -3 6 -8 10 -11 10 -2 0
-4 -4 -4 -10z"/>
<path d="M3400 4590 c0 -5 5 -10 10 -10 6 0 10 5 10 10 0 6 -4 10 -10 10 -5 0
-10 -4 -10 -10z"/>
<path d="M3277 4584 c-4 -4 -7 -11 -7 -15 0 -10 24 -5 28 6 4 12 -12 18 -21 9z"/>
<path d="M1790 4569 c0 -5 5 -7 10 -4 6 3 10 8 10 11 0 2 -4 4 -10 4 -5 0 -10
-5 -10 -11z"/>
<path d="M3480 4560 c0 -5 5 -10 10 -10 6 0 10 5 10 10 0 6 -4 10 -10 10 -5 0
-10 -4 -10 -10z"/>
<path d="M1670 4550 c0 -5 5 -10 10 -10 6 0 10 5 10 10 0 6 -4 10 -10 10 -5 0
-10 -4 -10 -10z"/>
<path d="M3435 4551 c-3 -5 -1 -12 5 -16 5 -3 10 1 10 9 0 18 -6 21 -15 7z"/>
<path d="M3290 4531 c0 -6 7 -11 15 -11 9 0 12 -6 9 -15 -4 -8 -2 -15 4 -15 9
0 26 30 20 35 -12 10 -48 14 -48 6z"/>
<path d="M1855 4499 c0 -21 4 -29 15 -27 22 5 24 35 3 46 -15 9 -18 6 -18 -19z"/>
<path d="M1687 4500 c-6 -23 10 -37 25 -22 12 12 4 42 -11 42 -5 0 -11 -9 -14
-20z"/>
<path d="M3372 4508 c-20 -20 -14 -36 13 -30 28 5 31 14 12 31 -10 8 -17 7
-25 -1z"/>
<path d="M1763 4491 c1 -12 7 -21 15 -21 16 0 12 32 -5 37 -7 3 -11 -4 -10
-16z"/>
<path d="M3300 4466 c0 -16 24 -38 33 -30 8 9 -11 44 -23 44 -6 0 -10 -6 -10
-14z"/>
<path d="M1840 4450 c0 -5 5 -10 11 -10 5 0 7 5 4 10 -3 6 -8 10 -11 10 -2 0
-4 -4 -4 -10z"/>
<path d="M1770 4440 c0 -5 5 -10 10 -10 6 0 10 5 10 10 0 6 -4 10 -10 10 -5 0
-10 -4 -10 -10z"/>
<path d="M3415 4430 c3 -5 10 -10 16 -10 5 0 9 5 9 10 0 6 -7 10 -16 10 -8 0
-12 -4 -9 -10z"/>
<path d="M1325 4420 c-3 -5 -1 -10 4 -10 6 0 11 5 11 10 0 6 -2 10 -4 10 -3 0
-8 -4 -11 -10z"/>
<path d="M1650 4410 c0 -5 5 -10 10 -10 6 0 10 5 10 10 0 6 -4 10 -10 10 -5 0
-10 -4 -10 -10z"/>
<path d="M1740 4405 c0 -8 5 -15 10 -15 6 0 10 7 10 15 0 8 -4 15 -10 15 -5 0
-10 -7 -10 -15z"/>
<path d="M3360 4400 c0 -5 5 -10 10 -10 6 0 10 5 10 10 0 6 -4 10 -10 10 -5 0
-10 -4 -10 -10z"/>
<path d="M1480 4365 c0 -8 2 -15 4 -15 2 0 6 7 10 15 3 8 1 15 -4 15 -6 0 -10
-7 -10 -15z"/>
<path d="M1620 4359 c0 -11 5 -17 10 -14 6 3 10 13 10 21 0 8 -4 14 -10 14 -5
0 -10 -9 -10 -21z"/>
<path d="M3460 4369 c0 -5 5 -7 10 -4 6 3 10 8 10 11 0 2 -4 4 -10 4 -5 0 -10
-5 -10 -11z"/>
<path d="M1890 4360 c0 -5 7 -10 15 -10 8 0 15 5 15 10 0 6 -7 10 -15 10 -8 0
-15 -4 -15 -10z"/>
<path d="M3363 4355 c0 -8 4 -12 9 -9 4 3 8 9 8 15 0 5 -4 9 -8 9 -5 0 -9 -7
-9 -15z"/>
<path d="M1856 4345 c-3 -9 0 -15 9 -15 8 0 15 7 15 15 0 8 -4 15 -9 15 -5 0
-11 -7 -15 -15z"/>
<path d="M3400 4350 c0 -5 5 -10 10 -10 6 0 10 5 10 10 0 6 -4 10 -10 10 -5 0
-10 -4 -10 -10z"/>
<path d="M3365 4310 c-3 -5 -1 -10 4 -10 6 0 11 5 11 10 0 6 -2 10 -4 10 -3 0
-8 -4 -11 -10z"/>
<path d="M1620 4294 c0 -8 5 -12 10 -9 6 4 8 11 5 16 -9 14 -15 11 -15 -7z"/>
<path d="M1902 4299 c2 -7 10 -15 17 -17 8 -3 12 1 9 9 -2 7 -10 15 -17 17 -8
3 -12 -1 -9 -9z"/>
<path d="M1380 4273 c0 -11 -5 -24 -12 -31 -9 -9 -7 -13 6 -18 23 -9 39 8 34
37 -4 28 -28 38 -28 12z"/>
<path d="M1582 4259 c1 -13 8 -23 13 -21 15 3 12 35 -3 40 -9 3 -13 -3 -10
-19z"/>
<path d="M3490 4269 c0 -5 5 -7 10 -4 6 3 10 8 10 11 0 2 -4 4 -10 4 -5 0 -10
-5 -10 -11z"/>
<path d="M3423 4243 c-15 -5 -17 -23 -4 -23 5 0 11 7 15 15 3 8 4 15 3 14 -1
0 -8 -3 -14 -6z"/>
<path d="M1690 4212 c0 -4 5 -13 12 -20 9 -9 9 -12 -2 -12 -11 0 -12 -2 -1
-12 18 -18 46 19 30 39 -12 14 -39 18 -39 5z"/>
<path d="M3360 4180 c0 -5 5 -10 10 -10 6 0 10 5 10 10 0 6 -4 10 -10 10 -5 0
-10 -4 -10 -10z"/>
<path d="M1867 4150 c-6 -22 0 -25 22 -11 7 5 10 14 7 20 -11 17 -23 13 -29
-9z"/>
<path d="M1585 4141 c-6 -11 9 -23 19 -14 9 9 7 23 -3 23 -6 0 -12 -4 -16 -9z"/>
<path d="M1640 4111 c0 -12 5 -21 10 -21 6 0 10 6 10 14 0 8 -4 18 -10 21 -5
3 -10 -3 -10 -14z"/>
<path d="M3285 4120 c-3 -5 1 -10 9 -10 9 0 16 5 16 10 0 6 -4 10 -9 10 -6 0
-13 -4 -16 -10z"/>
<path d="M3382 4118 c6 -18 28 -21 28 -4 0 9 -7 16 -16 16 -9 0 -14 -5 -12
-12z"/>
<path d="M3441 4104 c0 -11 3 -14 6 -6 3 7 2 16 -1 19 -3 4 -6 -2 -5 -13z"/>
<path d="M1735 4100 c3 -5 8 -10 11 -10 2 0 4 5 4 10 0 6 -5 10 -11 10 -5 0
-7 -4 -4 -10z"/>
<path d="M1780 4100 c0 -5 5 -10 10 -10 6 0 10 5 10 10 0 6 -4 10 -10 10 -5 0
-10 -4 -10 -10z"/>
<path d="M1750 4060 c0 -5 5 -10 10 -10 6 0 10 5 10 10 0 6 -4 10 -10 10 -5 0
-10 -4 -10 -10z"/>
<path d="M2133 4063 c-13 -2 -23 -9 -23 -14 0 -5 -12 -9 -26 -9 -20 0 -25 -4
-20 -16 3 -9 6 -20 6 -25 0 -5 5 -9 11 -9 6 0 8 7 5 16 -3 8 -2 13 3 10 5 -3
12 1 15 10 3 8 11 12 17 8 6 -3 15 0 20 7 7 11 9 10 9 -3 0 -10 -4 -18 -10
-18 -5 0 -10 -4 -10 -10 0 -5 7 -10 15 -10 10 0 15 11 15 35 0 19 -1 34 -2 34
-2 -1 -13 -4 -25 -6z"/>
<path d="M2180 4060 c0 -5 5 -10 10 -10 6 0 10 5 10 10 0 6 -4 10 -10 10 -5 0
-10 -4 -10 -10z"/>
<path d="M1387 4010 c-3 -13 0 -20 9 -20 8 0 14 9 14 20 0 11 -4 20 -9 20 -5
0 -11 -9 -14 -20z"/>
<path d="M1626 4014 c-4 -10 -1 -14 6 -12 15 5 23 28 10 28 -5 0 -13 -7 -16
-16z"/>
<path d="M3480 4010 c0 -11 5 -20 10 -20 6 0 10 9 10 20 0 11 -4 20 -10 20 -5
0 -10 -9 -10 -20z"/>
<path d="M1865 4010 c-4 -7 -1 -16 6 -21 17 -10 26 8 11 23 -6 6 -12 6 -17 -2z"/>
<path d="M3360 3980 c0 -5 5 -10 10 -10 6 0 10 5 10 10 0 6 -4 10 -10 10 -5 0
-10 -4 -10 -10z"/>
<path d="M3430 3971 c0 -6 5 -13 10 -16 6 -3 10 1 10 9 0 9 -4 16 -10 16 -5 0
-10 -4 -10 -9z"/>
<path d="M1590 3910 c0 -13 5 -20 13 -17 6 2 12 10 12 17 0 7 -6 15 -12 18 -8
2 -13 -5 -13 -18z"/>
<path d="M1630 3880 c0 -5 5 -10 10 -10 6 0 10 5 10 10 0 6 -4 10 -10 10 -5 0
-10 -4 -10 -10z"/>
<path d="M3346 3881 c-4 -7 -5 -15 -2 -18 9 -9 19 4 14 18 -4 11 -6 11 -12 0z"/>
<path d="M1708 3874 c-3 -2 -3 -18 0 -34 3 -25 7 -28 18 -19 18 15 18 45 0 52
-8 3 -16 4 -18 1z"/>
<path d="M3290 3866 c0 -15 18 -31 26 -23 7 7 -7 37 -17 37 -5 0 -9 -6 -9 -14z"/>
<path d="M1393 3844 c-7 -7 -9 -15 -4 -18 5 -3 14 1 20 8 15 18 0 28 -16 10z"/>
<path d="M3370 3840 c0 -5 5 -10 10 -10 6 0 10 5 10 10 0 6 -4 10 -10 10 -5 0
-10 -4 -10 -10z"/>
<path d="M1597 3803 c-12 -11 -8 -23 8 -23 8 0 15 7 15 15 0 16 -12 20 -23 8z"/>
<path d="M3392 3776 c1 -10 8 -17 13 -17 15 1 12 24 -3 29 -9 3 -13 -2 -10
-12z"/>
<path d="M1640 3770 c0 -5 7 -10 15 -10 8 0 15 5 15 10 0 6 -7 10 -15 10 -8 0
-15 -4 -15 -10z"/>
<path d="M3290 3770 c0 -5 4 -10 9 -10 6 0 13 5 16 10 3 6 -1 10 -9 10 -9 0
-16 -4 -16 -10z"/>
<path d="M1745 3750 c-3 -5 -1 -10 4 -10 6 0 11 5 11 10 0 6 -2 10 -4 10 -3 0
-8 -4 -11 -10z"/>
<path d="M1997 3693 c-20 -20 2 -93 28 -93 21 0 20 64 -1 84 -18 18 -18 18
-27 9z"/>
<path d="M3490 3661 c0 -12 5 -21 10 -21 6 0 10 6 10 14 0 8 -4 18 -10 21 -5
3 -10 -3 -10 -14z"/>
<path d="M3370 3636 c0 -9 5 -16 10 -16 6 0 10 4 10 9 0 6 -4 13 -10 16 -5 3
-10 -1 -10 -9z"/>
<path d="M3440 3625 c0 -8 5 -15 10 -15 6 0 10 7 10 15 0 8 -4 15 -10 15 -5 0
-10 -7 -10 -15z"/>
<path d="M1695 3621 c-3 -5 -1 -12 5 -16 5 -3 10 1 10 9 0 18 -6 21 -15 7z"/>
<path d="M1550 3584 c0 -8 5 -12 10 -9 6 4 8 11 5 16 -9 14 -15 11 -15 -7z"/>
<path d="M1606 3564 c-4 -10 -1 -14 6 -12 15 5 23 28 10 28 -5 0 -13 -7 -16
-16z"/>
<path d="M3350 3543 c0 -13 5 -23 10 -23 13 0 13 11 0 30 -8 12 -10 11 -10 -7z"/>
<path d="M1640 3529 c0 -5 5 -7 10 -4 6 3 10 8 10 11 0 2 -4 4 -10 4 -5 0 -10
-5 -10 -11z"/>
<path d="M3312 3510 c0 -14 2 -19 5 -12 2 6 2 18 0 25 -3 6 -5 1 -5 -13z"/>
<path d="M1470 3495 c0 -15 4 -24 10 -20 6 3 10 12 10 20 0 8 -4 17 -10 20 -6
4 -10 -5 -10 -20z"/>
<path d="M1730 3501 c0 -5 5 -13 10 -16 6 -3 10 -2 10 4 0 5 -4 13 -10 16 -5
3 -10 2 -10 -4z"/>
<path d="M3380 3489 c0 -5 5 -7 10 -4 6 3 10 8 10 11 0 2 -4 4 -10 4 -5 0 -10
-5 -10 -11z"/>
<path d="M1610 3456 c0 -9 5 -16 10 -16 6 0 10 4 10 9 0 6 -4 13 -10 16 -5 3
-10 -1 -10 -9z"/>
<path d="M3150 3455 c0 -8 5 -15 10 -15 6 0 10 7 10 15 0 8 -4 15 -10 15 -5 0
-10 -7 -10 -15z"/>
<path d="M3505 3460 c3 -5 8 -10 11 -10 2 0 4 5 4 10 0 6 -5 10 -11 10 -5 0
-7 -4 -4 -10z"/>
<path d="M3405 3437 c-4 -10 -5 -21 -1 -24 10 -10 18 4 13 24 -4 17 -4 17 -12
0z"/>
<path d="M2444 3415 c-30 -31 -30 -50 1 -81 20 -20 23 -29 15 -50 -13 -33 -13
-34 6 -34 9 0 27 26 46 65 28 61 29 67 15 89 -23 35 -55 39 -83 11z m53 -31
c3 -8 1 -20 -5 -26 -15 -15 -43 8 -35 28 7 19 32 18 40 -2z"/>
<path d="M2590 3427 c-23 -11 -25 -19 -28 -82 -2 -57 0 -72 14 -82 25 -18 58
-16 77 5 25 28 23 126 -3 152 -23 23 -27 24 -60 7z m40 -81 c0 -55 -15 -81
-31 -55 -10 16 -12 93 -2 102 3 4 12 7 20 7 9 0 13 -16 13 -54z"/>
<path d="M2182 3418 c-17 -17 -15 -41 3 -35 11 5 15 -7 17 -60 4 -78 23 -96
30 -28 9 72 -2 135 -21 135 -9 0 -22 -5 -29 -12z"/>
<path d="M2300 3415 c-7 -8 -10 -29 -8 -47 3 -18 1 -40 -5 -49 -16 -26 16 -69
51 -69 15 0 32 4 38 8 18 12 27 52 14 67 -9 10 -9 19 0 35 26 48 -55 97 -90
55z m58 -32 c-5 -26 -38 -29 -38 -4 0 15 6 21 21 21 14 0 19 -5 17 -17z m1
-67 c9 -10 8 -16 -4 -26 -21 -17 -51 6 -34 26 6 8 15 14 19 14 4 0 13 -6 19
-14z"/>
<path d="M1650 3410 c0 -5 5 -10 10 -10 6 0 10 5 10 10 0 6 -4 10 -10 10 -5 0
-10 -4 -10 -10z"/>
<path d="M1747 3413 c-4 -3 -7 -13 -7 -20 0 -12 3 -12 15 1 8 8 15 17 15 20 0
8 -15 7 -23 -1z"/>
<path d="M3260 3406 c0 -1 5 -17 11 -35 11 -32 39 -43 39 -16 0 8 -4 15 -9 15
-5 0 -13 9 -16 20 -5 16 -25 29 -25 16z"/>
<path d="M1450 3340 c0 -19 11 -26 23 -14 8 8 -3 34 -14 34 -5 0 -9 -9 -9 -20z"/>
<path d="M1550 3246 c0 -8 5 -18 10 -21 6 -3 10 1 10 9 0 8 -4 18 -10 21 -5 3
-10 -1 -10 -9z"/>
<path d="M3400 3196 c0 -8 5 -18 10 -21 6 -3 10 3 10 14 0 12 -4 21 -10 21 -5
0 -10 -6 -10 -14z"/>
<path d="M1478 3144 c3 -17 8 -22 15 -15 11 11 3 41 -11 41 -5 0 -7 -12 -4
-26z"/>
<path d="M1390 3150 c0 -5 5 -10 10 -10 6 0 10 5 10 10 0 6 -4 10 -10 10 -5 0
-10 -4 -10 -10z"/>
<path d="M2906 2654 c-18 -55 -21 -130 -5 -171 l11 -28 14 40 c30 81 34 101
28 142 -10 66 -29 73 -48 17z"/>
<path d="M2168 2668 c-36 -35 -38 -86 -4 -125 13 -15 27 -25 31 -22 3 4 5 44
3 90 l-3 84 -27 -27z"/>
<path d="M2191 1931 c-9 -6 -10 -11 -2 -15 6 -4 11 -5 11 -1 0 3 9 1 20 -5 19
-10 20 -10 8 9 -14 23 -17 24 -37 12z"/>
<path d="M2537 1823 c-5 -8 -10 -51 -8 -68 1 -5 6 -3 11 5 9 13 11 13 19 0 6
-8 13 -11 18 -7 4 5 1 12 -7 18 -13 8 -13 10 -1 18 12 8 12 12 2 25 -15 17
-27 20 -34 9z m28 -23 c-3 -5 -10 -10 -16 -10 -5 0 -9 5 -9 10 0 6 7 10 16 10
8 0 12 -4 9 -10z"/>
<path d="M2607 1823 c-4 -3 -7 -21 -7 -40 0 -30 3 -33 28 -32 16 1 20 3 10 6
-19 5 -25 23 -8 23 17 0 11 18 -7 23 -14 4 -12 5 5 6 12 0 22 6 22 11 0 11
-33 14 -43 3z"/>
<path d="M2671 1790 c1 -25 3 -37 6 -28 5 19 42 21 55 3 4 -5 8 8 7 30 0 39 0
39 -16 18 l-15 -23 -19 23 -18 22 0 -45z"/>
<path d="M2760 1796 c0 -20 5 -36 10 -36 6 0 10 13 10 29 0 17 -4 33 -10 36
-6 4 -10 -8 -10 -29z"/>
<path d="M2841 1803 c-1 -38 -27 -46 -34 -10 -4 21 -4 21 -6 1 0 -12 5 -27 13
-33 19 -16 39 10 33 46 -4 27 -4 27 -6 -4z"/>
<path d="M2882 1804 c-1 -15 2 -22 8 -19 12 7 13 32 2 39 -4 2 -9 -7 -10 -20z"/>
<path d="M2930 1819 c0 -5 5 -7 10 -4 6 3 10 8 10 11 0 2 -4 4 -10 4 -5 0 -10
-5 -10 -11z"/>
<path d="M2200 1809 c0 -5 5 -7 10 -4 6 3 10 8 10 11 0 2 -4 4 -10 4 -5 0 -10
-5 -10 -11z"/>
<path d="M2273 1813 c12 -3 16 -10 13 -20 -5 -13 -4 -14 9 -3 23 19 18 30 -12
29 -19 -1 -22 -3 -10 -6z"/>
<path d="M2343 1790 c-11 -28 -10 -30 7 -25 10 3 21 1 25 -5 3 -5 11 -10 18
-10 8 0 8 3 -1 12 -7 7 -12 22 -12 35 0 33 -24 28 -37 -7z m27 0 c0 -5 -5 -10
-11 -10 -5 0 -7 5 -4 10 3 6 8 10 11 10 2 0 4 -4 4 -10z"/>
<path d="M2448 1783 c3 -21 7 -32 10 -25 2 7 15 18 29 23 32 12 25 33 -13 37
-29 3 -30 2 -26 -35z m42 17 c0 -5 -7 -10 -15 -10 -8 0 -15 5 -15 10 0 6 7 10
15 10 8 0 15 -4 15 -10z"/>
<path d="M2146 1791 c-4 -7 -5 -15 -2 -18 9 -9 19 4 14 18 -4 11 -6 11 -12 0z"/>
<path d="M2270 1759 c0 -5 9 -9 20 -9 11 0 20 2 20 4 0 2 -9 6 -20 9 -11 3
-20 1 -20 -4z"/>
<path d="M2244 1665 c-4 -8 -11 -12 -17 -8 -5 3 -7 1 -4 -4 4 -6 -3 -19 -14
-29 -30 -27 -61 -82 -54 -94 4 -7 14 1 23 19 10 17 34 53 54 81 21 27 33 50
28 50 -6 0 -13 -7 -16 -15z"/>
<path d="M2293 1660 c-3 -11 -9 -20 -13 -20 -12 0 -70 -91 -70 -109 0 -9 10 0
21 19 12 19 39 56 61 83 30 35 36 47 23 47 -9 0 -19 -9 -22 -20z"/>
<path d="M2688 1653 c-16 -27 -30 -47 -75 -102 l-21 -27 24 -2 c14 -1 23 2 19
7 -3 5 15 39 40 74 25 36 45 68 45 71 0 15 -17 4 -32 -21z"/>
<path d="M2473 1633 c-15 -21 -38 -49 -50 -63 -22 -23 -34 -66 -14 -44 23 23
101 128 101 136 0 15 -9 8 -37 -29z"/>
<path d="M2587 1633 c-4 -3 -7 -11 -7 -17 0 -6 5 -5 12 2 6 6 9 14 7 17 -3 3
-9 2 -12 -2z"/>
<path d="M2288 1577 c-37 -26 -45 -42 -23 -51 9 -3 14 -2 11 3 -3 4 8 20 23
35 16 15 31 24 34 19 3 -5 -3 -17 -14 -26 -11 -10 -17 -22 -13 -29 4 -7 10 -4
17 8 5 11 16 26 24 35 23 27 -21 31 -59 6z"/>
<path d="M2371 1564 c-23 -29 -27 -44 -11 -44 6 0 10 4 10 9 0 4 11 20 25 35
16 17 19 26 10 26 -7 0 -23 -12 -34 -26z"/>
<path d="M2457 1555 c-18 -23 -23 -35 -14 -35 16 0 41 26 50 53 10 28 -6 20
-36 -18z"/>
<path d="M2516 1581 c-4 -6 -2 -11 4 -11 8 0 8 -6 0 -21 -7 -11 -9 -23 -6 -27
3 -3 7 -3 9 -1 1 2 12 19 25 37 12 17 18 32 13 32 -5 0 -13 -5 -17 -11 -5 -8
-9 -8 -14 1 -5 9 -9 9 -14 1z"/>
<path d="M2576 1563 c-19 -20 -22 -29 -13 -35 7 -4 14 -2 16 5 2 7 13 22 24
35 11 12 15 22 9 22 -6 0 -22 -12 -36 -27z"/>
<path d="M3256 1682 c-3 -6 -1 -14 5 -17 15 -10 25 3 12 16 -7 7 -13 7 -17 1z"/>
<path d="M3170 1615 c-9 -11 -10 -19 -3 -26 7 -7 14 -5 23 6 9 11 10 19 3 26
-7 7 -14 5 -23 -6z"/>
<path d="M2065 1360 c-10 -17 12 -37 25 -24 8 8 6 15 -4 23 -10 9 -16 9 -21 1z"/>
<path d="M1686 1175 c-10 -26 -7 -35 9 -35 17 0 19 18 6 38 -7 11 -10 10 -15
-3z"/>
<path d="M1734 1144 c-4 -10 -9 -22 -11 -26 -2 -5 0 -8 6 -8 11 0 26 39 17 47
-3 3 -9 -3 -12 -13z"/>
<path d="M1665 690 c3 -5 8 -10 11 -10 2 0 4 5 4 10 0 6 -5 10 -11 10 -5 0 -7
-4 -4 -10z"/>
<path d="M1710 610 c0 -5 5 -10 11 -10 5 0 7 5 4 10 -3 6 -8 10 -11 10 -2 0
-4 -4 -4 -10z"/>
<path d="M1600 598 c0 -4 4 -8 9 -8 6 0 12 4 15 8 3 5 -1 9 -9 9 -8 0 -15 -4
-15 -9z"/>
<path d="M1680 600 c0 -5 5 -10 11 -10 5 0 7 5 4 10 -3 6 -8 10 -11 10 -2 0
-4 -4 -4 -10z"/>
<path d="M562 7290 c0 -14 2 -19 5 -12 2 6 2 18 0 25 -3 6 -5 1 -5 -13z"/>
<path d="M7540 5694 c0 -8 5 -12 10 -9 6 3 10 10 10 16 0 5 -4 9 -10 9 -5 0
-10 -7 -10 -16z"/>
<path d="M6154 5542 c-6 -4 -11 -34 -11 -67 0 -33 -2 -89 -6 -125 -3 -36 -3
-51 1 -35 6 24 9 27 14 13 9 -22 0 -48 -16 -48 -7 0 -12 -30 -14 -86 -2 -64 1
-84 9 -78 9 5 10 -4 5 -37 -4 -24 -12 -47 -18 -50 -9 -6 -8 -12 1 -23 9 -11
10 -16 2 -16 -6 0 -11 -5 -11 -11 0 -6 6 -9 14 -6 10 4 12 0 9 -14 -3 -10 -9
-17 -13 -14 -4 3 -10 -2 -14 -10 -9 -26 -29 -17 -22 9 3 14 1 28 -5 32 -9 5
-10 -9 -7 -51 4 -44 10 -63 26 -76 27 -21 28 -45 4 -51 -24 -7 -24 -38 -1 -38
22 0 33 -16 17 -26 -6 -4 -14 -2 -16 4 -4 14 -32 16 -32 3 0 -6 5 -13 11 -17
8 -5 8 -8 0 -13 -15 -10 -25 -126 -23 -286 1 -49 1 -105 1 -123 0 -18 5 -39
11 -47 9 -11 7 -12 -9 -8 -16 4 -21 1 -21 -16 0 -11 4 -21 9 -21 5 0 11 -24
13 -54 1 -30 1 -53 -1 -50 -5 4 -30 -27 -31 -38 0 -16 19 -8 24 10 3 9 2 -3
-1 -28 -4 -25 -6 -60 -5 -77 0 -18 -4 -33 -9 -33 -6 0 -7 6 -3 13 3 6 -5 -1
-20 -18 -26 -31 -33 -55 -16 -55 6 0 10 5 10 11 0 11 24 39 34 39 3 0 6 -22 6
-50 0 -27 -4 -50 -10 -50 -5 0 -10 -13 -10 -30 0 -16 4 -30 10 -30 6 0 5 -10
-2 -25 -9 -19 -8 -31 2 -49 8 -16 10 -35 5 -53 -12 -44 -15 -126 -4 -139 12
-15 1 -42 -22 -55 -11 -5 -19 -19 -19 -31 0 -16 5 -19 25 -16 14 3 25 1 25 -3
0 -5 -5 -9 -11 -9 -6 0 -8 -9 -4 -21 4 -12 8 -28 9 -35 1 -7 5 -17 9 -20 13
-13 7 -26 -8 -20 -10 3 -15 -1 -15 -14 0 -16 25 -33 52 -35 3 0 10 -4 15 -9 5
-5 3 -6 -4 -2 -9 5 -13 0 -13 -16 l-1 -23 -13 24 c-8 14 -16 19 -20 13 -3 -6
-2 -13 4 -17 6 -4 8 -11 4 -16 -4 -6 -11 -6 -20 2 -10 9 -14 9 -14 0 0 -6 6
-14 14 -17 8 -3 13 -14 11 -24 -2 -12 4 -20 17 -23 11 -3 17 -10 13 -16 -3 -6
-10 -9 -15 -6 -5 3 -12 0 -15 -5 -5 -7 -12 -5 -22 7 -13 17 -14 17 -9 1 6 -21
2 -22 -25 -8 -24 13 -24 9 0 -35 16 -30 20 -33 31 -20 7 8 9 15 4 15 -4 0 1 6
11 14 11 8 23 12 27 10 5 -3 8 0 8 5 0 6 5 11 10 11 6 0 10 -7 10 -15 0 -14
-12 -19 -32 -16 -5 0 -8 -8 -8 -18 0 -11 -6 -21 -12 -24 -7 -2 -10 -7 -7 -11
4 -4 14 1 23 10 9 9 19 14 22 11 3 -2 -3 -12 -12 -21 -11 -12 -14 -26 -11 -46
5 -22 2 -30 -11 -33 -16 -4 -15 -5 1 -6 17 -1 43 -48 33 -59 -3 -3 -14 6 -25
19 -17 20 -20 21 -21 7 0 -10 -4 -18 -10 -18 -5 0 -10 -5 -10 -12 0 -9 3 -9
12 0 16 16 28 15 28 -3 0 -8 8 -30 17 -50 14 -29 14 -37 4 -48 -11 -10 -13 -9
-9 3 3 8 -2 21 -9 29 -21 21 -28 5 -9 -23 22 -34 20 -56 -4 -56 -11 0 -20 -5
-20 -10 0 -6 11 -8 25 -4 15 4 25 2 25 -5 0 -6 -8 -8 -17 -4 -17 6 -17 5 0
-14 22 -25 22 -33 -2 -33 -20 0 -21 -8 -3 -53 7 -16 12 -33 12 -38 0 -5 5 -9
10 -9 6 0 10 -7 10 -15 0 -8 -4 -15 -10 -15 -5 0 -10 -6 -10 -14 0 -8 6 -14
13 -13 33 1 47 -4 47 -18 0 -21 12 -19 33 5 22 26 21 29 -4 23 -18 -5 -20 -3
-14 15 3 12 3 27 -2 34 -5 9 -10 3 -14 -17 l-6 -30 -14 30 c-7 17 -18 33 -24
38 -17 12 23 35 62 35 38 0 63 15 44 26 -6 4 -11 14 -11 23 0 13 2 13 16 2 14
-12 16 -11 12 6 -3 16 -11 19 -37 17 -27 -2 -32 1 -27 14 3 8 6 18 6 20 0 2 5
4 10 4 6 0 21 10 33 21 l22 22 -28 -7 c-42 -10 -97 25 -97 61 0 3 8 3 19 0 10
-2 26 0 35 5 11 6 21 4 32 -7 12 -12 19 -13 30 -4 8 6 14 17 14 23 0 6 -4 4
-10 -4 -8 -12 -10 -12 -16 3 -3 10 -17 17 -33 17 -24 1 -23 2 13 20 31 16 42
17 48 8 7 -12 12 -68 9 -97 -2 -9 4 -7 18 6 20 18 27 83 9 83 -4 0 -8 13 -8
29 0 16 -6 31 -15 35 -8 3 -15 1 -15 -4 0 -6 5 -10 10 -10 6 0 10 -6 10 -12 0
-7 -13 -13 -30 -14 -34 -1 -36 3 -15 30 8 11 15 28 15 38 0 10 5 18 10 18 6 0
10 5 10 12 0 6 -14 -1 -30 -17 -17 -16 -28 -35 -25 -42 2 -8 -2 -16 -9 -19 -8
-3 -12 -14 -9 -27 4 -21 4 -21 -11 -3 -8 10 -13 23 -10 27 3 5 -4 9 -15 9 -14
0 -21 6 -21 19 0 11 -6 22 -12 24 -7 3 1 3 18 0 28 -4 34 -1 54 32 15 24 26
33 32 27 6 -6 16 -8 23 -6 7 3 16 1 20 -5 3 -6 11 -11 18 -11 15 0 -3 18 -35
34 -16 8 -23 20 -23 39 1 15 -5 27 -11 27 -7 0 -14 5 -16 11 -2 6 -16 12 -31
12 -37 3 -34 24 3 24 18 0 30 -6 30 -14 0 -18 27 -16 34 3 4 10 13 13 26 9 17
-5 20 -2 19 22 0 15 -3 22 -6 16 -6 -16 -53 -17 -53 -2 0 6 7 9 15 5 9 -3 15
0 15 9 0 9 -6 12 -15 9 -10 -4 -15 0 -15 16 0 11 -4 19 -9 15 -16 -9 -22 12
-7 24 10 8 16 9 21 1 12 -19 25 -10 40 27 21 50 14 64 -27 56 -18 -3 -39 -10
-45 -16 -9 -7 -13 -5 -13 6 0 10 15 21 41 28 22 7 46 20 53 30 9 14 11 96 7
346 -2 180 -5 380 -5 445 -1 64 -4 114 -8 111 -5 -2 -8 0 -8 6 0 5 5 13 11 16
6 5 8 26 4 60 -5 35 -3 55 4 60 9 5 9 10 1 20 -8 10 -13 109 -16 307 -6 449
-13 658 -24 679 -6 10 -7 19 -2 19 5 0 9 17 10 38 1 32 -1 38 -21 39 -12 2
-27 -1 -33 -5z m26 -96 c0 -3 -4 -8 -10 -11 -5 -3 -10 -1 -10 4 0 6 5 11 10
11 6 0 10 -2 10 -4z m0 -490 c0 -8 -4 -18 -10 -21 -5 -3 -10 -4 -10 -1 0 2 -3
11 -6 20 -4 11 -1 16 10 16 9 0 16 -6 16 -14z m-40 -41 c0 -8 -4 -15 -10 -15
-5 0 -7 7 -4 15 4 8 8 15 10 15 2 0 4 -7 4 -15z m10 -51 c0 -8 -7 -14 -15 -14
-15 0 -21 21 -9 33 10 9 24 -2 24 -19z m-30 -164 c0 -5 -4 -10 -10 -10 -5 0
-10 5 -10 10 0 6 5 10 10 10 6 0 10 -4 10 -10z m-20 -40 c0 -5 -4 -10 -10 -10
-5 0 -10 5 -10 10 0 6 5 10 10 10 6 0 10 -4 10 -10z m14 -97 c-1 -15 3 -31 9
-35 8 -5 7 -8 -4 -8 -20 0 -32 39 -17 57 15 18 16 17 12 -14z m33 -98 c0 -8
-4 -15 -9 -15 -10 0 -11 14 -1 23 9 10 10 9 10 -8z m-32 -285 c3 -5 1 -10 -4
-10 -6 0 -11 5 -11 10 0 6 2 10 4 10 3 0 8 -4 11 -10z m65 -81 c0 -6 -4 -7
-10 -4 -5 3 -10 11 -10 16 0 6 5 7 10 4 6 -3 10 -11 10 -16z m-102 -99 c-15
-23 -28 -17 -21 9 3 11 11 17 19 14 10 -4 11 -9 2 -23z m122 -1 c0 -5 -4 -9
-10 -9 -5 0 -10 7 -10 16 0 8 5 12 10 9 6 -3 10 -10 10 -16z m-136 -201 c10
-39 7 -44 -9 -14 -17 33 -18 36 -6 36 5 0 11 -10 15 -22z m0 -63 c-7 -16 -24
-21 -24 -6 0 8 7 13 27 20 1 1 0 -6 -3 -14z m106 -95 c0 -5 -2 -10 -4 -10 -3
0 -8 5 -11 10 -3 6 -1 10 4 10 6 0 11 -4 11 -10z m-70 -119 c0 -5 -7 -11 -14
-14 -10 -4 -13 -1 -9 9 6 15 23 19 23 5z m90 -16 c7 -8 20 -15 29 -16 9 -1 5
-4 -9 -8 -17 -5 -29 -2 -37 8 -24 30 -7 45 17 16z m-40 -65 c0 -5 -2 -10 -4
-10 -3 0 -8 5 -11 10 -3 6 -1 10 4 10 6 0 11 -4 11 -10z m80 -16 c0 -8 -4 -12
-10 -9 -5 3 -10 13 -10 21 0 8 5 12 10 9 6 -3 10 -13 10 -21z m-190 6 c0 -5
-4 -10 -10 -10 -5 0 -10 5 -10 10 0 6 5 10 10 10 6 0 10 -4 10 -10z m159 -14
c10 -12 8 -13 -8 -9 -12 3 -21 9 -21 14 0 14 16 11 29 -5z m-44 -16 c-3 -5
-14 -10 -23 -9 -14 0 -13 2 3 9 27 11 27 11 20 0z m-55 -50 c0 -5 -4 -10 -10
-10 -5 0 -10 5 -10 10 0 6 5 10 10 10 6 0 10 -4 10 -10z m130 -20 c0 -5 -8
-10 -18 -10 -10 0 -23 -5 -30 -12 -9 -9 -15 -9 -24 0 -12 12 -7 16 37 25 33 8
35 7 35 -3z m-120 -34 c0 -11 -19 -15 -25 -6 -3 5 1 10 9 10 9 0 16 -2 16 -4z
m25 -56 c-3 -5 -12 -10 -18 -10 -7 0 -6 4 3 10 19 12 23 12 15 0z m-25 -34 c0
-3 -4 -8 -10 -11 -5 -3 -10 -1 -10 4 0 6 5 11 10 11 6 0 10 -2 10 -4z m-25
-26 c3 -6 -1 -7 -9 -4 -18 7 -21 14 -7 14 6 0 13 -4 16 -10z m69 -109 c-4 -20
-3 -23 5 -11 7 9 11 10 11 3 0 -20 -16 -23 -36 -7 -10 9 -13 12 -5 8 10 -5 11
-1 7 13 -4 14 -2 20 9 20 10 0 13 -7 9 -26z m-27 -77 c-3 -3 -12 -4 -19 -1 -8
3 -5 6 6 6 11 1 17 -2 13 -5z m-50 -156 c-3 -8 -6 -5 -6 6 -1 11 2 17 5 13 3
-3 4 -12 1 -19z m44 -73 c16 -9 27 -20 24 -25 -8 -13 -45 -13 -45 0 0 5 -6 7
-14 4 -11 -4 -13 0 -9 15 6 25 6 25 44 6z m4 -55 c-3 -5 -16 -10 -28 -9 -21 0
-21 1 -2 9 28 12 37 12 30 0z m-30 -29 c3 -5 1 -12 -5 -16 -5 -3 -10 1 -10 9
0 18 6 21 15 7z m29 -26 c-4 -8 -10 -12 -15 -9 -11 6 -2 24 11 24 5 0 7 -7 4
-15z m29 -10 c-7 -21 -13 -19 -13 6 0 11 4 18 10 14 5 -3 7 -12 3 -20z"/>
<path d="M4050 5470 c0 -5 5 -10 10 -10 6 0 10 5 10 10 0 6 -4 10 -10 10 -5 0
-10 -4 -10 -10z"/>
<path d="M5085 5450 c-26 -27 -27 -31 -12 -43 11 -8 18 -35 23 -89 7 -86 1
-128 -21 -128 -11 0 -15 19 -17 88 l-3 87 -50 3 c-97 6 -165 -48 -165 -130 0
-37 -13 -51 -23 -25 -2 7 -5 57 -6 111 -1 54 -6 107 -12 117 -12 23 -56 25
-87 3 -20 -14 -24 -14 -44 0 -29 21 -67 20 -89 0 -17 -15 -20 -15 -43 0 -35
22 -60 20 -93 -8 -27 -23 -27 -25 -10 -43 14 -16 17 -39 17 -137 0 -109 1
-117 21 -124 12 -5 34 -6 50 -4 l29 4 0 130 c0 99 3 129 13 126 8 -3 14 -42
17 -129 l5 -124 48 -3 47 -3 0 131 c0 101 3 131 13 128 8 -3 14 -39 17 -115 3
-72 10 -116 19 -126 18 -23 60 -21 91 3 26 21 50 26 50 11 0 -5 13 -14 29 -21
23 -9 33 -9 50 2 17 10 25 10 41 0 29 -18 54 -15 75 8 18 20 30 19 30 -3 0
-17 76 -21 86 -5 5 7 9 44 9 82 0 60 2 67 15 56 10 -8 15 -31 15 -66 0 -60 17
-84 58 -84 14 0 36 9 48 21 l21 20 38 -25 c38 -26 54 -26 112 -5 29 11 63 78
63 124 0 19 5 35 10 35 6 0 10 -29 10 -68 0 -54 4 -72 18 -85 24 -22 60 -22
83 -1 17 15 20 15 43 0 34 -22 59 -20 82 5 18 20 18 22 1 34 -14 10 -17 28
-17 99 l0 86 -45 0 -44 0 -3 -92 c-4 -118 -22 -123 -26 -8 -2 65 -6 88 -19 98
-23 17 -27 16 -61 -13 l-30 -25 -44 19 c-80 34 -102 35 -136 6 -36 -30 -55
-80 -50 -132 2 -22 -2 -38 -9 -40 -10 -4 -13 17 -13 80 0 69 -3 87 -18 100
-25 23 -31 22 -64 -10 -15 -14 -30 -25 -32 -22 -2 2 -5 22 -7 44 -3 43 -24 95
-38 95 -5 0 -16 2 -23 5 -8 3 -27 -8 -43 -25z m-115 -196 c0 -31 -4 -44 -14
-44 -25 0 -36 66 -14 88 18 18 28 4 28 -44z m500 11 c0 -39 -19 -87 -31 -79
-12 7 -11 81 2 105 14 27 29 14 29 -26z"/>
<path d="M6072 5180 c0 -14 2 -19 5 -12 2 6 2 18 0 25 -3 6 -5 1 -5 -13z"/>
<path d="M4266 5162 c-4 -13 -5 -26 -2 -29 10 -11 18 4 14 29 l-4 23 -8 -23z"/>
<path d="M4010 5144 c0 -8 5 -12 10 -9 6 3 10 10 10 16 0 5 -4 9 -10 9 -5 0
-10 -7 -10 -16z"/>
<path d="M6053 5070 c4 -15 0 -20 -14 -20 -14 0 -19 -7 -19 -25 0 -14 5 -25
10 -25 6 0 10 6 10 14 0 7 7 19 15 26 17 14 20 50 4 50 -6 0 -9 -9 -6 -20z"/>
<path d="M4532 5038 c-31 -31 -4 -69 48 -67 l35 2 -35 6 c-29 5 -35 10 -35 30
0 19 6 24 29 27 41 4 45 14 5 14 -19 0 -40 -5 -47 -12z"/>
<path d="M4684 5036 c-3 -8 -4 -25 -2 -38 2 -19 9 -23 43 -24 32 -1 34 -1 8 3
-36 5 -46 23 -13 23 11 0 20 5 20 10 0 6 -9 10 -21 10 -12 0 -17 4 -13 11 3 6
17 8 30 5 14 -4 24 -2 24 4 0 16 -70 12 -76 -4z"/>
<path d="M4830 5015 c0 -36 5 -41 29 -26 10 6 22 5 35 -5 11 -8 25 -14 31 -14
5 0 4 4 -3 9 -12 7 -12 12 0 30 17 28 0 41 -54 41 -37 0 -38 -1 -38 -35z m74
4 c-7 -12 -54 -12 -54 0 0 11 30 19 47 13 7 -2 10 -8 7 -13z"/>
<path d="M4990 5042 c0 -18 38 -72 51 -72 10 0 49 59 49 75 0 6 -14 -6 -30
-25 -16 -19 -30 -30 -30 -25 -1 16 -40 61 -40 47z"/>
<path d="M5154 5035 c-4 -8 -3 -26 0 -40 6 -22 11 -25 49 -23 l42 1 -37 4
c-39 4 -54 23 -18 23 27 0 25 18 -2 23 -17 3 -15 5 9 6 48 2 51 21 3 21 -27 0
-43 -5 -46 -15z"/>
<path d="M5305 5040 c3 -5 12 -7 19 -4 22 9 29 -14 7 -25 -10 -6 -21 -17 -25
-26 -4 -12 4 -15 47 -14 46 1 48 2 17 8 l-35 6 28 24 c15 14 27 28 27 33 0 4
-21 8 -46 8 -26 0 -43 -4 -39 -10z"/>
<path d="M5477 5015 c-9 -20 -17 -37 -17 -38 0 -1 23 -2 50 -2 28 0 50 1 50 2
0 12 -45 73 -54 73 -7 0 -20 -16 -29 -35z m43 -5 c0 -5 -7 -10 -16 -10 -8 0
-12 5 -9 10 3 6 10 10 16 10 5 0 9 -4 9 -10z"/>
<path d="M5624 5035 c-9 -22 4 -35 37 -35 16 0 29 -5 29 -11 0 -7 -12 -9 -30
-7 -17 3 -33 1 -36 -4 -3 -4 15 -8 40 -8 39 0 46 3 46 20 0 13 -9 22 -27 26
-45 9 -49 12 -25 14 37 4 40 5 48 13 4 4 -12 7 -35 7 -27 0 -44 -5 -47 -15z"/>
<path d="M4082 4969 c2 -18 9 -34 16 -37 10 -3 13 5 10 29 -2 18 -9 34 -16 37
-10 3 -13 -5 -10 -29z"/>
<path d="M6000 4780 c0 -5 5 -10 10 -10 6 0 10 5 10 10 0 6 -4 10 -10 10 -5 0
-10 -4 -10 -10z"/>
<path d="M5791 4757 c2 -1 15 -11 28 -22 l24 -20 -12 23 c-6 12 -19 22 -28 22
-9 0 -14 -1 -12 -3z"/>
<path d="M6030 4740 c0 -5 5 -10 10 -10 6 0 10 5 10 10 0 6 -4 10 -10 10 -5 0
-10 -4 -10 -10z"/>
<path d="M4264 4529 c-1 -16 3 -29 7 -29 11 0 12 47 2 53 -5 3 -8 -8 -9 -24z"/>
<path d="M5992 4540 c0 -14 2 -19 5 -12 2 6 2 18 0 25 -3 6 -5 1 -5 -13z"/>
<path d="M4181 4504 c0 -11 3 -14 6 -6 3 7 2 16 -1 19 -3 4 -6 -2 -5 -13z"/>
<path d="M6012 4438 c-14 -14 -16 -48 -3 -48 5 0 11 8 15 18 3 9 9 23 12 30 7
15 -8 16 -24 0z"/>
<path d="M4171 4414 c0 -11 3 -14 6 -6 3 7 2 16 -1 19 -3 4 -6 -2 -5 -13z"/>
<path d="M4101 4394 c0 -11 3 -14 6 -6 3 7 2 16 -1 19 -3 4 -6 -2 -5 -13z"/>
<path d="M5750 4405 c0 -3 7 -14 16 -23 15 -14 16 -14 13 3 -4 17 -29 35 -29
20z"/>
<path d="M6045 4391 c-3 -5 -1 -12 5 -16 5 -3 10 1 10 9 0 18 -6 21 -15 7z"/>
<path d="M5980 4335 c0 -8 5 -15 10 -15 6 0 10 7 10 15 0 8 -4 15 -10 15 -5 0
-10 -7 -10 -15z"/>
<path d="M5610 4256 c0 -2 7 -7 16 -10 8 -3 12 -2 9 4 -6 10 -25 14 -25 6z"/>
<path d="M5981 4194 c0 -11 3 -14 6 -6 3 7 2 16 -1 19 -3 4 -6 -2 -5 -13z"/>
<path d="M4238 4175 c-3 -14 -1 -25 3 -25 5 0 9 11 9 25 0 14 -2 25 -4 25 -2
0 -6 -11 -8 -25z"/>
<path d="M5922 4180 c0 -14 2 -19 5 -12 2 6 2 18 0 25 -3 6 -5 1 -5 -13z"/>
<path d="M6257 4053 c-10 -9 -9 -23 2 -23 5 0 11 7 15 15 5 15 -5 20 -17 8z"/>
<path d="M6010 4030 c0 -5 5 -10 10 -10 6 0 10 5 10 10 0 6 -4 10 -10 10 -5 0
-10 -4 -10 -10z"/>
<path d="M4110 3960 c0 -11 5 -20 10 -20 6 0 10 9 10 20 0 11 -4 20 -10 20 -5
0 -10 -9 -10 -20z"/>
<path d="M5991 3844 c0 -11 3 -14 6 -6 3 7 2 16 -1 19 -3 4 -6 -2 -5 -13z"/>
<path d="M4147 3804 c-3 -3 -2 -16 3 -29 5 -13 6 -26 3 -29 -4 -3 1 -6 10 -6
18 0 20 11 11 48 -6 22 -15 27 -27 16z"/>
<path d="M5546 3793 c5 -5 12 -12 16 -18 4 -6 8 -2 8 8 0 9 -7 17 -17 17 -9 0
-12 -3 -7 -7z"/>
<path d="M5981 3764 c0 -11 3 -14 6 -6 3 7 2 16 -1 19 -3 4 -6 -2 -5 -13z"/>
<path d="M6260 3744 c0 -8 5 -12 10 -9 6 4 8 11 5 16 -9 14 -15 11 -15 -7z"/>
<path d="M5970 3500 c0 -11 5 -20 10 -20 6 0 10 9 10 20 0 11 -4 20 -10 20 -5
0 -10 -9 -10 -20z"/>
<path d="M6000 3510 c0 -5 5 -10 11 -10 5 0 7 5 4 10 -3 6 -8 10 -11 10 -2 0
-4 -4 -4 -10z"/>
<path d="M4272 3460 c0 -14 2 -19 5 -12 2 6 2 18 0 25 -3 6 -5 1 -5 -13z"/>
<path d="M5997 3379 c7 -7 15 -10 18 -7 3 3 -2 9 -12 12 -14 6 -15 5 -6 -5z"/>
<path d="M5995 3340 c-3 -5 -2 -10 4 -10 5 0 13 5 16 10 3 6 2 10 -4 10 -5 0
-13 -4 -16 -10z"/>
<path d="M6008 3313 c7 -3 16 -2 19 1 4 3 -2 6 -13 5 -11 0 -14 -3 -6 -6z"/>
<path d="M5996 3215 c-9 -26 -7 -32 5 -12 6 10 9 21 6 23 -2 3 -7 -2 -11 -11z"/>
<path d="M4074 3206 c-8 -21 -1 -61 11 -59 13 3 17 60 5 68 -6 4 -13 0 -16 -9z"/>
<path d="M5480 3186 c0 -2 12 -11 26 -21 17 -11 25 -12 22 -4 -4 11 -48 34
-48 25z"/>
<path d="M5990 3166 c0 -2 9 -6 20 -9 11 -3 20 -1 20 4 0 5 -9 9 -20 9 -11 0
-20 -2 -20 -4z"/>
<path d="M6207 3093 c-11 -13 -16 -27 -12 -31 4 -4 10 -1 12 6 3 6 13 12 24
12 10 0 19 5 19 11 0 5 -4 8 -9 4 -5 -3 -11 1 -13 9 -2 10 -8 7 -21 -11z"/>
<path d="M4130 3103 c0 -5 5 -15 10 -23 8 -12 10 -11 10 8 0 12 -4 22 -10 22
-5 0 -10 -3 -10 -7z"/>
<path d="M5960 3034 c0 -8 5 -12 10 -9 6 3 10 10 10 16 0 5 -4 9 -10 9 -5 0
-10 -7 -10 -16z"/>
<path d="M6025 2990 c3 -5 8 -10 11 -10 2 0 4 5 4 10 0 6 -5 10 -11 10 -5 0
-7 -4 -4 -10z"/>
<path d="M5980 2980 c0 -5 7 -10 15 -10 8 0 15 5 15 10 0 6 -7 10 -15 10 -8 0
-15 -4 -15 -10z"/>
<path d="M6143 2974 c-20 -21 -16 -42 3 -22 9 9 15 21 13 26 -2 6 -9 4 -16 -4z"/>
<path d="M5965 2930 c3 -5 8 -10 11 -10 2 0 4 5 4 10 0 6 -5 10 -11 10 -5 0
-7 -4 -4 -10z"/>
<path d="M4130 2910 c0 -5 5 -10 11 -10 5 0 7 5 4 10 -3 6 -8 10 -11 10 -2 0
-4 -4 -4 -10z"/>
<path d="M6117 2814 c-11 -12 3 -24 29 -24 13 0 24 5 24 11 0 6 -6 9 -14 6 -7
-3 -18 -1 -23 4 -5 5 -12 6 -16 3z"/>
<path d="M4235 2774 c-14 -66 -14 -66 0 -54 16 13 24 55 14 71 -5 9 -10 3 -14
-17z"/>
<path d="M5980 2788 c0 -10 4 -18 9 -18 5 0 18 -3 28 -6 15 -5 15 -3 -2 7 -11
7 -23 17 -27 23 -5 7 -8 4 -8 -6z"/>
<path d="M4140 2765 c0 -8 4 -15 10 -15 5 0 7 7 4 15 -4 8 -8 15 -10 15 -2 0
-4 -7 -4 -15z"/>
<path d="M5980 2751 c0 -6 4 -12 8 -15 5 -3 9 1 9 9 0 8 -4 15 -9 15 -4 0 -8
-4 -8 -9z"/>
<path d="M5971 2714 c0 -11 3 -14 6 -6 3 7 2 16 -1 19 -3 4 -6 -2 -5 -13z"/>
<path d="M6005 2650 c-3 -5 -1 -10 4 -10 6 0 11 5 11 10 0 6 -2 10 -4 10 -3 0
-8 -4 -11 -10z"/>
<path d="M6140 2587 c0 -14 7 -28 16 -31 12 -5 15 0 12 21 -4 35 -28 43 -28
10z"/>
<path d="M6020 2580 c0 -5 5 -10 10 -10 6 0 10 5 10 10 0 6 -4 10 -10 10 -5 0
-10 -4 -10 -10z"/>
<path d="M6072 2474 c-10 -11 -11 -18 -3 -28 6 -7 9 -21 5 -30 -5 -13 0 -16
25 -16 17 0 31 5 31 10 0 6 -9 10 -19 10 -10 0 -22 7 -25 16 -9 24 -8 26 15
14 20 -11 20 -11 4 14 -10 14 -18 26 -19 26 0 -1 -7 -8 -14 -16z"/>
<path d="M6161 2474 c0 -11 3 -14 6 -6 3 7 2 16 -1 19 -3 4 -6 -2 -5 -13z"/>
<path d="M4122 2460 c0 -14 2 -19 5 -12 2 6 2 18 0 25 -3 6 -5 1 -5 -13z"/>
<path d="M6191 2394 c0 -11 3 -14 6 -6 3 7 2 16 -1 19 -3 4 -6 -2 -5 -13z"/>
<path d="M5641 2383 c7 -12 15 -20 18 -17 3 2 -3 12 -13 22 -17 16 -18 16 -5
-5z"/>
<path d="M6150 2379 c0 -5 5 -7 10 -4 6 3 10 8 10 11 0 2 -4 4 -10 4 -5 0 -10
-5 -10 -11z"/>
<path d="M6068 2346 c-21 -16 -22 -34 -4 -59 12 -15 15 -15 26 -2 9 11 10 18
1 29 -6 7 -9 21 -5 30 7 19 5 20 -18 2z"/>
<path d="M6150 2325 c0 -8 2 -15 4 -15 2 0 6 7 10 15 3 8 1 15 -4 15 -6 0 -10
-7 -10 -15z"/>
<path d="M6141 2264 c0 -11 3 -14 6 -6 3 7 2 16 -1 19 -3 4 -6 -2 -5 -13z"/>
<path d="M7825 2180 c-113 -12 -280 -35 -280 -40 0 -2 -69 -10 -129 -14 -32
-2 -61 -8 -65 -14 -3 -6 -29 -12 -57 -15 -28 -2 -55 -6 -60 -9 -5 -2 -42 -2
-81 1 -59 5 -74 3 -78 -9 -5 -11 -8 -12 -14 -2 -5 8 -38 15 -88 17 -68 4 -82
2 -87 -11 -5 -12 -14 -15 -36 -11 -16 4 -48 0 -71 -8 -23 -8 -63 -15 -90 -15
-27 0 -49 -4 -49 -10 0 -5 -7 -7 -15 -4 -8 4 -32 -1 -54 -9 -51 -21 -343 -27
-349 -7 -3 7 0 10 7 6 13 -8 14 3 3 22 -6 9 -12 6 -20 -12 -7 -16 -8 -28 -2
-31 14 -8 12 -26 -1 -23 -12 3 -104 -122 -115 -155 -3 -9 -10 -15 -15 -12 -5
4 -9 2 -9 -4 0 -22 -64 -142 -94 -176 -96 -110 -119 -134 -129 -128 -6 3 -7 1
-3 -5 4 -7 1 -12 -8 -12 -8 0 -21 -6 -29 -14 -8 -8 -47 -32 -88 -53 -40 -21
-82 -46 -93 -55 -22 -20 -43 -23 -48 -7 -2 7 -17 8 -41 4 -21 -4 -36 -10 -33
-13 12 -11 -18 -45 -51 -58 -58 -25 -31 -26 58 -4 77 20 203 78 274 125 52 36
203 187 247 246 28 39 45 54 50 46 4 -7 2 -13 -7 -15 -32 -7 -13 -23 25 -20
39 2 58 18 21 18 -10 0 -22 7 -25 16 -8 22 -8 24 7 24 17 0 60 58 52 70 -3 6
1 10 10 10 15 0 14 -3 -1 -29 -24 -40 -5 -66 40 -57 17 4 50 6 74 6 35 -1 42
2 42 18 0 23 18 32 61 32 18 0 28 4 24 10 -3 6 3 10 14 10 12 0 21 -5 21 -11
0 -6 6 -9 13 -6 6 2 20 -2 30 -11 15 -14 17 -13 17 1 0 18 11 22 24 10 6 -7
19 -9 81 -16 16 -2 36 2 43 10 16 15 52 1 52 -21 0 -18 46 -36 90 -35 19 0 60
0 90 -1 52 -1 178 12 210 21 8 2 14 -2 13 -8 -2 -9 9 -13 30 -12 25 0 28 2 13
8 -35 14 0 21 74 16 40 -3 79 -10 86 -16 10 -8 14 -8 14 0 0 7 8 8 26 1 29
-12 64 2 64 25 0 20 10 19 25 -1 10 -15 14 -15 46 2 36 19 100 23 189 12 30
-4 58 -7 63 -7 4 -1 7 -8 7 -17 0 -24 57 -11 83 19 l19 22 -6 -22 c-9 -30 9
-38 34 -13 11 11 27 20 35 20 9 0 18 7 21 15 9 22 23 18 17 -5 -4 -15 0 -20
16 -20 21 0 21 3 21 215 l0 215 -42 -2 c-24 -1 -74 -4 -113 -8z m-1681 -365
c-4 -8 -8 -15 -10 -15 -2 0 -4 7 -4 15 0 8 4 15 10 15 5 0 7 -7 4 -15z m1596
-25 c0 -5 -4 -10 -10 -10 -5 0 -10 5 -10 10 0 6 5 10 10 10 6 0 10 -4 10 -10z
m-1430 -30 c0 -5 -4 -10 -10 -10 -5 0 -10 5 -10 10 0 6 5 10 10 10 6 0 10 -4
10 -10z m-190 -10 c0 -5 -4 -10 -10 -10 -5 0 -10 5 -10 10 0 6 5 10 10 10 6 0
10 -4 10 -10z"/>
<path d="M6140 2157 c0 -8 -7 -23 -16 -31 -13 -14 -13 -16 -1 -16 15 0 33 47
22 58 -3 3 -5 -2 -5 -11z"/>
<path d="M6060 2116 c0 -9 5 -16 10 -16 6 0 10 4 10 9 0 6 -4 13 -10 16 -5 3
-10 -1 -10 -9z"/>
<path d="M6250 2115 c-11 -13 -10 -14 4 -9 9 3 16 10 16 15 0 13 -6 11 -20 -6z"/>
<path d="M6351 1741 c-9 -6 -10 -11 -2 -15 13 -8 31 1 31 15 0 11 -11 11 -29
0z"/>
<path d="M7240 1730 c0 -5 5 -10 10 -10 6 0 10 5 10 10 0 6 -4 10 -10 10 -5 0
-10 -4 -10 -10z"/>
<path d="M6910 1630 c0 -5 5 -10 10 -10 6 0 10 5 10 10 0 6 -4 10 -10 10 -5 0
-10 -4 -10 -10z"/>
<path d="M4300 1440 c0 -5 7 -10 16 -10 8 0 12 5 9 10 -3 6 -10 10 -16 10 -5
0 -9 -4 -9 -10z"/>
<path d="M5510 1400 c-11 -7 -4 -10 28 -10 23 0 42 5 42 10 0 13 -50 13 -70 0z"/>
<path d="M4356 1391 c-3 -5 1 -11 9 -15 8 -3 15 -1 15 4 0 13 -18 22 -24 11z"/>
<path d="M4430 1362 c0 -12 29 -24 41 -16 5 3 9 11 9 17 0 8 -4 7 -9 -2 -8
-12 -12 -12 -25 -2 -9 8 -16 9 -16 3z"/>
<path d="M5358 1353 c7 -3 16 -2 19 1 4 3 -2 6 -13 5 -11 0 -14 -3 -6 -6z"/>
<path d="M4393 1336 c4 -10 7 -20 7 -22 0 -2 9 -4 20 -4 11 0 20 -3 20 -8 0
-9 58 -35 83 -37 9 -1 17 2 17 7 0 5 -8 11 -17 14 -38 12 -62 27 -57 36 3 4 2
8 -3 9 -16 1 -38 7 -57 15 -16 6 -18 4 -13 -10z"/>
<path d="M4800 1281 c0 -6 5 -11 11 -11 6 0 28 -16 48 -36 29 -27 41 -49 50
-90 7 -30 17 -54 23 -54 6 0 8 11 4 28 -10 41 -17 94 -17 119 1 26 -21 40 -78
49 -28 4 -41 3 -41 -5z"/>
<path d="M4315 1270 c-3 -5 -1 -10 4 -10 6 0 11 5 11 10 0 6 -2 10 -4 10 -3 0
-8 -4 -11 -10z"/>
<path d="M4410 1270 c0 -6 -4 -9 -9 -5 -13 7 -23 -28 -15 -49 5 -14 10 -12 26
14 15 25 22 29 32 21 10 -9 15 -8 20 4 3 9 0 15 -8 15 -8 0 -21 3 -30 6 -9 3
-16 1 -16 -6z"/>
<path d="M5349 1266 c-6 -5 -107 -15 -161 -16 -36 0 -48 -4 -48 -15 0 -21 40
-28 118 -21 62 6 65 5 42 -8 -24 -15 -24 -15 -3 -16 12 0 29 3 38 6 13 5 14 8
3 15 -9 6 -6 9 10 9 13 0 20 -4 17 -10 -3 -5 -2 -10 4 -10 12 0 41 39 41 55 0
10 -52 20 -61 11z"/>
<path d="M4933 1247 c2 -6 19 -13 38 -15 112 -8 149 -8 149 -1 0 11 -29 17
-118 23 -55 4 -72 2 -69 -7z"/>
<path d="M4467 1226 c-6 -15 1 -26 15 -26 4 0 8 9 8 20 0 23 -15 27 -23 6z"/>
<path d="M4958 1203 c7 -3 16 -2 19 1 4 3 -2 6 -13 5 -11 0 -14 -3 -6 -6z"/>
<path d="M5168 1193 c6 -2 18 -2 25 0 6 3 1 5 -13 5 -14 0 -19 -2 -12 -5z"/>
<path d="M4925 1030 c-3 -5 -1 -10 4 -10 6 0 11 5 11 10 0 6 -2 10 -4 10 -3 0
-8 -4 -11 -10z"/>
<path d="M5020 950 c0 -6 -4 -8 -10 -5 -5 3 -10 1 -10 -4 0 -6 -17 -11 -37
-11 l-37 0 29 -30 c19 -19 39 -30 57 -30 15 0 28 -4 28 -10 0 -5 -7 -10 -15
-10 -8 0 -15 -4 -15 -10 0 -10 16 -14 35 -10 6 1 24 4 40 7 53 9 65 20 65 63
0 34 -4 41 -24 46 -14 3 -34 3 -45 -1 -11 -3 -29 -1 -41 5 -14 8 -20 8 -20 0z"/>
<path d="M4443 743 c9 -2 23 -2 30 0 6 3 -1 5 -18 5 -16 0 -22 -2 -12 -5z"/>
<path d="M4313 726 c-23 -8 -62 -17 -87 -20 -26 -4 -46 -12 -46 -17 0 -6 -5
-7 -10 -4 -6 4 -16 2 -23 -3 -7 -6 -34 -13 -60 -17 -33 -5 -45 -11 -38 -18 7
-7 19 -6 38 1 42 16 136 42 243 68 62 14 83 22 60 22 -19 1 -54 -5 -77 -12z"/>
<path d="M3805 570 c-4 -6 6 -7 27 -3 44 8 48 13 10 13 -17 0 -34 -4 -37 -10z"/>
<path d="M5008 245 c5 -26 3 -27 -28 -20 -23 5 -30 4 -26 -4 10 -15 66 -14 66
2 1 8 5 7 13 -4 17 -22 43 -29 56 -16 8 8 11 6 11 -7 0 -9 5 -14 10 -11 6 3
10 0 10 -8 0 -23 51 -16 80 11 14 12 25 33 25 47 1 21 -4 25 -26 25 -15 0 -29
-5 -31 -12 -3 -8 -11 -9 -24 -3 -10 5 -37 9 -59 10 -22 1 -50 5 -61 9 -19 7
-21 5 -16 -19z"/>
<path d="M7200 215 c-146 -31 -210 -49 -210 -59 0 -2 8 -2 18 0 9 2 87 18 172
35 85 17 166 37 180 45 36 19 14 16 -160 -21z"/>
<path d="M6905 155 c-5 -2 -46 -11 -90 -20 -44 -9 -109 -23 -145 -30 -36 -8
-114 -24 -175 -36 -60 -12 -159 -32 -220 -44 l-110 -23 908 -1 907 -1 0 36 c0
19 -7 42 -15 50 -13 13 -20 12 -57 -5 -24 -10 -64 -22 -91 -26 -26 -4 -49 -11
-52 -15 -3 -4 -47 -5 -99 -3 -63 4 -96 2 -100 -6 -11 -17 -37 -13 -52 7 -13
16 -15 16 -25 -1 -7 -12 -15 -15 -27 -8 -28 14 -120 23 -127 11 -4 -7 -12 -7
-25 0 -22 12 -43 13 -37 3 3 -5 -15 -8 -39 -7 -25 0 -47 -3 -49 -7 -3 -4 -14
-5 -25 -2 -11 3 -33 0 -49 -5 -26 -9 -31 -8 -36 9 -8 26 -25 24 -25 -2 0 -17
-3 -19 -14 -10 -8 6 -18 11 -22 10 -5 -1 -17 1 -27 6 -10 4 -34 3 -52 -2 -19
-6 -39 -7 -46 -2 -15 10 -67 2 -85 -12 -6 -5 -14 -6 -17 -2 -4 3 -51 8 -104
11 -129 6 -148 6 -213 -1 -36 -4 -48 -3 -35 3 11 5 33 9 48 9 16 1 36 5 45 10
10 5 76 21 147 36 72 15 135 28 140 29 6 1 40 8 78 16 37 7 67 17 67 22 0 8
-35 10 -55 3z m-512 -142 c-7 -2 -19 -2 -25 0 -7 3 -2 5 12 5 14 0 19 -2 13
-5z"/>
</g>
</svg>
