<svg width="25" height="25" viewBox="0 0 25 25" fill="none" xmlns="http://www.w3.org/2000/svg">
<path d="M17.7084 5.2085C17.7084 4.59043 17.8917 3.98624 18.2351 3.47234C18.5785 2.95844 19.0665 2.5579 19.6375 2.32137C20.2085 2.08485 20.8369 2.02296 21.4431 2.14354C22.0493 2.26412 22.6061 2.56175 23.0431 2.99879C23.4802 3.43583 23.7778 3.99265 23.8984 4.59884C24.0189 5.20503 23.9571 5.83336 23.7205 6.40438C23.484 6.9754 23.0835 7.46346 22.5696 7.80684C22.0557 8.15022 21.4515 8.3335 20.8334 8.3335C20.0046 8.3335 19.2098 8.00426 18.6237 7.41821C18.0377 6.83216 17.7084 6.0373 17.7084 5.2085ZM2.08341 6.25016H14.5834C14.8597 6.25016 15.1246 6.14042 15.32 5.94507C15.5153 5.74972 15.6251 5.48477 15.6251 5.2085C15.6251 4.93223 15.5153 4.66728 15.32 4.47193C15.1246 4.27658 14.8597 4.16683 14.5834 4.16683H2.08341C1.80715 4.16683 1.5422 4.27658 1.34685 4.47193C1.15149 4.66728 1.04175 4.93223 1.04175 5.2085C1.04175 5.48477 1.15149 5.74972 1.34685 5.94507C1.5422 6.14042 1.80715 6.25016 2.08341 6.25016ZM8.33342 9.37516C7.68868 9.37698 7.06029 9.57816 6.53439 9.95114C6.00849 10.3241 5.61082 10.8506 5.39592 11.4585H2.08341C1.80715 11.4585 1.5422 11.5682 1.34685 11.7636C1.15149 11.9589 1.04175 12.2239 1.04175 12.5002C1.04175 12.7764 1.15149 13.0414 1.34685 13.2367C1.5422 13.4321 1.80715 13.5418 2.08341 13.5418H5.39592C5.58701 14.0823 5.92311 14.5598 6.36742 14.9221C6.81173 15.2844 7.34714 15.5175 7.91504 15.5958C8.48295 15.6742 9.06146 15.5948 9.58728 15.3664C10.1131 15.138 10.5659 14.7693 10.8963 14.3008C11.2266 13.8322 11.4217 13.2818 11.4601 12.7099C11.4986 12.1379 11.379 11.5663 11.1144 11.0577C10.8498 10.5492 10.4504 10.1232 9.95987 9.82644C9.46938 9.52968 8.9067 9.37356 8.33342 9.37516ZM22.9167 11.4585H14.5834C14.3071 11.4585 14.0422 11.5682 13.8468 11.7636C13.6515 11.9589 13.5417 12.2239 13.5417 12.5002C13.5417 12.7764 13.6515 13.0414 13.8468 13.2367C14.0422 13.4321 14.3071 13.5418 14.5834 13.5418H22.9167C23.193 13.5418 23.458 13.4321 23.6533 13.2367C23.8487 13.0414 23.9584 12.7764 23.9584 12.5002C23.9584 12.2239 23.8487 11.9589 23.6533 11.7636C23.458 11.5682 23.193 11.4585 22.9167 11.4585ZM10.4167 18.7502H2.08341C1.80715 18.7502 1.5422 18.8599 1.34685 19.0553C1.15149 19.2506 1.04175 19.5156 1.04175 19.7918C1.04175 20.0681 1.15149 20.3331 1.34685 20.5284C1.5422 20.7238 1.80715 20.8335 2.08341 20.8335H10.4167C10.693 20.8335 10.958 20.7238 11.1533 20.5284C11.3487 20.3331 11.4584 20.0681 11.4584 19.7918C11.4584 19.5156 11.3487 19.2506 11.1533 19.0553C10.958 18.8599 10.693 18.7502 10.4167 18.7502ZM22.9167 18.7502H19.6042C19.3585 18.0552 18.875 17.4694 18.2392 17.0964C17.6033 16.7234 16.8561 16.5872 16.1295 16.7118C15.403 16.8365 14.7439 17.214 14.2687 17.7776C13.7936 18.3412 13.533 19.0547 13.533 19.7918C13.533 20.529 13.7936 21.2424 14.2687 21.8061C14.7439 22.3697 15.403 22.7472 16.1295 22.8718C16.8561 22.9965 17.6033 22.8603 18.2392 22.4873C18.875 22.1143 19.3585 21.5285 19.6042 20.8335H22.9167C23.193 20.8335 23.458 20.7238 23.6533 20.5284C23.8487 20.3331 23.9584 20.0681 23.9584 19.7918C23.9584 19.5156 23.8487 19.2506 23.6533 19.0553C23.458 18.8599 23.193 18.7502 22.9167 18.7502Z" fill="#2CC879"/>
</svg>
