<svg width="25" height="25" viewBox="0 0 25 25" fill="none" xmlns="http://www.w3.org/2000/svg">
<path fill-rule="evenodd" clip-rule="evenodd" d="M5.70825 16.7476C5.016 16.8691 4.3888 17.2309 3.93707 17.7694C3.48535 18.3078 3.23807 18.9883 3.23877 19.6912V22.8265C3.23877 22.9269 3.27866 23.0233 3.34968 23.0944C3.4207 23.1655 3.51703 23.2055 3.61753 23.2056H5.37318V21.3656C5.37318 21.2975 5.40025 21.2322 5.44843 21.184C5.49661 21.1358 5.56196 21.1087 5.6301 21.1087C5.69824 21.1087 5.76359 21.1358 5.81178 21.184C5.85996 21.2322 5.88703 21.2975 5.88703 21.3656V23.2055H12.2415V17.7859L9.98485 15.9921L5.70825 16.7476ZM8.53212 20.3058H10.1263C10.2686 20.3058 10.3832 20.4204 10.3832 20.5627C10.3833 20.5965 10.3766 20.6299 10.3637 20.6611C10.3508 20.6923 10.3319 20.7206 10.308 20.7445C10.2842 20.7683 10.2558 20.7873 10.2247 20.8002C10.1935 20.8131 10.16 20.8197 10.1263 20.8196H8.5324C8.46575 20.8174 8.40258 20.7894 8.35622 20.7414C8.30986 20.6935 8.28394 20.6294 8.28394 20.5627C8.28394 20.496 8.30986 20.4319 8.35622 20.384C8.40258 20.3361 8.46575 20.308 8.5324 20.3058H8.53212ZM15.0142 15.9918L12.7554 17.786V23.2055H19.1093V21.3654C19.1093 21.2972 19.1364 21.2319 19.1845 21.1837C19.2327 21.1355 19.2981 21.1084 19.3662 21.1084C19.4344 21.1084 19.4997 21.1355 19.5479 21.1837C19.5961 21.2319 19.6231 21.2972 19.6231 21.3654V23.2053H21.3824C21.4829 23.2052 21.5792 23.1652 21.6502 23.0941C21.7213 23.023 21.7612 22.9267 21.7612 22.8262V19.6909C21.7618 18.9881 21.5145 18.3076 21.0629 17.7692C20.6112 17.2308 19.984 16.869 19.2918 16.7475L15.0142 15.9918ZM14.8705 20.3056H16.4651C16.5332 20.3056 16.5986 20.3327 16.6467 20.3809C16.6949 20.4291 16.722 20.4944 16.722 20.5626C16.722 20.6307 16.6949 20.6961 16.6467 20.7442C16.5986 20.7924 16.5332 20.8195 16.4651 20.8195H14.8705C14.8038 20.8173 14.7406 20.7892 14.6943 20.7413C14.6479 20.6933 14.622 20.6293 14.622 20.5626C14.622 20.4959 14.6479 20.4318 14.6943 20.3839C14.7406 20.3359 14.8038 20.3079 14.8705 20.3056ZM12.0632 14.8051C11.4527 14.8051 10.864 14.7103 10.311 14.5348V15.5952L12.4984 17.3343L14.6889 15.5942V14.5068C14.0964 14.7049 13.4756 14.8056 12.8508 14.8051H12.0632ZM8.26712 8.98495C8.26712 11.0708 9.96438 12.7676 12.0496 12.7676H12.8048C14.8906 12.7676 16.5873 11.0706 16.5873 8.98495V7.47526C16.5873 7.46991 16.5852 7.46478 16.5814 7.46099C16.5776 7.4572 16.5725 7.45508 16.5671 7.45508H8.2873C8.28196 7.45512 8.27685 7.45725 8.27307 7.46103C8.26929 7.46481 8.26715 7.46992 8.26712 7.47526V8.98495Z" fill="#2CC879"/>
<path fill-rule="evenodd" clip-rule="evenodd" d="M12.0496 13.2815C9.68079 13.2815 7.75328 11.3541 7.75328 8.9851V7.47542C7.75343 7.33384 7.80975 7.19811 7.90987 7.09802C8.00999 6.99792 8.14574 6.94164 8.28731 6.94153H16.5674C16.709 6.94172 16.8446 6.99803 16.9447 7.09812C17.0448 7.1982 17.101 7.33389 17.1012 7.47542V8.98525C17.1012 11.3542 15.1738 13.2817 12.805 13.2817L12.0496 13.2815ZM6.77128 8.99981C6.77128 11.9175 9.14503 14.2914 12.063 14.2914H12.8508C15.769 14.2914 18.1427 11.9175 18.1427 8.99995V7.47974C18.1427 4.34488 15.5918 1.79395 12.4569 1.79395C10.9382 1.79395 9.50994 2.38536 8.43625 3.45949C7.36256 4.53318 6.771 5.96097 6.771 7.47974L6.77128 8.99981ZM14.945 5.40156H9.96886C9.90073 5.40152 9.8354 5.37444 9.78723 5.32627C9.73905 5.27809 9.71197 5.21277 9.71193 5.14464V4.76545C9.71193 3.97651 10.3542 3.3342 11.1438 3.3342H13.7701C14.5596 3.3342 15.2018 3.97651 15.2018 4.76559V5.14478C15.2018 5.28651 15.0869 5.40156 14.945 5.40156Z" fill="#2CC879"/>
<path fill-rule="evenodd" clip-rule="evenodd" d="M11.144 3.84766C10.9006 3.84785 10.6672 3.94458 10.4951 4.11663C10.323 4.28867 10.2261 4.52198 10.2258 4.76535V4.88747H14.6881V4.7652C14.6878 4.52191 14.5909 4.2887 14.4188 4.11672C14.2467 3.94474 14.0134 3.84803 13.7702 3.8478L11.144 3.84766Z" fill="#2CC879"/>
</svg>
