<svg width="17" height="17" viewBox="0 0 17 17" fill="none" xmlns="http://www.w3.org/2000/svg">
<path fill-rule="evenodd" clip-rule="evenodd" d="M7.72852 11.2502C7.72852 10.8024 7.55077 10.3733 7.23408 10.0571C7.07749 9.90033 6.89151 9.77594 6.68679 9.6911C6.48207 9.60626 6.26262 9.56262 6.04102 9.5627H2.10352C1.65577 9.5627 1.22658 9.74045 0.910453 10.0571C0.753644 10.2137 0.629258 10.3997 0.544415 10.6044C0.459573 10.8091 0.41594 11.0286 0.416016 11.2502V15.1877C0.416016 15.6354 0.593766 16.0646 0.910453 16.3808C1.06704 16.5376 1.25302 16.662 1.45774 16.7468C1.66246 16.8316 1.88191 16.8753 2.10352 16.8752H6.04102C6.48877 16.8752 6.91795 16.6974 7.23408 16.3808C7.39089 16.2242 7.51527 16.0382 7.60012 15.8335C7.68496 15.6287 7.72859 15.4093 7.72852 15.1877V11.2502ZM16.166 11.2502C16.166 10.8024 15.9883 10.3733 15.6716 10.0571C15.515 9.90033 15.329 9.77594 15.1243 9.6911C14.9196 9.60626 14.7001 9.56262 14.4785 9.5627H10.541C10.0933 9.5627 9.66408 9.74045 9.34795 10.0571C9.19114 10.2137 9.06676 10.3997 8.98192 10.6044C8.89707 10.8091 8.85344 11.0286 8.85352 11.2502V15.1877C8.85352 15.6354 9.03127 16.0646 9.34795 16.3808C9.50454 16.5376 9.69052 16.662 9.89524 16.7468C10.1 16.8316 10.3194 16.8753 10.541 16.8752H14.4785C14.9263 16.8752 15.3555 16.6974 15.6716 16.3808C15.8284 16.2242 15.9528 16.0382 16.0376 15.8335C16.1225 15.6287 16.1661 15.4093 16.166 15.1877V11.2502ZM13.7028 8.32126L16.0496 5.97451C16.3659 5.65806 16.5437 5.22891 16.5437 4.78145C16.5437 4.33398 16.3659 3.90484 16.0496 3.58839L13.7028 1.24164C13.3864 0.925278 12.9572 0.747559 12.5098 0.747559C12.0623 0.747559 11.6332 0.925278 11.3167 1.24164L8.96995 3.58839C8.6536 3.90484 8.47588 4.33398 8.47588 4.78145C8.47588 5.22891 8.6536 5.65806 8.96995 5.97451L11.3167 8.32126C11.6332 8.63762 12.0623 8.81534 12.5098 8.81534C12.9572 8.81534 13.3864 8.63762 13.7028 8.32126ZM7.72852 2.8127C7.72852 2.36495 7.55077 1.93576 7.23408 1.61964C7.07749 1.46283 6.89151 1.33844 6.68679 1.2536C6.48207 1.16876 6.26262 1.12512 6.04102 1.1252H2.10352C1.65577 1.1252 1.22658 1.30295 0.910453 1.61964C0.753644 1.77622 0.629258 1.9622 0.544415 2.16693C0.459573 2.37165 0.41594 2.59109 0.416016 2.8127V6.7502C0.416016 7.19795 0.593766 7.62714 0.910453 7.94326C1.06704 8.10007 1.25302 8.22446 1.45774 8.3093C1.66246 8.39414 1.88191 8.43777 2.10352 8.4377H6.04102C6.48877 8.4377 6.91795 8.25995 7.23408 7.94326C7.39089 7.78667 7.51527 7.60069 7.60012 7.39597C7.68496 7.19125 7.72859 6.9718 7.72852 6.7502V2.8127Z" fill="white"/>
</svg>
