<svg width="12" height="10" viewBox="0 0 12 10" fill="none" xmlns="http://www.w3.org/2000/svg">
<path d="M11.4251 4.32313C11.6526 4.32313 11.8334 4.1423 11.8334 3.9148V3.3723C11.8334 0.980632 11.1042 0.251465 8.71258 0.251465H3.28758C0.895915 0.251465 0.166748 0.980632 0.166748 3.3723V3.64647C0.166748 3.87397 0.347581 4.0548 0.575081 4.0548C1.10008 4.0548 1.52591 4.48063 1.52591 5.00563C1.52591 5.53063 1.10008 5.95063 0.575081 5.95063C0.347581 5.95063 0.166748 6.13146 0.166748 6.35896V6.63313C0.166748 9.0248 0.895915 9.75396 3.28758 9.75396H8.71258C11.1042 9.75396 11.8334 9.0248 11.8334 6.63313C11.8334 6.40563 11.6526 6.2248 11.4251 6.2248C10.9001 6.2248 10.4742 5.79896 10.4742 5.27396C10.4742 4.74897 10.9001 4.32313 11.4251 4.32313ZM4.25008 3.1798C4.57091 3.1798 4.83341 3.4423 4.83341 3.76313C4.83341 4.08397 4.57675 4.34647 4.25008 4.34647C3.92925 4.34647 3.66675 4.08397 3.66675 3.76313C3.66675 3.4423 3.92341 3.1798 4.25008 3.1798ZM7.75008 7.26313C7.42341 7.26313 7.16091 7.00063 7.16091 6.6798C7.16091 6.35896 7.42341 6.09647 7.74425 6.09647C8.06508 6.09647 8.32758 6.35896 8.32758 6.6798C8.32758 7.00063 8.07675 7.26313 7.75008 7.26313ZM8.27508 3.5298L4.34925 7.45563C4.26175 7.54313 4.15091 7.58396 4.04008 7.58396C3.92925 7.58396 3.81841 7.54313 3.73091 7.45563C3.56175 7.28646 3.56175 7.00646 3.73091 6.8373L7.65675 2.91146C7.82591 2.7423 8.10591 2.7423 8.27508 2.91146C8.44425 3.08063 8.44425 3.36063 8.27508 3.5298Z" fill="white"/>
</svg>
