<svg width="8" height="16" viewBox="0 0 8 16" fill="none" xmlns="http://www.w3.org/2000/svg">
<path d="M7.61335 8.50488L6.01106 6.73737C5.91128 6.62734 5.81953 6.40062 5.81492 6.25197L5.75597 4.418V4.36486C5.75597 4.08227 5.526 3.8523 5.2434 3.8523H3.05166C2.79914 3.8523 2.51739 4.03118 2.40993 4.25962L0.298485 8.74459C0.269598 8.80542 0.253257 8.87144 0.250439 8.93872C0.247621 9.006 0.258383 9.07316 0.282082 9.13619C0.329922 9.26434 0.425601 9.36548 0.551181 9.42084L0.86231 9.55804C0.928602 9.58725 0.999337 9.60212 1.07263 9.60212C1.17127 9.60211 1.26799 9.57494 1.3522 9.52358C1.43641 9.47223 1.50485 9.39867 1.55001 9.31098L2.53909 7.34323V9.32106C2.53499 9.33251 2.52901 9.34293 2.52525 9.35455L0.853767 14.5892C0.784229 14.8073 0.805415 15.0367 0.913567 15.2352C1.02172 15.4338 1.20283 15.5759 1.42391 15.6356L1.53565 15.6658C1.60878 15.6856 1.68464 15.6957 1.76084 15.6957C2.14544 15.6957 2.49484 15.4427 2.61068 15.0801L4.17248 10.1888L4.72639 11.5456C4.86154 11.8766 5.00745 12.4561 5.04504 12.8115L5.31004 15.3096C5.35258 15.7095 5.66884 15.9998 6.06215 15.9998C6.12656 15.9998 6.192 15.992 6.25641 15.9764L6.36901 15.9491C6.81733 15.8406 7.1341 15.38 7.07515 14.9226L6.6827 11.8766C6.63281 11.4896 6.46588 10.8835 6.31057 10.5256L5.78058 9.305C5.77374 9.28911 5.764 9.27476 5.75614 9.25938V8.43227L6.71123 9.42938C6.80623 9.52865 6.93334 9.58332 7.069 9.58332C7.2062 9.58332 7.33434 9.52763 7.42968 9.42648L7.60635 9.23888C7.79531 9.03812 7.79856 8.70905 7.61335 8.50488ZM4.29003 3.41798C5.23247 3.41798 5.9991 2.65135 5.9991 1.7089C5.9991 0.766632 5.23247 0 4.29003 0C3.34776 0 2.58129 0.766632 2.58129 1.7089C2.58112 2.65135 3.34776 3.41798 4.29003 3.41798Z" fill="#2CC879"/>
</svg>
