<svg width="25" height="25" viewBox="0 0 25 25" fill="none" xmlns="http://www.w3.org/2000/svg">
<g clip-path="url(#clip0_72_2488)">
<path d="M12.5 24.0234L16.0603 20.4631M18.7166 17.6115L21.5103 14.8179M6.64062 2.92969L4.6875 0.976562M4.6875 0.976562L2.73438 2.92969M4.6875 0.976562V6.83594M14.4531 2.92969L12.5 0.976562M12.5 0.976562L10.5469 2.92969M12.5 0.976562V6.83594M22.2656 2.92969L20.3125 0.976562M20.3125 0.976562L18.3594 2.92969M20.3125 0.976562V6.83594M0.976562 22.0703C0.976562 15.5982 6.02793 10.3516 12.5 10.3516C18.9721 10.3516 24.0234 15.5982 24.0234 22.0703H20.1172C20.1172 17.7625 16.8078 14.2578 12.5 14.2578C8.19224 14.2578 4.88281 17.7625 4.88281 22.0703H0.976562Z" stroke="#2CC879" stroke-width="2" stroke-miterlimit="10" stroke-linecap="round" stroke-linejoin="round"/>
</g>
<defs>
<clipPath id="clip0_72_2488">
<rect width="25" height="25" fill="white"/>
</clipPath>
</defs>
</svg>
