<svg width="30" height="30" viewBox="0 0 30 30" fill="none" xmlns="http://www.w3.org/2000/svg">
<path d="M11.0842 12.8984V28.016C11.0842 28.2922 11.3914 28.4199 11.5529 28.2107L14.7981 24.0059C14.9045 23.8681 15.0956 23.8681 15.202 24.0059L18.4473 28.2107C18.6088 28.4199 18.9159 28.2922 18.9159 28.016V12.8984H11.0842Z" fill="#F2C94C"/>
<path d="M13.428 12.8984H11.0842V28.016C11.0842 28.2922 11.3914 28.4199 11.5529 28.2107L13.428 25.7812V12.8984Z" fill="#F2C94C"/>
<path d="M17.7913 24.9898C17.698 24.9898 17.6086 24.9527 17.5427 24.8868C17.4767 24.8209 17.4397 24.7314 17.4397 24.6382V20.6396C17.4397 20.5464 17.4767 20.457 17.5427 20.3911C17.6086 20.3251 17.698 20.2881 17.7913 20.2881C17.8845 20.2881 17.9739 20.3251 18.0399 20.3911C18.1058 20.457 18.1428 20.5464 18.1428 20.6396V24.6382C18.1428 24.7314 18.1058 24.8209 18.0399 24.8868C17.9739 24.9527 17.8845 24.9898 17.7913 24.9898Z" fill="#FFB74B"/>
<path d="M14.8861 20.6697C15.3979 20.6697 15.8128 20.2548 15.8128 19.7431C15.8128 19.2313 15.3979 18.8164 14.8861 18.8164C14.3744 18.8164 13.9595 19.2313 13.9595 19.7431C13.9595 20.2548 14.3744 20.6697 14.8861 20.6697Z" fill="black"/>
<path d="M14.9741 18.6595C14.7743 18.659 14.5831 18.5511 14.4779 18.3781C13.8216 17.2989 12.6768 16.6546 11.4155 16.6546C11.0229 16.6545 10.6329 16.7192 10.2614 16.8461C10.2004 16.8669 10.1364 16.8776 10.0719 16.8776C9.99387 16.8773 9.91664 16.8616 9.84474 16.8312C9.77283 16.8008 9.70767 16.7564 9.65304 16.7007C9.59836 16.6451 9.55544 16.579 9.52685 16.5064C9.49826 16.4338 9.48458 16.3563 9.48663 16.2783L9.48786 16.2374C9.48845 16.2214 9.48904 16.2072 9.48904 16.1929C9.48904 14.609 8.47255 13.2329 6.9596 12.7689C6.8666 12.7405 6.78216 12.6894 6.71394 12.6201C6.64572 12.5508 6.59588 12.4656 6.56896 12.3721L6.56527 12.3596C6.54001 12.2725 6.53523 12.1807 6.5513 12.0914C6.56737 12.0022 6.60385 11.9178 6.6579 11.845C7.10052 11.2579 7.34843 10.5628 7.37691 9.83239C7.40743 9.04635 7.16163 8.2428 6.68474 7.56962C6.64335 7.51094 6.61623 7.44341 6.60555 7.37241C6.59487 7.3014 6.60092 7.22888 6.62322 7.16063L6.64331 7.09969C6.64572 7.09243 6.66739 7.0285 6.68661 6.97219C6.71119 6.89957 6.75363 6.83429 6.81004 6.78235C6.86644 6.73042 6.935 6.69351 7.00941 6.67501L7.07644 6.65819C8.66948 6.25794 9.78206 4.82977 9.78206 3.18516C9.78206 3.16793 9.78142 3.15088 9.78083 3.13377L9.7796 3.0896C9.77674 2.99171 9.79856 2.89467 9.84307 2.80744C9.88757 2.7202 9.95332 2.64557 10.0343 2.59043C10.0434 2.58411 10.0778 2.56161 10.0778 2.56161L10.094 2.55118C10.1866 2.4937 10.2934 2.46331 10.4023 2.46346C10.4799 2.46346 10.5555 2.47852 10.6272 2.50835L10.6366 2.51227C11.0701 2.69127 11.5293 2.78204 12.0016 2.78204C13.1451 2.78204 14.2294 2.22786 14.9025 1.29961C14.957 1.22477 15.0283 1.16385 15.1107 1.1218C15.1932 1.07975 15.2844 1.05776 15.3769 1.05762C15.4679 1.05723 15.5576 1.07819 15.639 1.11882C15.7203 1.15945 15.791 1.2186 15.8453 1.29153C16.5292 2.20155 17.5733 2.72344 18.7098 2.72344C18.8448 2.72344 18.9819 2.716 19.1176 2.70129C19.283 2.68331 19.4602 2.64885 19.6589 2.59583C19.735 2.57554 19.8147 2.57235 19.8922 2.58648C19.9697 2.60061 20.0431 2.63172 20.1072 2.67756L20.1274 2.6921C20.1363 2.69842 20.186 2.73516 20.186 2.73516C20.2559 2.78607 20.3123 2.85319 20.3505 2.93074C20.3887 3.00829 20.4074 3.09395 20.4052 3.18036L20.4035 3.24651C20.4028 3.2669 20.4021 3.28454 20.4021 3.30235C20.4021 4.87659 21.456 6.28823 22.965 6.73518C23.0541 6.76169 23.1357 6.80897 23.2029 6.87313C23.2702 6.93729 23.3213 7.01651 23.352 7.10426C23.3824 7.19208 23.3916 7.28589 23.3788 7.37796C23.3659 7.47002 23.3314 7.55772 23.278 7.63383C22.8532 8.23846 22.6287 8.9492 22.6287 9.68907C22.6287 10.4581 22.8697 11.1916 23.3257 11.8103C23.3801 11.8835 23.4166 11.9685 23.432 12.0583C23.4475 12.1482 23.4416 12.2404 23.4148 12.3276C23.3888 12.415 23.3426 12.495 23.2799 12.5612C23.2172 12.6274 23.1398 12.678 23.054 12.7087C21.6502 13.2185 20.7024 14.5648 20.6954 16.0589C20.694 16.3806 20.4313 16.6424 20.11 16.6424C20.0457 16.6424 19.9818 16.6318 19.9209 16.611C19.5498 16.4847 19.1604 16.4203 18.7684 16.4204C17.4333 16.4204 16.2185 17.1555 15.5967 18.3393L15.5936 18.3452C15.5444 18.4394 15.4706 18.5184 15.38 18.5738C15.2894 18.6292 15.1854 18.6589 15.0792 18.6597L15.0082 18.6602L14.9741 18.6595Z" fill="#FF624B"/>
<path d="M16.2202 16.6546C15.8276 16.6545 15.4377 16.7192 15.0661 16.8461C15.0051 16.8669 14.9411 16.8776 14.8767 16.8776C14.7986 16.8773 14.7214 16.8616 14.6495 16.8312C14.5776 16.8008 14.5124 16.7564 14.4578 16.7007C14.4031 16.6451 14.3602 16.579 14.3316 16.5064C14.303 16.4338 14.2893 16.3563 14.2914 16.2783L14.2926 16.2374C14.2932 16.2214 14.2938 16.2072 14.2938 16.1929C14.2938 14.609 13.2773 13.2329 11.7643 12.7689C11.6713 12.7405 11.5869 12.6894 11.5187 12.6201C11.4505 12.5508 11.4006 12.4656 11.3737 12.3721L11.37 12.3596C11.3448 12.2725 11.34 12.1807 11.356 12.0914C11.3721 12.0022 11.4086 11.9178 11.4626 11.845C11.9053 11.2579 12.1532 10.5628 12.1816 9.83239C12.2122 9.04635 11.9664 8.2428 11.4895 7.56961C11.4481 7.51094 11.421 7.44341 11.4103 7.37241C11.3996 7.3014 11.4057 7.22888 11.428 7.16063L11.4481 7.09969C11.4505 7.09243 11.4721 7.0285 11.4914 6.97219C11.5159 6.89957 11.5584 6.83429 11.6148 6.78235C11.6712 6.73042 11.7397 6.69351 11.8141 6.67501L11.8812 6.65819C13.4742 6.25794 14.5868 4.82977 14.5868 3.18516C14.5868 3.16794 14.5862 3.15088 14.5856 3.13377L14.5843 3.0896C14.5815 2.99171 14.6033 2.89467 14.6478 2.80744C14.6923 2.7202 14.7581 2.64558 14.839 2.59044C14.8482 2.58411 14.8826 2.56161 14.8826 2.56161L14.8988 2.55118C14.9913 2.4937 15.0981 2.46331 15.2071 2.46346C15.2846 2.46346 15.3602 2.47852 15.4319 2.50835L15.4413 2.51227C15.8749 2.69127 16.3341 2.78204 16.8063 2.78204C17.1667 2.78204 17.5211 2.72672 17.8587 2.62231C17.0619 2.42989 16.3539 1.96829 15.8453 1.29153C15.791 1.2186 15.7203 1.15945 15.639 1.11882C15.5576 1.07819 15.4679 1.05723 15.3769 1.05762C15.2844 1.05775 15.1932 1.07974 15.1107 1.12179C15.0283 1.16384 14.9569 1.22477 14.9025 1.29961C14.2295 2.22786 13.145 2.78204 12.0016 2.78204C11.5293 2.78204 11.0702 2.69127 10.6366 2.51227L10.6272 2.50835C10.5559 2.47863 10.4795 2.46337 10.4023 2.46346C10.2928 2.46346 10.1866 2.4937 10.094 2.55118L10.0778 2.56161C10.0778 2.56161 10.0434 2.58411 10.0342 2.59044C9.95332 2.64559 9.88758 2.72022 9.84308 2.80745C9.79858 2.89468 9.77675 2.99171 9.7796 3.0896L9.78083 3.13377C9.78141 3.15088 9.78206 3.16794 9.78206 3.18516C9.78206 4.82983 8.66948 6.25799 7.07643 6.65819L7.0094 6.67501C6.935 6.69351 6.86644 6.73043 6.81004 6.78236C6.75363 6.83429 6.71119 6.89957 6.68661 6.97219C6.66739 7.0285 6.64571 7.09243 6.64331 7.09969L6.62321 7.16063C6.60091 7.22888 6.59485 7.3014 6.60553 7.37241C6.61622 7.44342 6.64334 7.51094 6.68473 7.56961C7.16169 8.24274 7.40749 9.04635 7.3769 9.83239C7.34848 10.5628 7.10051 11.2579 6.6579 11.845C6.60385 11.9178 6.56737 12.0022 6.5513 12.0914C6.53524 12.1807 6.54001 12.2725 6.56526 12.3596L6.56895 12.3721C6.59588 12.4656 6.64571 12.5508 6.71393 12.6201C6.78215 12.6894 6.8666 12.7405 6.9596 12.7689C8.47255 13.2329 9.48903 14.609 9.48903 16.1929C9.48903 16.2072 9.48844 16.2214 9.48786 16.2374L9.48663 16.2783C9.48457 16.3563 9.49824 16.4339 9.52683 16.5064C9.55542 16.579 9.59834 16.6451 9.65303 16.7007C9.70766 16.7564 9.77282 16.8008 9.84473 16.8312C9.91664 16.8616 9.99386 16.8773 10.0719 16.8776C10.1364 16.8776 10.2004 16.867 10.2614 16.8461C10.6329 16.7192 11.0229 16.6545 11.4155 16.6546C12.6768 16.6546 13.8216 17.2989 14.4779 18.3781C14.5831 18.5511 14.7743 18.659 14.9741 18.6595L15.008 18.6599L15.079 18.6594C15.1852 18.6586 15.2892 18.629 15.3798 18.5736C15.4704 18.5182 15.5443 18.4391 15.5934 18.3449L15.5965 18.339C15.958 17.651 16.52 17.1149 17.1893 16.7862C16.8737 16.6987 16.5477 16.6544 16.2202 16.6546Z" fill="#FF4B34"/>
<path d="M15 16.0229C18.4073 16.0229 21.1696 13.2606 21.1696 9.85322C21.1696 6.44583 18.4073 3.68359 15 3.68359C11.5926 3.68359 8.83032 6.44583 8.83032 9.85322C8.83032 13.2606 11.5926 16.0229 15 16.0229Z" fill="black"/>
<path d="M15 14.851C17.7601 14.851 19.9977 12.6134 19.9977 9.85322C19.9977 7.09304 17.7601 4.85547 15 4.85547C12.2398 4.85547 10.0022 7.09304 10.0022 9.85322C10.0022 12.6134 12.2398 14.851 15 14.851Z" fill="#FCE575"/>
<path d="M14.663 6.7798L14.0005 8.12218C13.9667 8.19047 13.9169 8.24954 13.8553 8.2943C13.7937 8.33906 13.7221 8.36817 13.6468 8.37912L12.1654 8.59439C11.8572 8.63916 11.7341 9.01796 11.9572 9.23535L13.0291 10.2802C13.0837 10.3334 13.1245 10.399 13.148 10.4715C13.1715 10.5439 13.1771 10.621 13.1643 10.696L12.9112 12.1714C12.8585 12.4784 13.1807 12.7125 13.4564 12.5676L14.7814 11.871C14.8488 11.8356 14.9238 11.817 15 11.817C15.0761 11.817 15.1511 11.8356 15.2186 11.871L16.5435 12.5676C16.8192 12.7125 17.1414 12.4784 17.0888 12.1714L16.8357 10.696C16.8228 10.621 16.8284 10.5439 16.8519 10.4715C16.8755 10.399 16.9163 10.3334 16.9708 10.2802L18.0427 9.23535C18.2657 9.01796 18.1427 8.63916 17.8345 8.59439L16.3531 8.37912C16.2777 8.36817 16.2062 8.33906 16.1446 8.2943C16.0829 8.24954 16.0331 8.19047 15.9994 8.12218L15.3369 6.7798C15.199 6.50048 14.8008 6.50048 14.663 6.7798Z" fill="black"/>
<path d="M16.67 14.1212C16.5884 14.1213 16.5094 14.093 16.4463 14.0412C16.3833 13.9894 16.3403 13.9172 16.3247 13.8372C16.309 13.7571 16.3217 13.6741 16.3605 13.6023C16.3993 13.5306 16.4619 13.4746 16.5375 13.4439C16.5528 13.4377 18.0657 12.807 18.4743 11.5514C18.4886 11.5075 18.5114 11.4668 18.5414 11.4317C18.5714 11.3966 18.608 11.3677 18.6492 11.3468C18.6904 11.3259 18.7352 11.3132 18.7813 11.3097C18.8273 11.3061 18.8736 11.3116 18.9175 11.3259C19.0061 11.3548 19.0797 11.4177 19.122 11.5008C19.1643 11.5838 19.1718 11.6803 19.143 11.769C18.6318 13.3395 16.8763 14.0653 16.8018 14.0954C16.76 14.1124 16.7152 14.1212 16.67 14.1212Z" fill="#FFF4C1"/>
<path d="M14.3947 10.989C14.4075 10.9139 14.402 10.8369 14.3784 10.7644C14.3549 10.692 14.3141 10.6264 14.2596 10.5732L13.1876 9.52832C12.9646 9.31093 13.0877 8.93212 13.3959 8.88736L14.8772 8.67208C14.9526 8.66113 15.0242 8.63202 15.0858 8.58726C15.1474 8.5425 15.1972 8.48344 15.2309 8.41515L15.6875 7.49013L15.3369 6.7798C15.199 6.50048 14.8008 6.50048 14.663 6.7798L14.0005 8.12218C13.9667 8.19047 13.9169 8.24954 13.8553 8.2943C13.7937 8.33906 13.7221 8.36817 13.6468 8.37912L12.1654 8.59439C11.8572 8.63916 11.7341 9.01796 11.9572 9.23535L13.0291 10.2802C13.0836 10.3334 13.1244 10.399 13.1479 10.4715C13.1715 10.5439 13.1771 10.621 13.1642 10.696L12.9111 12.1714C12.8585 12.4784 13.1807 12.7125 13.4563 12.5676L14.1901 12.1819L14.3947 10.989Z" fill="black"/>
<path d="M20.3494 9.8534C20.3494 10.1286 20.3284 10.399 20.2881 10.6631L20.7526 10.7265C20.7963 10.4375 20.8182 10.1457 20.8181 9.8534C20.8181 8.23223 20.1514 6.7641 19.078 5.70801L18.8918 6.18742C19.795 7.14561 20.3494 8.4359 20.3494 9.8534Z" fill="#FFD551"/>
</svg>
