<svg width="14" height="12" viewBox="0 0 14 12" fill="none" xmlns="http://www.w3.org/2000/svg">
<path d="M12.9562 5.75374L10.8802 7.74854L11.3702 10.5625C11.4502 11.0218 11.2649 11.4798 10.8862 11.7572C10.5002 12.0392 9.9962 12.0779 9.57087 11.8586L7.00021 10.5272L4.42955 11.8586C4.24688 11.9532 4.04888 11.9998 3.85222 11.9998C3.59222 11.9998 3.3342 11.9178 3.1142 11.7572C2.7362 11.4798 2.55021 11.0218 2.63021 10.5625L3.1202 7.74854L1.04421 5.75374C0.704214 5.42708 0.5822 4.9465 0.7262 4.49984C0.871534 4.04784 1.25686 3.72588 1.73153 3.65788L4.60421 3.24642L5.88821 0.683105C6.09887 0.261772 6.52554 0.000488281 7.00021 0.000488281C7.47487 0.000488281 7.90154 0.262439 8.11221 0.683105L9.3962 3.24642L12.2689 3.65788C12.7429 3.72588 13.1282 4.04784 13.2735 4.49984C13.4175 4.9465 13.2962 5.42708 12.9562 5.75374Z" fill="#2CC879"/>
</svg>
