<svg width="25" height="25" viewBox="0 0 25 25" fill="none" xmlns="http://www.w3.org/2000/svg">
<g clip-path="url(#clip0_70_2453)">
<path d="M20.0728 7.44193L21.5697 5.94505L20.0968 4.47161L18.4955 6.07292C17.0327 5.03624 15.3256 4.39732 13.5416 4.21875V2.08333H15.6249V0H9.37492V2.08333H11.4583V4.21875C9.67424 4.39732 7.9672 5.03624 6.50435 6.07292L4.90305 4.47161L3.43013 5.94505L4.92701 7.44193C3.52977 8.9213 2.59643 10.7775 2.24225 12.7814C1.88807 14.7852 2.12857 16.8489 2.93405 18.7176C3.73953 20.5863 5.0747 22.1782 6.77469 23.2966C8.47467 24.4151 10.465 25.0111 12.4999 25.0111C14.5348 25.0111 16.5252 24.4151 18.2252 23.2966C19.9251 22.1782 21.2603 20.5863 22.0658 18.7176C22.8713 16.8489 23.1118 14.7852 22.7576 12.7814C22.4034 10.7775 21.4701 8.9213 20.0728 7.44193ZM12.4999 22.9167C10.8517 22.9167 9.24058 22.4279 7.87017 21.5122C6.49976 20.5966 5.43166 19.2951 4.80093 17.7724C4.1702 16.2496 4.00517 14.5741 4.32671 12.9576C4.64826 11.3411 5.44193 9.85621 6.60737 8.69078C7.77281 7.52534 9.25766 6.73167 10.8742 6.41012C12.4907 6.08858 14.1662 6.25361 15.689 6.88434C17.2117 7.51507 18.5132 8.58317 19.4288 9.95358C20.3445 11.324 20.8333 12.9352 20.8333 14.5833C20.8308 16.7927 19.952 18.9109 18.3897 20.4732C16.8275 22.0354 14.7093 22.9142 12.4999 22.9167Z" fill="#2CC879"/>
<path d="M12.5 8.33301V14.583H6.25C6.25 15.8191 6.61656 17.0275 7.30331 18.0553C7.99007 19.0831 8.96619 19.8842 10.1082 20.3573C11.2503 20.8303 12.5069 20.9541 13.7193 20.7129C14.9317 20.4718 16.0453 19.8765 16.9194 19.0024C17.7935 18.1283 18.3888 17.0147 18.6299 15.8023C18.8711 14.5899 18.7473 13.3333 18.2742 12.1912C17.8012 11.0492 17.0001 10.0731 15.9723 9.38632C14.9445 8.69956 13.7361 8.33301 12.5 8.33301Z" fill="#2CC879"/>
</g>
<defs>
<clipPath id="clip0_70_2453">
<rect width="25" height="25" fill="white"/>
</clipPath>
</defs>
</svg>
