<svg width="54" height="54" viewBox="0 0 54 54" fill="none" xmlns="http://www.w3.org/2000/svg">
<g clip-path="url(#clip0_70_1882)">
<path d="M37.7143 19.7694H29.1428L32.5714 10.3408H37.7143V19.7694Z" fill="#D6BDEF"/>
<path d="M48.2702 12.7573C48.1699 12.7572 48.0703 12.7398 47.9759 12.7058C47.5235 12.5434 47.2879 12.0445 47.4503 11.592L50.0964 4.21344C50.1348 4.10559 50.1942 4.0064 50.271 3.92155C50.3479 3.8367 50.4407 3.76786 50.5443 3.71898C50.6478 3.6701 50.76 3.64214 50.8743 3.63672C50.9887 3.63129 51.103 3.6485 51.2107 3.68736C51.6631 3.84978 51.8988 4.34865 51.7363 4.80111L49.0902 12.1797C49.0296 12.3487 48.9184 12.4949 48.7716 12.5982C48.6248 12.7016 48.4497 12.7571 48.2702 12.7573Z" fill="#95D6A4"/>
<path d="M47.4493 12.4622C47.2239 12.4619 47.0074 12.3743 46.8453 12.2178C46.6832 12.0612 46.5881 11.8479 46.58 11.6226L46.4108 6.93518C46.3929 6.45467 46.7688 6.05062 47.2495 6.03321C47.7436 6.01022 48.134 6.39128 48.151 6.87232L48.3203 11.5598C48.3381 12.0403 47.9622 12.4443 47.4816 12.4617C47.4706 12.4622 47.4604 12.4622 47.4493 12.4622Z" fill="#95D6A4"/>
<path d="M49.0901 13.0508C48.8773 13.0511 48.6717 12.9731 48.5126 12.8318C48.1528 12.5128 48.1188 11.9625 48.4377 11.6023L51.5473 8.09084C51.8688 7.73066 52.4175 7.69871 52.7772 8.01638C53.137 8.33532 53.171 8.88565 52.8521 9.24583L49.7425 12.7573C49.6608 12.8497 49.5603 12.9236 49.4479 12.9743C49.3354 13.0249 49.2135 13.051 49.0901 13.0508Z" fill="#B3E59F"/>
<path d="M48.5579 11.4125C46.7468 10.7629 44.7519 11.7047 44.1025 13.5159L42.0554 19.1474H49.4852L50.6612 15.868C51.3107 14.0568 50.3691 12.062 48.5579 11.4125Z" fill="#FFA95F"/>
<path d="M42.4162 9.92739L41.6947 9.20588C41.5329 9.04416 41.4046 8.85214 41.317 8.64081C41.2295 8.42948 41.1844 8.20297 41.1844 7.97422V5.21178C41.1844 4.98079 41.0927 4.75926 40.9293 4.59592C40.766 4.43258 40.5444 4.34082 40.3135 4.34082H39.4425L39.0376 4.85002V19.1473H42.9263V11.1592C42.9264 10.9304 42.8814 10.7039 42.7938 10.4925C42.7063 10.2812 42.578 10.0891 42.4162 9.92739Z" fill="#DBEAFF"/>
<path d="M39.4424 7.8252H37.7005V7.97464C37.7005 8.4366 37.517 8.87967 37.1903 9.20631L36.4688 9.92782C36.307 10.0896 36.1786 10.2816 36.0911 10.4929C36.0035 10.7043 35.9585 10.9308 35.9585 11.1596V13.9219L39.4423 19.1477L39.4424 7.8252Z" fill="#C3DDFF"/>
<path d="M39.4423 7.82466H37.7004V5.21178C37.7004 4.98079 37.7922 4.75926 37.9555 4.59592C38.1189 4.43258 38.3404 4.34082 38.5714 4.34082H39.4423C39.6733 4.34082 39.8949 4.43258 40.0582 4.59592C40.2215 4.75926 40.3133 4.98079 40.3133 5.21178L39.4423 7.82466ZM35.9585 13.9215H37.7004C38.6625 13.9215 39.4423 14.7014 39.4423 15.6634V19.1473H35.9585V13.9215Z" fill="#B6B1B7"/>
<path d="M40.3133 4.34082H39.4424V7.82466H41.1843V5.21178C41.1843 4.98079 41.0925 4.75926 40.9292 4.59592C40.7659 4.43258 40.5443 4.34082 40.3133 4.34082Z" fill="#C8C5C9"/>
<path d="M49.3157 14.4598C49.208 14.421 49.0937 14.4038 48.9794 14.4092C48.8651 14.4147 48.7529 14.4426 48.6494 14.4915C48.5459 14.5404 48.453 14.6092 48.3762 14.694C48.2993 14.7789 48.2399 14.878 48.2015 14.9859C48.039 15.4383 48.2746 15.9372 48.7271 16.0996L50.3669 16.6878H50.367L50.6611 15.8678C50.7609 15.5913 50.825 15.3032 50.8518 15.0104L49.3157 14.4598ZM43.5141 15.1556L45.1539 15.7438C45.2483 15.7777 45.3479 15.7951 45.4482 15.7952C45.6277 15.7952 45.8028 15.7396 45.9496 15.6363C46.0963 15.5329 46.2076 15.3867 46.2681 15.2177C46.4305 14.7652 46.1949 14.2664 45.7424 14.1039L44.1026 13.5157L44.1024 13.5156L44.1023 13.5157L43.5076 15.1518C43.5101 15.1526 43.5117 15.1546 43.5141 15.1556Z" fill="#FF8B5A"/>
<path d="M29.1428 10.3408H32.5714V19.7694H29.1428V10.3408Z" fill="#C3AFF0"/>
<path d="M19.3803 3.90723C19.4199 4.4063 19.0911 7.62953 18.9189 8.09961C18.389 9.54569 16.4676 12.0484 17.1276 14.9862L18.6638 20.8341L25.6316 24.318L21.3335 4.03252L19.3803 3.90723Z" fill="#FFE07D"/>
<path d="M19.7784 4.34802L18.919 3.89355L18.2139 4.66295L18.2894 5.61628C18.3296 6.11384 18.2615 6.61419 18.0899 7.08293C17.56 8.52901 16.4677 12.0479 17.1277 14.9857L22.1477 20.8336L19.7784 4.34802Z" fill="#FFD064"/>
<path d="M20.9165 1.97461C20.7432 1.10639 19.8246 0.557949 18.9285 0.909582C18.3295 1.14457 17.9854 1.78307 18.0362 2.42432L18.2137 4.66332L21.3334 4.03251L20.9165 1.97461Z" fill="#C38C66"/>
<path d="M15.7597 8.31979L13.2939 7.64258L16.3877 19.9631H21.2767L15.7597 8.31979Z" fill="#FFE07D"/>
<path d="M13.4344 8.75879L12.8828 9.68164L13.1853 10.5891C13.3438 11.0624 13.398 11.5645 13.344 12.0607C13.1772 13.5917 12.9623 17.27 14.3089 19.9632H18.8221L14.3348 8.99451L13.4344 8.75879Z" fill="#FFD064"/>
<path d="M14.8606 6.42268C14.4837 5.62165 13.4603 5.30998 12.6749 5.86654C12.1499 6.23853 11.9692 6.94106 12.1726 7.5513L12.8828 9.68209L15.7595 8.32017L14.8606 6.42268Z" fill="#C38C66"/>
<path d="M26.7234 12.9951H23.0184C22.904 12.9951 22.7908 13.0176 22.6851 13.0614C22.5795 13.1052 22.4834 13.1693 22.4026 13.2502C22.3217 13.3311 22.2575 13.4271 22.2138 13.5328C22.17 13.6384 22.1475 13.7517 22.1475 13.8661V19.0918H30.8572V17.3499L26.7234 12.9951Z" fill="#B3E59F"/>
<path d="M30.8571 17.3502H25.6313C24.6692 17.3502 23.8894 16.5703 23.8894 15.6083V13.8664L25.036 13.3379H29.8172L30.8571 13.8664V17.3502Z" fill="#CCF49F"/>
<path d="M23.8895 6.89844H29.9862C30.2172 6.89844 30.4388 6.9902 30.6021 7.15354C30.7654 7.31687 30.8572 7.53841 30.8572 7.7694V13.8661H23.8895L23.0186 7.7694C23.0186 7.53841 23.1103 7.31687 23.2737 7.15354C23.437 6.9902 23.6585 6.89844 23.8895 6.89844Z" fill="#DAD8DB"/>
<path d="M23.0184 6.89844C22.904 6.89844 22.7908 6.92097 22.6851 6.96474C22.5795 7.00851 22.4834 7.07266 22.4026 7.15354C22.3217 7.23441 22.2575 7.33043 22.2138 7.4361C22.17 7.54177 22.1475 7.65502 22.1475 7.7694V13.8661H23.8894V6.89844H23.0184Z" fill="#C8C5C9"/>
<path d="M27.3734 11.2536H25.6315C25.15 11.2536 24.7605 10.8636 24.7605 10.3827C24.7605 9.90174 25.1501 9.51172 25.6315 9.51172H27.3734C27.8548 9.51172 28.2443 9.90174 28.2443 10.3827C28.2443 10.8636 27.8548 11.2536 27.3734 11.2536Z" fill="#CCF49F"/>
<path d="M11.4501 19.4669L9.34245 13.9549C8.71132 12.3068 7.10335 11.2002 5.3397 11.2002H3.42871V12.9145H5.3397C6.39776 12.9145 7.36291 13.5791 7.74122 14.5677L9.84807 20.0797C9.97864 20.4212 10.3042 20.6305 10.6491 20.6305C10.7512 20.6305 10.8541 20.612 10.9555 20.5744C11.3974 20.4053 11.6185 19.9097 11.4501 19.4669ZM50.5716 48.9119H14.9943L19.5254 37.9084C18.9099 37.8006 18.3806 37.575 17.9371 37.2623L12.9216 49.4426C12.8128 49.7072 12.843 50.0085 13.002 50.2462C13.1611 50.4839 13.4281 50.6262 13.7143 50.6262H50.5714C51.0452 50.6262 51.4286 50.2428 51.4286 49.7691C51.4286 49.2953 51.0453 48.9119 50.5716 48.9119Z" fill="#DAD8DB"/>
<path d="M13.7145 53.198C15.608 53.198 17.143 51.6629 17.143 49.7694C17.143 47.8758 15.608 46.3408 13.7145 46.3408C11.8209 46.3408 10.2859 47.8758 10.2859 49.7694C10.2859 51.6629 11.8209 53.198 13.7145 53.198Z" fill="#5D5360"/>
<path d="M13.7143 51.4833C14.6611 51.4833 15.4286 50.7158 15.4286 49.769C15.4286 48.8222 14.6611 48.0547 13.7143 48.0547C12.7675 48.0547 12 48.8222 12 49.769C12 50.7158 12.7675 51.4833 13.7143 51.4833Z" fill="#C8C5C9"/>
<path d="M53.1429 18.915H10.4572L10.2305 19.9888L15.9258 36.1042C17.0663 39.0873 19.3837 39.977 22.5468 39.5357L50.3066 35.6622C50.3066 35.6622 53.4639 34.4468 53.4658 34.4015C53.4947 33.6969 54.0001 33.0765 54.0001 32.3287V19.7722C54.0001 19.5448 53.9097 19.3268 53.749 19.1661C53.5882 19.0053 53.3702 18.915 53.1429 18.915Z" fill="#FF8086"/>
<path d="M50.5714 53.198C52.465 53.198 54 51.6629 54 49.7694C54 47.8758 52.465 46.3408 50.5714 46.3408C48.6778 46.3408 47.1428 47.8758 47.1428 49.7694C47.1428 51.6629 48.6778 53.198 50.5714 53.198Z" fill="#5D5360"/>
<path d="M50.5715 51.4833C51.5182 51.4833 52.2858 50.7158 52.2858 49.769C52.2858 48.8222 51.5182 48.0547 50.5715 48.0547C49.6247 48.0547 48.8572 48.8222 48.8572 49.769C48.8572 50.7158 49.6247 51.4833 50.5715 51.4833Z" fill="#C8C5C9"/>
<path d="M3.42866 12.9125H0.857231C0.632231 12.909 0.417641 12.8171 0.259775 12.6568C0.101909 12.4964 0.0134277 12.2804 0.0134277 12.0554C0.0134277 11.8304 0.101909 11.6144 0.259775 11.454C0.417641 11.2936 0.632231 11.2018 0.857231 11.1982H3.42866C3.65366 11.2018 3.86826 11.2936 4.02612 11.454C4.18399 11.6144 4.27247 11.8304 4.27247 12.0554C4.27247 12.2804 4.18399 12.4964 4.02612 12.6568C3.86826 12.8171 3.65366 12.909 3.42866 12.9125Z" fill="#5D5360"/>
<path d="M53.4654 34.4012L22.31 38.7489C22.0733 38.7819 21.8345 38.7985 21.5955 38.7986C19.4807 38.7986 17.5518 37.4698 16.7956 35.4921L10.4574 18.915H9.86744C9.26669 18.915 8.8523 19.5171 9.06682 20.0783L15.1943 36.1042C16.3349 39.0873 19.3839 40.888 22.5469 40.4467L50.3067 36.5733C51.6807 36.3815 52.8301 35.5445 53.4654 34.4012Z" fill="#E5646E"/>
<path d="M21.4923 37.8852C21.4181 37.9057 21.3416 37.9162 21.2646 37.9163C20.8888 37.9163 20.5431 37.6668 20.4393 37.286L16.4005 22.5705C16.275 22.1144 16.5436 21.6422 16.9999 21.5175C17.4552 21.3912 17.9282 21.6598 18.0529 22.1169L22.0917 36.8323C22.2172 37.2884 21.9485 37.7605 21.4923 37.8852Z" fill="#FFE07D"/>
<path d="M27.041 37.2227C26.9943 37.2307 26.947 37.2347 26.8996 37.2345C26.4877 37.2345 26.1245 36.9373 26.055 36.5179L23.7238 22.4838C23.7053 22.3728 23.7089 22.2592 23.7343 22.1495C23.7597 22.0399 23.8065 21.9363 23.8719 21.8447C23.9374 21.7532 24.0202 21.6754 24.1158 21.6159C24.2113 21.5563 24.3176 21.5162 24.4287 21.4978C24.8958 21.4174 25.3369 21.7355 25.4147 22.2026L27.7459 36.2366C27.7644 36.3476 27.7608 36.4612 27.7354 36.5709C27.71 36.6806 27.6632 36.7841 27.5977 36.8757C27.5323 36.9673 27.4494 37.0451 27.3539 37.1046C27.2584 37.1642 27.1521 37.2043 27.041 37.2227Z" fill="#B3E59F"/>
<path d="M32.7264 36.4264C32.7097 36.4272 32.693 36.4281 32.6762 36.4281C32.2259 36.4281 31.8476 36.0766 31.8216 35.6203L31.0574 22.3923C31.0508 22.2799 31.0664 22.1674 31.1033 22.061C31.1403 21.9547 31.1978 21.8567 31.2727 21.7726C31.3476 21.6886 31.4383 21.6201 31.5397 21.5712C31.6411 21.5223 31.7511 21.4938 31.8635 21.4875C32.3298 21.4632 32.7415 21.8207 32.7683 22.2936L33.5325 35.5216C33.5392 35.634 33.5236 35.7465 33.4866 35.8529C33.4497 35.9592 33.3921 36.0572 33.3172 36.1412C33.2423 36.2253 33.1516 36.2938 33.0502 36.3427C32.9489 36.3916 32.8388 36.4201 32.7264 36.4264Z" fill="#D6BDEF"/>
<path d="M39.0002 34.7486C39.0002 35.2224 38.6168 35.6057 38.143 35.6057C37.6693 35.6057 37.2859 35.2224 37.2859 34.7486V22.3435C37.2859 21.8697 37.6693 21.4863 38.143 21.4863C38.6168 21.4863 39.0002 21.8697 39.0002 22.3435V34.7486Z" fill="#A4CCFF"/>
<path d="M44.4643 34.0312C44.4643 34.505 44.0809 34.8883 43.6071 34.8883C43.1334 34.8883 42.75 34.505 42.75 34.0312V22.3435C42.75 21.8697 43.1334 21.4863 43.6071 21.4863C44.0809 21.4863 44.4643 21.8697 44.4643 22.3435V34.0312Z" fill="#FFD064"/>
<path d="M49.7143 33.085C49.7143 33.5587 49.3309 33.9421 48.8571 33.9421C48.3834 33.9421 48 33.5587 48 33.085V22.3405C48 21.8668 48.3834 21.4834 48.8571 21.4834C49.3309 21.4834 49.7143 21.8668 49.7143 22.3405V33.085Z" fill="#FFA95F"/>
</g>
<defs>
<clipPath id="clip0_70_1882">
<rect width="54" height="54" fill="white"/>
</clipPath>
</defs>
</svg>
