<svg width="25" height="25" viewBox="0 0 25 25" fill="none" xmlns="http://www.w3.org/2000/svg">
<path d="M0.749072 10.9838C0.340625 10.9838 0.00952148 11.3149 0.00952148 11.7233V22.5855C0.00952148 22.994 0.340674 23.3251 0.749072 23.3251H5.20479V10.9838H0.749072ZM24.9905 15.0677C24.9905 14.1289 24.4861 13.3057 23.734 12.8548C24.0323 12.4248 24.1918 11.9139 24.1912 11.3907C24.1912 9.96914 23.0346 8.8126 21.6131 8.8126H16.1708C16.3376 8.05674 16.5657 6.92251 16.7246 5.73516C17.1379 2.64527 16.8554 0.931644 15.8355 0.342337C15.1997 -0.0249966 14.5142 -0.0995083 13.9052 0.132328C13.4347 0.311527 12.7994 0.752103 12.4373 1.8334L11.0069 5.57857C10.2818 7.36944 8.06113 9.24956 6.68394 10.2892V23.6523C9.23638 24.5467 11.8999 25 14.6171 25H20.5471C21.9687 25 23.1252 23.8435 23.1252 22.4219C23.1258 21.9421 22.9916 21.4717 22.738 21.0643C23.5974 20.6458 24.1911 19.7632 24.1911 18.7448C24.1917 18.2216 24.0322 17.7107 23.7339 17.2807C24.4861 16.8298 24.9905 16.0065 24.9905 15.0677Z" fill="#2CC879"/>
</svg>
