<svg width="16" height="16" viewBox="0 0 16 16" fill="none" xmlns="http://www.w3.org/2000/svg">
<path d="M14.3333 10.3335C14.5199 10.3335 14.6666 10.4802 14.6666 10.6668V11.3335C14.6666 12.4402 13.7733 13.3335 12.6666 13.3335C12.6666 12.2335 11.7666 11.3335 10.6666 11.3335C9.56659 11.3335 8.66659 12.2335 8.66659 13.3335H7.33325C7.33325 12.2335 6.43325 11.3335 5.33325 11.3335C4.23325 11.3335 3.33325 12.2335 3.33325 13.3335C2.22659 13.3335 1.33325 12.4402 1.33325 11.3335V10.0002C1.33325 9.6335 1.63325 9.3335 1.99992 9.3335H8.33325C9.25325 9.3335 9.99992 8.58683 9.99992 7.66683V4.00016C9.99992 3.6335 10.2999 3.3335 10.6666 3.3335H11.2266C11.7066 3.3335 12.1466 3.5935 12.3866 4.00683L12.8133 4.7535C12.8733 4.86016 12.7933 5.00016 12.6666 5.00016C11.7466 5.00016 10.9999 5.74683 10.9999 6.66683V8.66683C10.9999 9.58683 11.7466 10.3335 12.6666 10.3335H14.3333Z" fill="#2CC879"/>
<path d="M5.33333 14.6667C6.06971 14.6667 6.66667 14.0697 6.66667 13.3333C6.66667 12.597 6.06971 12 5.33333 12C4.59695 12 4 12.597 4 13.3333C4 14.0697 4.59695 14.6667 5.33333 14.6667Z" fill="#2CC879"/>
<path d="M10.6666 14.6667C11.403 14.6667 11.9999 14.0697 11.9999 13.3333C11.9999 12.597 11.403 12 10.6666 12C9.93021 12 9.33325 12.597 9.33325 13.3333C9.33325 14.0697 9.93021 14.6667 10.6666 14.6667Z" fill="#2CC879"/>
<path d="M14.6667 8.35333V9.33333H12.6667C12.3 9.33333 12 9.03333 12 8.66667V6.66667C12 6.3 12.3 6 12.6667 6H13.5267L14.4933 7.69333C14.6067 7.89333 14.6667 8.12 14.6667 8.35333Z" fill="#2CC879"/>
<path d="M8.72016 1.3335H3.7935C2.60016 1.3335 1.60016 2.18683 1.38016 3.32016H4.2935C4.54683 3.32016 4.74683 3.52683 4.74683 3.78016C4.74683 4.0335 4.54683 4.2335 4.2935 4.2335H1.3335V5.1535H3.06683C3.32016 5.1535 3.52683 5.36016 3.52683 5.6135C3.52683 5.86683 3.32016 6.06683 3.06683 6.06683H1.3335V6.98683H1.84683C2.10016 6.98683 2.30683 7.1935 2.30683 7.44683C2.30683 7.70016 2.10016 7.90016 1.84683 7.90016H1.3335V8.0535C1.3335 8.42016 1.6335 8.72016 2.00016 8.72016H8.10016C8.78016 8.72016 9.3335 8.16683 9.3335 7.48683V1.94683C9.3335 1.60683 9.06016 1.3335 8.72016 1.3335Z" fill="#2CC879"/>
<path d="M1.38008 3.32031H1.28008H0.626748C0.373415 3.32031 0.166748 3.52698 0.166748 3.78031C0.166748 4.03365 0.373415 4.23365 0.626748 4.23365H1.23341H1.33341V3.79365C1.33341 3.63365 1.35341 3.47365 1.38008 3.32031Z" fill="#2CC879"/>
<path d="M1.23341 5.15332H0.626748C0.373415 5.15332 0.166748 5.35999 0.166748 5.61332C0.166748 5.86665 0.373415 6.06665 0.626748 6.06665H1.23341H1.33341V5.15332H1.23341Z" fill="#2CC879"/>
<path d="M1.23341 6.98682H0.626748C0.373415 6.98682 0.166748 7.19348 0.166748 7.44682C0.166748 7.70015 0.373415 7.90015 0.626748 7.90015H1.23341H1.33341V6.98682H1.23341Z" fill="#2CC879"/>
</svg>
