<svg width="159" height="159" viewBox="0 0 159 159" fill="none" xmlns="http://www.w3.org/2000/svg">
<rect width="159" height="159" fill="#F5F5F5"/>
<path d="M-5081 -6149C-5081 -6150.1 -5080.1 -6151 -5079 -6151H7521C7522.1 -6151 7523 -6150.1 7523 -6149V22088C7523 22089.1 7522.1 22090 7521 22090H-5079C-5080.1 22090 -5081 22089.1 -5081 22088V-6149Z" fill="#E0E0E0"/>
<path d="M-5079 -6150H7521V-6152H-5079V-6150ZM7522 -6149V22088H7524V-6149H7522ZM7521 22089H-5079V22091H7521V22089ZM-5080 22088V-6149H-5082V22088H-5080ZM-5079 22089C-5079.55 22089 -5080 22088.6 -5080 22088H-5082C-5082 22089.7 -5080.66 22091 -5079 22091V22089ZM7522 22088C7522 22088.6 7521.55 22089 7521 22089V22091C7522.66 22091 7524 22089.7 7524 22088H7522ZM7521 -6150C7521.55 -6150 7522 -6149.55 7522 -6149H7524C7524 -6150.66 7522.66 -6152 7521 -6152V-6150ZM-5079 -6152C-5080.66 -6152 -5082 -6150.66 -5082 -6149H-5080C-5080 -6149.55 -5079.55 -6150 -5079 -6150V-6152Z" fill="black" fill-opacity="0.1"/>
<rect width="393" height="852" transform="translate(-134 -202)" fill="white"/>
<g clip-path="url(#clip0_0_1)">
<path d="M18.8819 22.8315H34.9605V33.5606H18.8819V22.8315Z" fill="#48C1E1"/>
<path d="M38.2768 21.6503C38.2768 22.5301 37.5572 23.2499 36.6775 23.2499H17.1649C16.2851 23.2499 15.5656 22.5301 15.5656 21.6503V10.1206C15.5656 9.24084 16.2851 8.521 17.1649 8.521H36.6772C37.5569 8.521 38.2765 9.24084 38.2765 10.1206L38.2768 21.6503Z" fill="#046699"/>
<path d="M22.237 21.6503V10.1206C22.237 9.24084 22.9566 8.521 23.8367 8.521H17.1649C16.2851 8.521 15.5656 9.24084 15.5656 10.1206V21.6503C15.5656 22.5301 16.2851 23.2499 17.1649 23.2499H23.8367C22.9569 23.2499 22.237 22.5301 22.237 21.6503Z" fill="black"/>
<path d="M13.8976 109.804C13.9384 109.787 13.9751 109.762 14.0053 109.73C14.0356 109.698 14.0587 109.66 14.0731 109.618C14.0875 109.577 14.0929 109.532 14.0888 109.488C14.0848 109.445 14.0715 109.402 14.0498 109.364C13.9166 109.128 13.8492 108.897 13.8492 108.677C13.8492 106.965 17.6468 105.132 23.301 105.132C25.1205 105.132 26.8931 105.335 28.4272 105.717C28.4792 105.731 28.5337 105.73 28.5853 105.716C28.637 105.701 28.684 105.674 28.7219 105.636C28.7599 105.598 28.7874 105.551 28.8017 105.499C28.816 105.448 28.8167 105.393 28.8036 105.341C27.8169 101.403 27.2521 97.3556 27.1195 93.2195C27.1176 93.1713 27.1145 93.1232 27.1129 93.0748C27.0951 92.4828 27.0861 91.8906 27.0859 91.2984C27.0858 90.9545 27.2222 90.6246 27.4651 90.3811C27.708 90.1376 28.0376 90.0005 28.3815 89.9997H31.1873C31.231 89.9998 31.2743 89.9906 31.3142 89.9728C31.3541 89.955 31.3898 89.9289 31.4189 89.8963C31.4481 89.8638 31.47 89.8254 31.4833 89.7838C31.4966 89.7421 31.5009 89.6981 31.496 89.6547C31.4532 89.2955 31.4307 88.9342 31.4286 88.5724C31.4286 84.1968 34.2266 80.3752 38.3914 79.0632C38.4338 79.0498 38.4729 79.0275 38.5059 78.9977C38.5389 78.9679 38.5652 78.9314 38.5829 78.8905C38.6005 78.8497 38.6092 78.8056 38.6083 78.7611C38.6074 78.7166 38.597 78.6729 38.5777 78.6328C38.2035 77.8558 37.9381 77.031 37.7889 76.1816C37.0635 71.9951 39.2538 67.827 43.1148 66.0454C43.2608 65.978 43.3312 65.8103 43.2772 65.6587C43.0969 65.1549 42.9602 64.6366 42.8685 64.1094C42.2797 60.7127 43.6083 57.4184 46.069 55.3324V41.996C46.069 37.0863 42.0614 33.0693 37.1625 33.0693H16.6792C11.7809 33.0693 7.77301 37.0863 7.77301 41.996V113.508C9.55772 112.004 11.6151 110.744 13.8976 109.804Z" fill="#A2DFF9"/>
<path d="M38.3917 79.0626C38.4341 79.0493 38.4732 79.0269 38.5062 78.9971C38.5393 78.9674 38.5655 78.9308 38.5832 78.89C38.6008 78.8492 38.6095 78.805 38.6086 78.7605C38.6077 78.7161 38.5973 78.6723 38.578 78.6322C38.2038 77.8553 37.9384 77.0305 37.7892 76.1811C37.0638 71.9946 39.2541 67.8264 43.1151 66.0448C43.2611 65.9774 43.3316 65.8097 43.2775 65.6582C43.0972 65.1544 42.9605 64.6361 42.8688 64.1089C42.28 60.7121 43.6086 57.4178 46.0693 55.3319V49.3271H7.77301V82.37H33.5854C34.82 80.8109 36.4944 79.6587 38.3917 79.0626Z" fill="#046699"/>
<path d="M17.3906 105.932V41.996C17.3906 37.0863 21.3983 33.0693 26.2968 33.0693H16.6792C11.7809 33.0693 7.77301 37.0863 7.77301 41.996V113.508C9.55772 112.004 11.6151 110.745 13.8976 109.804C13.9384 109.787 13.9751 109.762 14.0053 109.73C14.0356 109.698 14.0587 109.66 14.0731 109.618C14.0875 109.577 14.0929 109.533 14.0888 109.489C14.0848 109.445 14.0715 109.402 14.0498 109.364C13.9166 109.129 13.8492 108.897 13.8492 108.677C13.8495 107.671 15.1628 106.625 17.3906 105.932Z" fill="black"/>
<path d="M75.32 58.4599C75.4098 58.9779 75.456 59.5152 75.457 60.0571C75.4571 60.1347 75.4862 60.2094 75.5386 60.2666C75.591 60.3238 75.6629 60.3593 75.7402 60.3661C79.7155 60.7154 83.0393 63.5473 84.0119 67.4133C84.0251 67.4657 84.0517 67.5137 84.0891 67.5527C84.1265 67.5916 84.1735 67.6201 84.2253 67.6354C84.2771 67.6507 84.3319 67.6522 84.3845 67.6397C84.4371 67.6273 84.4855 67.6014 84.5249 67.5646C86.1448 66.0537 88.1605 65.1457 90.3545 64.9389C90.4298 64.9319 90.4999 64.8976 90.5516 64.8425C90.6034 64.7875 90.6333 64.7154 90.6356 64.6398C90.7769 60.285 92.5476 56.1898 95.622 53.1089C95.6863 53.0446 95.7534 52.9847 95.8186 52.9213C95.1385 48.5855 93.1404 44.4189 89.8139 41.0849C89.6584 40.929 89.4736 40.8054 89.2703 40.721C89.067 40.6367 88.849 40.5933 88.6288 40.5933C88.4087 40.5933 88.1907 40.6367 87.9873 40.721C87.784 40.8054 87.5993 40.929 87.4438 41.0849L73.812 54.748C74.576 55.8623 75.0904 57.1285 75.32 58.4599Z" fill="#EF5050"/>
<path d="M84.0116 67.4133C84.0248 67.4657 84.0514 67.5137 84.0888 67.5527C84.1262 67.5916 84.1732 67.6201 84.225 67.6354C84.2768 67.6507 84.3316 67.6522 84.3842 67.6397C84.4368 67.6273 84.4852 67.6014 84.5246 67.5646C85.302 66.8377 86.1912 66.2406 87.1581 65.796C87.0479 65.4282 86.8481 65.0935 86.5767 64.8218L84.3156 62.5551C83.8794 62.1179 83.2873 61.8718 82.6697 61.871C82.052 61.8703 81.4593 62.1149 81.022 62.5511C81.0152 62.5576 81.0099 62.5648 81.0034 62.5716C82.4853 63.8334 83.5368 65.5258 84.0116 67.4133ZM88.8552 60.5192H85.6578C84.3712 60.5192 83.3287 59.4764 83.3287 58.1901C83.3287 56.9038 84.3712 55.861 85.6578 55.861H88.8552C89.4729 55.861 90.0654 56.1064 90.5022 56.5432C90.9389 56.98 91.1843 57.5724 91.1843 58.1901C91.1843 59.4767 90.1418 60.5192 88.8552 60.5192ZM85.2066 54.0847C84.7462 54.0845 84.2962 53.948 83.9133 53.6923C83.5305 53.4365 83.232 53.0731 83.0556 52.6478C82.8792 52.2225 82.8328 51.7545 82.9222 51.3029C83.0116 50.8513 83.2328 50.4363 83.5579 50.1103L85.8199 47.8439C86.2563 47.4067 86.8485 47.1607 87.4663 47.1602C88.084 47.1596 88.6767 47.4044 89.1139 47.8408C89.5511 48.2772 89.7971 48.8694 89.7977 49.4872C89.7983 50.1049 89.5534 50.6976 89.117 51.1348L86.855 53.4011C86.6389 53.6181 86.3819 53.7902 86.0991 53.9075C85.8162 54.0248 85.5129 54.085 85.2066 54.0847Z" fill="#C0272D"/>
<path d="M114.407 49.334C114.379 49.2636 114.338 49.1997 114.284 49.1462C114.231 49.0927 114.167 49.0508 114.097 49.0232C110.944 47.7657 107.492 47.4617 104.169 48.149C100.845 48.8363 97.7966 50.4846 95.4016 52.8892C92.2044 56.0929 90.3808 60.4161 90.3176 64.9418C90.6432 64.9096 90.9702 64.8933 91.2974 64.893C96.1276 64.893 100.163 68.3619 101.058 72.9443C104.656 72.3587 107.977 70.6537 110.55 68.0718C115.456 63.1537 116.97 55.799 114.407 49.334Z" fill="#89C947"/>
<path d="M106.039 57.411C105.822 57.1949 105.565 57.0236 105.283 56.9068C105 56.79 104.697 56.7301 104.391 56.7305C104.085 56.7308 103.782 56.7914 103.5 56.9088C103.218 57.0262 102.961 57.1981 102.745 57.4147L94.6882 65.4898C96.1958 66.0412 97.5481 66.9482 98.6303 68.1338L106.043 60.7046C106.259 60.4881 106.43 60.2312 106.547 59.9485C106.664 59.6657 106.723 59.3628 106.723 59.0569C106.723 58.7511 106.662 58.4483 106.545 58.1659C106.427 57.8834 106.255 57.6269 106.039 57.411Z" fill="#D5E962"/>
<path d="M117.752 76.0077C117.833 76.4825 117.874 76.9634 117.875 77.4452C117.875 77.606 117.998 77.7399 118.158 77.7542C119.418 77.865 120.62 78.2557 121.73 78.9153C121.792 78.9525 121.866 78.9666 121.937 78.9551C122.009 78.9436 122.075 78.9074 122.123 78.8526C122.352 78.5869 122.591 78.3291 122.838 78.0796C124.713 76.2008 126.979 74.8599 129.451 74.1289C129.688 73.2512 129.809 72.346 129.809 71.4367C129.809 65.759 125.216 61.1558 119.551 61.1558C114.719 61.1558 110.67 64.505 109.583 69.0126C111.546 69.0433 113.437 69.7591 114.929 71.0365C116.421 72.3138 117.419 74.0722 117.752 76.0077ZM47.4544 89.7764C46.4197 87.9424 45.757 85.9224 45.5044 83.8319C44.0233 83.5901 42.622 82.9955 41.4189 82.0984C40.2158 81.2012 39.2462 80.0278 38.592 78.6771C34.2803 79.8939 31.1187 83.8614 31.1187 88.5718C31.1187 88.9798 31.1497 89.3804 31.196 89.7761H47.4544V89.7764Z" fill="#FFC502"/>
<path d="M125.739 84.722C126.04 86.4373 125.8 88.2039 125.05 89.7761H138.231C139.781 87.6005 140.761 85.0714 141.083 82.4197C141.405 79.7679 141.057 77.0778 140.072 74.5947C140.047 74.5303 140.009 74.4717 139.96 74.4226C139.911 74.3735 139.852 74.335 139.788 74.3094C136.893 73.1544 133.722 72.8752 130.67 73.5064C127.617 74.1376 124.818 75.6514 122.618 77.8598C122.293 78.1887 121.981 78.5316 121.686 78.8874C123.777 80.116 125.304 82.2168 125.739 84.722Z" fill="#89C947"/>
<path d="M125.05 89.7761H127.931L132.525 85.1719C132.741 84.9554 132.912 84.6985 133.029 84.4157C133.145 84.133 133.205 83.8301 133.205 83.5242C133.205 83.2184 133.144 82.9156 133.027 82.6331C132.909 82.3507 132.737 82.0942 132.521 81.8782C132.304 81.6622 132.047 81.4908 131.765 81.3741C131.482 81.2573 131.179 81.1974 130.873 81.1978C130.567 81.1981 130.264 81.2587 129.982 81.3761C129.699 81.4935 129.443 81.6654 129.227 81.882L125.816 85.3005C125.978 86.8344 125.713 88.3833 125.05 89.7761Z" fill="#D5E962"/>
<path d="M84.3685 67.5931C83.434 63.41 79.8932 60.4188 75.7676 60.0564C75.7675 59.5034 75.7202 58.9514 75.6263 58.4065C74.7114 53.1284 69.6846 49.5947 64.3991 50.5149C61.6554 50.9925 59.3844 52.5778 57.9583 54.7277C55.8935 53.1852 53.2212 52.4607 50.4776 52.938C45.1911 53.8585 41.6481 58.8838 42.5636 64.1618C42.6592 64.7162 42.8027 65.2503 42.9856 65.7627C39.0851 67.5623 36.7166 71.8078 37.4837 76.234C38.2085 80.418 41.5186 83.5027 45.493 84.1443C45.1079 81.4761 45.4169 78.7221 46.4482 76.1207C46.4582 76.0954 46.4732 76.0725 46.4924 76.0532C46.5115 76.034 46.5345 76.0189 46.5597 76.0089C48.3979 75.2742 50.3594 74.8972 52.339 74.8981C56.513 74.8981 60.4393 76.5287 63.3941 79.4901C63.6065 79.7045 63.8127 79.9248 64.0124 80.151C63.8455 79.0705 63.7616 77.9788 63.7615 76.8856C63.7615 76.1309 64.3736 75.517 65.1261 75.517H81.3875C81.3724 75.2995 81.3643 75.0816 81.3633 74.8636C81.3633 72.0246 82.5117 69.4539 84.3685 67.5931Z" fill="#368C0E"/>
<path d="M50.3567 68.5026L50.3164 68.5023C50.0105 68.4971 49.7087 68.4317 49.4282 68.3099C49.1476 68.1881 48.8938 68.0122 48.6812 67.7923C48.4686 67.5724 48.3014 67.3127 48.1892 67.0282C48.0769 66.7437 48.0218 66.4399 48.027 66.134C48.0953 62.1016 51.4027 58.8647 55.4242 58.8647L55.5426 58.8657C56.549 58.8829 57.5415 59.105 58.4594 59.5183C59.3773 59.9316 60.2014 60.5275 60.8815 61.2696C61.2899 61.727 61.5015 62.3271 61.4704 62.9396C61.4392 63.552 61.1678 64.1275 60.715 64.5411C60.2622 64.9547 59.6645 65.173 59.0518 65.1487C58.439 65.1245 57.8605 64.8595 57.4419 64.4114C57.192 64.1355 56.8879 63.9143 56.5485 63.7615C56.2091 63.6087 55.8418 63.5277 55.4696 63.5236C53.9557 63.499 52.7097 64.7064 52.6843 66.2132C52.6739 66.8237 52.4241 67.4058 51.9888 67.834C51.5534 68.2621 50.9674 68.5023 50.3567 68.5026ZM63.2146 72.5102C62.8389 72.5102 62.4688 72.4193 62.1359 72.2453C61.8029 72.0713 61.517 71.8193 61.3025 71.5109C61.088 71.2025 60.9513 70.8467 60.9041 70.474C60.8568 70.1013 60.9004 69.7227 61.0312 69.3705C62.3305 65.8679 66.2393 64.0704 69.746 65.3639C70.6118 65.6852 71.4031 66.1795 72.0716 66.8166C72.7401 67.4537 73.2718 68.2203 73.6344 69.0696C73.876 69.6381 73.8819 70.2793 73.6507 70.8522C73.4196 71.425 72.9703 71.8826 72.4018 72.1242C71.8333 72.3658 71.1921 72.3717 70.6193 72.1405C70.0465 71.9094 69.5889 71.4601 69.3473 70.8916C69.2355 70.6255 69.0699 70.3853 68.861 70.1861C68.652 69.9868 68.4042 69.8329 68.1331 69.7339C67.0315 69.3277 65.8061 69.8916 65.3987 70.9904C65.2333 71.4363 64.9354 71.821 64.5449 72.0927C64.1545 72.3644 63.6903 72.5101 63.2146 72.5102Z" fill="#89C947"/>
<path d="M101.224 75.4917H101.139C101.138 75.5134 101.138 75.5355 101.137 75.5572H104.257C104.477 75.5574 104.695 75.601 104.899 75.6855C105.102 75.77 105.287 75.8938 105.443 76.0497C105.598 76.2056 105.722 76.3907 105.806 76.5943C105.89 76.7979 105.933 77.016 105.933 77.2363C105.933 81.9163 104.422 86.2434 101.878 89.7762H125.385C126.088 88.2297 126.356 86.4673 126.044 84.669C125.352 80.6716 122.049 77.7838 118.185 77.4444C118.185 76.945 118.142 76.4466 118.058 75.9544C117.231 71.1869 112.691 67.9954 107.917 68.8264C105.439 69.2584 103.387 70.6897 102.1 72.6322C101.681 72.321 101.235 72.0476 100.768 71.8154C101.085 72.8006 101.246 73.829 101.245 74.8638C101.245 75.0687 101.238 75.2762 101.224 75.4917Z" fill="#368C0E"/>
<path d="M101.531 75.5167C101.545 75.3006 101.556 75.0832 101.556 74.8633C101.556 69.185 96.963 64.582 91.2977 64.582C85.6327 64.582 81.04 69.1853 81.04 74.8633C81.04 75.0832 81.0503 75.3006 81.0643 75.5167H101.531Z" fill="#F7931E"/>
<path d="M63.614 79.2712C61.4144 77.0629 58.6146 75.5493 55.5623 74.9181C52.51 74.2869 49.3396 74.566 46.4445 75.7208C46.38 75.7464 46.3214 75.785 46.2724 75.8341C46.2233 75.8832 46.1849 75.9419 46.1594 76.0065C45.279 78.2266 44.9067 80.6156 45.0698 82.9983C45.233 85.381 45.9274 87.697 47.1022 89.7764H68.2442C66.1027 86.9237 64.6509 83.5239 64.1413 79.8259C63.9699 79.6368 63.7941 79.4519 63.614 79.2712Z" fill="#89C947"/>
<path d="M56.8928 89.7763H63.473L57.0046 83.2933C56.5683 82.8561 55.9762 82.6101 55.3586 82.6094C54.7409 82.6087 54.1482 82.8534 53.711 83.2896C53.4944 83.5056 53.3225 83.7621 53.205 84.0445C53.0876 84.3269 53.027 84.6297 53.0266 84.9356C53.0262 85.2415 53.0861 85.5444 53.2029 85.8271C53.3196 86.1098 53.4909 86.3668 53.7069 86.5833L56.8928 89.7763Z" fill="#D5E962"/>
<path d="M102.035 89.776C104.733 86.1811 106.342 81.7201 106.342 76.8852C106.343 76.6649 106.3 76.4467 106.216 76.2431C106.131 76.0394 106.008 75.8544 105.852 75.6984C105.697 75.5425 105.512 75.4188 105.309 75.3343C105.105 75.2498 104.887 75.2062 104.667 75.2061H65.126C64.9058 75.2063 64.6877 75.2499 64.4843 75.3345C64.281 75.419 64.0962 75.5427 63.9407 75.6987C63.7851 75.8546 63.6618 76.0396 63.5778 76.2432C63.4937 76.4468 63.4506 76.6649 63.4509 76.8852C63.4509 81.7201 65.0599 86.1811 67.7585 89.776H102.035Z" fill="#EF5050"/>
<path d="M87.3102 89.7762V88.1651C87.3102 86.8788 86.2677 85.836 84.9811 85.836C83.6946 85.836 82.652 86.8788 82.652 88.1651V89.7762H87.3102ZM91.7787 89.7762H95.4006C95.7659 89.3296 95.9524 88.7632 95.924 88.1869C95.8955 87.6105 95.6541 87.0653 95.2466 86.6568L92.9855 84.3904C92.5492 83.9531 91.9572 83.7071 91.3395 83.7063C90.7218 83.7056 90.1292 83.9502 89.6918 84.3864C89.2546 84.8226 89.0085 85.4147 89.0077 86.0324C89.007 86.65 89.2516 87.2427 89.6878 87.68L91.7787 89.7762ZM77.8165 89.7762L79.9071 87.6807C80.3404 87.2428 80.5825 86.6511 80.5805 86.0351C80.5786 85.4191 80.3326 84.8289 79.8966 84.3938C79.4605 83.9587 78.8699 83.7141 78.2539 83.7134C77.6379 83.7128 77.0467 83.9562 76.6097 84.3904L74.3483 86.6568C73.9408 87.0652 73.6994 87.6103 73.6708 88.1866C73.6422 88.7629 73.8285 89.3292 74.1937 89.7759L77.8165 89.7762ZM74.2356 83.4951H71.0376C69.751 83.4951 68.7085 82.4523 68.7085 81.166C68.7085 79.8797 69.751 78.8369 71.0376 78.8369H74.2356C74.8533 78.8369 75.4457 79.0823 75.8825 79.5191C76.3193 79.9559 76.5647 80.5483 76.5647 81.166C76.5647 81.7837 76.3193 82.3761 75.8825 82.8129C75.4457 83.2497 74.8533 83.4951 74.2356 83.4951ZM98.7558 83.4951H95.5574C94.9397 83.4951 94.3473 83.2497 93.9105 82.8129C93.4737 82.3761 93.2283 81.7837 93.2283 81.166C93.2283 80.5483 93.4737 79.9559 93.9105 79.5191C94.3473 79.0823 94.9397 78.8369 95.5574 78.8369H98.7558C99.3735 78.8369 99.9659 79.0823 100.403 79.5191C100.839 79.9559 101.085 80.5483 101.085 81.166C101.085 81.7837 100.839 82.3761 100.403 82.8129C99.9659 83.2497 99.3735 83.4951 98.7558 83.4951Z" fill="#C0272D"/>
<path d="M28.8746 105.836C28.9208 105.849 28.9693 105.851 29.0164 105.842C29.0635 105.833 29.1079 105.813 29.1461 105.784C29.1843 105.755 29.2153 105.718 29.2367 105.675C29.2581 105.632 29.2692 105.585 29.2693 105.537V101.595C29.2693 100.482 30.1749 99.5766 31.2879 99.5766C32.4009 99.5766 33.3064 100.482 33.3064 101.595V105.537C33.3063 105.585 33.3174 105.632 33.3387 105.675C33.36 105.718 33.3911 105.756 33.4293 105.785C33.4676 105.814 33.5121 105.833 33.5592 105.842C33.6064 105.851 33.655 105.849 33.7011 105.836C35.3349 105.375 37.2625 105.132 39.2745 105.132C44.928 105.132 48.726 106.965 48.726 108.676C48.726 108.897 48.6586 109.129 48.5254 109.364C48.5037 109.402 48.4904 109.445 48.4864 109.489C48.4824 109.533 48.4878 109.577 48.5021 109.618C48.5165 109.66 48.5395 109.698 48.5697 109.73C48.5999 109.762 48.6366 109.787 48.6773 109.804C55.9158 112.788 61.0451 119.117 62.064 126.322C62.0747 126.395 62.1117 126.463 62.1681 126.512C62.2245 126.561 62.2967 126.588 62.3714 126.589C62.4087 126.589 62.446 126.582 62.4817 126.568L111.509 107.943C112.454 107.583 113.457 107.4 114.468 107.4C115.89 107.4 117.297 107.767 118.536 108.46C120.692 109.667 122.185 111.747 122.634 114.168L123.061 116.473C123.07 116.523 123.09 116.569 123.121 116.608C123.152 116.648 123.192 116.679 123.237 116.7C123.283 116.721 123.333 116.73 123.383 116.727C123.433 116.725 123.481 116.71 123.524 116.684L140.008 106.954C141.424 101.906 142.142 96.673 142.142 91.2977C142.142 91.0866 142.101 90.8775 142.02 90.6824C141.94 90.4872 141.822 90.3099 141.672 90.1605C141.523 90.011 141.346 89.8924 141.151 89.8114C140.956 89.7305 140.747 89.6887 140.536 89.6885H28.3818C28.1707 89.6887 27.9616 89.7305 27.7667 89.8114C27.5717 89.8924 27.3946 90.011 27.2454 90.1605C27.0963 90.3099 26.978 90.4872 26.8974 90.6824C26.8168 90.8775 26.7754 91.0866 26.7756 91.2977C26.7756 96.2513 27.388 101.084 28.5914 105.762C28.6855 105.787 28.7824 105.81 28.8746 105.836Z" fill="#E6E9ED"/>
<path d="M28.8746 105.836C28.9208 105.849 28.9693 105.851 29.0164 105.842C29.0635 105.833 29.1079 105.813 29.1461 105.784C29.1843 105.755 29.2153 105.718 29.2367 105.675C29.2581 105.632 29.2692 105.585 29.2693 105.537V101.595C29.2693 100.482 30.1749 99.5766 31.2879 99.5766C32.4009 99.5766 33.3064 100.482 33.3064 101.595V105.537C33.3063 105.585 33.3174 105.632 33.3387 105.675C33.36 105.718 33.3911 105.756 33.4293 105.785C33.4676 105.814 33.5121 105.833 33.5592 105.842C33.6064 105.851 33.655 105.849 33.7011 105.836C35.0995 105.442 36.7141 105.208 38.4118 105.149C37.3112 100.662 36.7538 96.0348 36.7538 91.2977C36.7536 91.0866 36.795 90.8775 36.8756 90.6824C36.9562 90.4872 37.0745 90.3099 37.2236 90.1605C37.3727 90.011 37.5499 89.8924 37.7448 89.8114C37.9398 89.7305 38.1488 89.6887 38.36 89.6885H28.3818C28.1707 89.6887 27.9616 89.7305 27.7667 89.8114C27.5717 89.8924 27.3946 90.011 27.2454 90.1605C27.0963 90.3099 26.978 90.4872 26.8974 90.6824C26.8168 90.8775 26.7754 91.0866 26.7756 91.2977C26.7756 96.2513 27.388 101.084 28.5914 105.762C28.6855 105.787 28.7824 105.81 28.8746 105.836Z" fill="black"/>
<path d="M31.2876 106.944C31.9255 106.586 32.7155 106.274 33.6173 106.019V101.595C33.6173 100.308 32.5748 99.2656 31.2882 99.2656C30.0016 99.2656 28.9591 100.308 28.9591 101.595V106.019C29.8609 106.273 30.65 106.586 31.2876 106.944Z" fill="#89C947"/>
<path d="M55.0814 150.165L46.6693 150.168H46.6662C42.6617 150.168 39.228 147.322 38.5019 143.401L38.419 142.955C37.6926 139.033 39.882 135.154 43.625 133.732L62.4171 126.593C61.4495 118.853 55.995 112.37 48.5052 109.396C47.7786 110.618 45.2762 111.681 42.0179 112.063C41.9571 112.07 41.8997 112.095 41.853 112.135C41.8062 112.175 41.7723 112.227 41.7554 112.286C41.7385 112.345 41.7394 112.408 41.758 112.466C41.7766 112.524 41.812 112.576 41.8599 112.614C43.5486 113.965 44.6094 115.389 44.6979 116.424C44.7302 116.799 44.638 117.104 44.4157 117.355C44.0197 117.802 43.2409 118.038 42.1639 118.038C40.0671 118.038 37.2315 117.161 34.5788 115.693C33.4105 115.046 32.3711 114.339 31.4882 113.591C31.4321 113.543 31.3611 113.517 31.2876 113.517C31.2141 113.517 31.1431 113.543 31.087 113.591C30.2035 114.339 29.1641 115.047 27.997 115.693C25.3444 117.161 22.5087 118.038 20.4119 118.038C19.3346 118.038 18.5561 117.802 18.1602 117.355C17.9378 117.104 17.8453 116.8 17.8776 116.425C17.9664 115.39 19.0272 113.965 20.7153 112.614C20.763 112.576 20.7983 112.524 20.8168 112.466C20.8353 112.408 20.8362 112.345 20.8193 112.286C20.8024 112.227 20.7686 112.175 20.722 112.135C20.6753 112.095 20.618 112.07 20.5573 112.063C17.2981 111.681 14.7954 110.617 14.0699 109.395C5.79387 112.681 0 120.249 0 129.064C0 140.891 10.4285 150.479 23.2923 150.479H55.5879C55.9366 150.479 55.6668 150.355 55.0814 150.165Z" fill="#EF5050"/>
<path d="M10.0772 129.064C10.0772 122.038 13.7566 115.804 19.4396 111.898C16.7335 111.426 14.7097 110.473 14.0696 109.396C5.79387 112.681 0 120.249 0 129.064C0 140.891 10.4285 150.479 23.2923 150.479H33.3698C20.506 150.479 10.0772 140.891 10.0772 129.064Z" fill="black"/>
<path d="M49.0369 108.677C49.0369 106.547 44.6662 104.822 39.2748 104.822C35.9725 104.822 33.054 105.47 31.2873 106.461C29.5218 105.47 26.6036 104.822 23.3006 104.822C17.9095 104.822 13.5383 106.547 13.5383 108.677C13.5383 110.424 16.4841 111.899 20.5203 112.372C18.0511 114.348 16.9204 116.425 17.9266 117.561C19.2598 119.066 23.836 118.351 28.1464 115.965C29.3566 115.295 30.4171 114.565 31.2866 113.828C32.1571 114.565 33.2182 115.295 34.4275 115.965C38.7382 118.351 43.3141 119.065 44.647 117.561C45.6535 116.425 44.5231 114.348 42.053 112.372C46.092 111.899 49.0369 110.424 49.0369 108.677Z" fill="#368C0E"/>
<path d="M158.964 122.468L158.339 119.094C158.124 117.929 157 117.16 155.831 117.374L131.692 121.808L147.104 111.505C147.453 111.273 147.725 110.944 147.889 110.558C148.052 110.172 148.099 109.748 148.023 109.336C147.979 109.103 147.898 108.879 147.781 108.673L146.037 105.584C145.896 105.335 145.707 105.116 145.48 104.941C145.253 104.765 144.994 104.637 144.717 104.564C144.44 104.49 144.151 104.472 143.867 104.511C143.583 104.55 143.309 104.645 143.062 104.791L123.012 116.626L126.805 137.104L149.803 141.237C150.086 141.288 150.377 141.281 150.658 141.218C150.939 141.155 151.205 141.036 151.439 140.869C151.674 140.702 151.872 140.489 152.022 140.244C152.172 139.999 152.271 139.726 152.314 139.441L152.834 135.954C152.87 135.714 152.865 135.476 152.823 135.25C152.746 134.838 152.55 134.458 152.259 134.155C151.969 133.853 151.596 133.642 151.188 133.549L133.098 129.4L157.237 124.966C158.407 124.751 159.179 123.633 158.964 122.468Z" fill="#89C947"/>
<path d="M38.1966 143.458C38.9503 147.527 42.5142 150.48 46.6693 150.479L119.327 150.451C120.589 150.451 121.836 150.174 122.979 149.64C124.122 149.106 125.134 148.327 125.944 147.36C126.752 146.394 127.336 145.262 127.656 144.045C127.976 142.828 128.023 141.555 127.794 140.317L122.94 114.111C122.476 111.606 120.918 109.437 118.689 108.189C116.459 106.941 113.789 106.745 111.4 107.652L43.5148 133.441C39.6323 134.917 37.3603 138.942 38.1137 143.011L38.1966 143.458Z" fill="#F7931E"/>
<path d="M38.1966 143.457C38.3124 144.07 38.4951 144.669 38.7413 145.242C39.7726 143.409 41.4152 141.997 43.3821 141.252L114.277 114.32C115.509 113.851 116.83 113.659 118.145 113.756C119.46 113.853 120.738 114.236 121.889 114.88C122.373 115.152 122.831 115.469 123.257 115.825L122.94 114.111C122.476 111.606 120.918 109.437 118.689 108.189C116.459 106.941 113.789 106.745 111.4 107.652L43.5148 133.441C39.6323 134.917 37.3603 138.942 38.1137 143.011L38.1966 143.457Z" fill="black"/>
<path d="M115.162 139.556C115.04 138.955 114.686 138.426 114.177 138.085C113.668 137.743 113.044 137.616 112.442 137.731C111.84 137.847 111.307 138.195 110.96 138.7C110.613 139.206 110.479 139.828 110.587 140.431L112.505 150.453L117.247 150.452L115.162 139.556ZM102.537 142.318C102.419 141.715 102.066 141.184 101.558 140.839C101.049 140.495 100.424 140.366 99.8207 140.479C99.2169 140.593 98.6826 140.941 98.334 141.447C97.9855 141.953 97.851 142.576 97.9598 143.181L99.3318 150.458L104.072 150.457L102.537 142.318ZM90.1949 124.776C90.3216 125.279 90.6123 125.725 91.0211 126.044C91.4299 126.363 91.9335 126.536 92.452 126.537C92.8065 126.537 93.1564 126.456 93.475 126.301C93.7937 126.145 94.0727 125.919 94.2907 125.64C94.5087 125.36 94.66 125.035 94.7331 124.688C94.8062 124.341 94.7991 123.982 94.7124 123.638L92.4954 114.834L88.1111 116.5L90.1949 124.776ZM78.0755 140.288C77.9659 139.68 77.6192 139.141 77.1119 138.789C76.6045 138.436 75.9779 138.3 75.37 138.409C74.7621 138.519 74.2226 138.866 73.8703 139.373C73.5179 139.88 73.3816 140.507 73.4912 141.115L75.1778 150.468L79.9108 150.466L78.0755 140.288ZM54.5792 135.935C54.6408 136.236 54.7612 136.521 54.9334 136.775C55.1056 137.029 55.3263 137.246 55.5828 137.414C55.8392 137.583 56.1264 137.699 56.4279 137.756C56.7293 137.813 57.039 137.81 57.3393 137.747C57.6395 137.684 57.9244 137.562 58.1775 137.389C58.4305 137.215 58.6468 136.994 58.814 136.736C58.9811 136.479 59.0958 136.191 59.1514 135.89C59.207 135.588 59.2025 135.278 59.138 134.978L57.6856 128.058L53.2777 129.733L54.5792 135.935Z" fill="#FFC502"/>
</g>
<defs>
<clipPath id="clip0_0_1">
<rect width="159" height="159" fill="white"/>
</clipPath>
</defs>
</svg>
